<?xml version="1.0" encoding="UTF-8"?>
<!DOCTYPE svg PUBLIC "-//W3C//DTD SVG 1.1//EN" "http://www.w3.org/Graphics/SVG/1.1/DTD/svg11.dtd">
<!-- Creator: CorelDRAW 2019 (64-Bit) -->
<svg xmlns="http://www.w3.org/2000/svg" xml:space="preserve" width="3.3866mm" height="3.3866mm" version="1.1" style="shape-rendering:geometricPrecision; text-rendering:geometricPrecision; image-rendering:optimizeQuality; fill-rule:evenodd; clip-rule:evenodd"
viewBox="0 0 12.53 12.53"
 xmlns:xlink="http://www.w3.org/1999/xlink">
 <defs>
  <style type="text/css">
   <![CDATA[
    .fil0 {fill:#3B5898}
    .fil1 {fill:#FDFDFF}
   ]]>
  </style>
 </defs>
 <g id="Capa_x0020_1">
  <metadata id="CorelCorpID_0Corel-Layer"/>
  <g id="_1163147648">
   <path class="fil0" d="M6.26 12.53l0 -4.31 -1.57 0 0 -1.96 1.57 0c0,-0.55 -0.05,-1.42 0.03,-1.93 0.16,-1.01 0.95,-1.8 1.96,-1.96 0.51,-0.08 1.38,-0.03 1.93,-0.03l0 1.96c-0.29,0 -0.59,0 -0.88,-0 -0.87,-0 -0.68,0.1 -0.68,1.96l1.96 0.01 -0.78 1.95 -1.18 0 0 4.31 2.41 0c0.18,-0.01 0.35,-0.04 0.48,-0.09 0.37,-0.14 0.62,-0.37 0.81,-0.68 0.17,-0.27 0.2,-0.5 0.21,-0.81l0 -9.47c-0.02,-0.76 -0.71,-1.44 -1.43,-1.47l-9.5 0c-0.31,0.01 -0.55,0.04 -0.8,0.19 -0.63,0.38 -0.77,0.83 -0.8,1.36l0 9.52c0.04,0.43 0.19,0.82 0.61,1.14 0.38,0.29 0.65,0.32 1.09,0.32l4.56 0z"/>
   <path class="fil1" d="M8.61 12.53l0 -4.31 1.18 0 0.78 -1.95 -1.96 -0.01c0,-1.86 -0.19,-1.96 0.68,-1.96 0.29,0 0.59,0 0.88,0l0 -1.96c-0.55,0 -1.42,-0.05 -1.93,0.03 -1.01,0.16 -1.8,0.94 -1.96,1.96 -0.08,0.51 -0.03,1.38 -0.03,1.93l-1.57 0 -0 1.96 1.57 0 0 4.31 2.35 0z"/>
  </g>
 </g>
</svg>
