<?xml version="1.0" encoding="UTF-8"?>
<!DOCTYPE svg PUBLIC "-//W3C//DTD SVG 1.1//EN" "http://www.w3.org/Graphics/SVG/1.1/DTD/svg11.dtd">
<!-- Creator: CorelDRAW 2019 (64-Bit) -->
<svg xmlns="http://www.w3.org/2000/svg" xml:space="preserve" width="2.226mm" height="1.6927mm" version="1.1" style="shape-rendering:geometricPrecision; text-rendering:geometricPrecision; image-rendering:optimizeQuality; fill-rule:evenodd; clip-rule:evenodd"
viewBox="0 0 5.3 4.03"
 xmlns:xlink="http://www.w3.org/1999/xlink">
 <defs>
  <style type="text/css">
   <![CDATA[
    .fil5 {fill:#AB3C31}
    .fil6 {fill:#AD231F}
    .fil0 {fill:#BBBABA}
    .fil4 {fill:#D0CFCF}
    .fil2 {fill:#D54A3C}
    .fil1 {fill:#D62B27}
    .fil3 {fill:#E3E3E3}
   ]]>
  </style>
 </defs>
 <g id="Capa_x0020_1">
  <metadata id="CorelCorpID_0Corel-Layer"/>
  <g id="_980640192">
   <path class="fil0" d="M0.66 1l0 0.12 0 2.91 0.01 0 0 -0 0 -2.89 0.34 0.35c0.01,0.01 0.02,0.02 0.02,0.03 0.01,0.01 0.02,0.01 0.03,0.02 0.02,0.02 0.03,0.03 0.05,0.05l0.15 0.15c0.07,0.07 0.13,0.14 0.2,0.2l0.1 0.1c0.04,0.03 0.26,0.26 0.3,0.3l0.22 0.23c0.02,0.01 0.02,0.01 0.03,0.02 0.03,0.03 0.13,0.13 0.15,0.15 0.02,0.01 0.06,0.06 0.08,0.08l1.04 1.05c0.03,0.03 0.05,0.05 0.08,0.08 0.02,0.02 0.06,0.06 0.08,0.08 0.18,0 0.36,0 0.54,0 0.09,0 0.18,0 0.27,0 0.05,0 0.24,-0.01 0.28,0l0 -3.03c-0.02,0.01 -0.1,0.07 -0.13,0.09 -0.04,0.03 -0.08,0.06 -0.13,0.09 -0.11,0.08 -1.71,1.25 -1.73,1.26l-0.5 -0.36c-0.04,-0.03 -0.08,-0.06 -0.13,-0.09 -0.14,-0.1 -1.33,-0.97 -1.36,-0.98z"/>
   <path class="fil1" d="M4.85 0.02c-0.01,0.01 -0.03,0.01 -0.04,0.02 -0.03,0.02 -0.08,0.05 -0.11,0.07l-0.41 0.3c-0.37,0.26 -0.73,0.54 -1.1,0.8 -0.09,0.07 -0.18,0.13 -0.27,0.2 -0.05,0.03 -0.09,0.07 -0.14,0.1 -0.02,0.02 -0.05,0.03 -0.07,0.05 -0.01,0.01 -0.06,0.04 -0.07,0.05 -0.02,-0.01 -0.05,-0.04 -0.07,-0.05l-1.33 -0.97c-0.09,-0.07 -0.18,-0.14 -0.28,-0.2 -0.1,-0.07 -0.19,-0.14 -0.28,-0.2 -0.07,-0.05 -0.15,-0.12 -0.22,-0.14 -0.03,-0.01 -0.08,-0.01 -0.1,-0.02 -0.18,0 -0.33,0.09 -0.36,0.27 -0.01,0.06 -0,0.53 -0,0.62 0,0.23 -0,2.78 0,2.82 0.02,0.12 0.1,0.23 0.21,0.27 0.05,0.02 0.07,0.02 0.14,0.02 0.11,-0 0.21,0 0.32,0l0 -2.91c-0.02,-0.01 -0.03,-0.03 -0.05,-0.04l-0 2.9c-0.08,0 -0.17,0 -0.25,0 -0.14,0 -0.26,-0.05 -0.3,-0.2 -0.02,-0.06 -0.01,-0.17 -0.01,-0.24l0 -2.76c0,-0.08 -0,-0.17 0,-0.25 0.02,0.01 0.03,0.04 0.09,0.09 0.03,0.02 0.08,0.05 0.1,0.08l0.38 0.28 0.05 0.03c0.03,0.01 1.22,0.89 1.36,0.98 0.04,0.03 0.08,0.06 0.13,0.09l0.5 0.36c0.02,-0.01 1.62,-1.18 1.73,-1.26 0.04,-0.03 0.08,-0.06 0.13,-0.09 0.03,-0.02 0.11,-0.08 0.13,-0.09l0 3.03 0 -3.04c0.01,-0.01 0.04,-0.03 0.05,-0.03 0.02,-0.02 0.05,-0.04 0.07,-0.05 0.02,-0.02 0.05,-0.04 0.07,-0.05 0.07,-0.05 0.34,-0.24 0.39,-0.3 0.01,-0.01 0.02,-0.03 0.03,-0.04 0.02,-0.04 0.03,-0.06 0.05,-0.11 0,-0.05 0.02,-0.1 -0.01,-0.19 -0.02,-0.06 -0.05,-0.09 -0.09,-0.13 -0.03,-0.03 -0.09,-0.06 -0.14,-0.08 -0.03,-0.01 -0.05,-0.01 -0.07,-0.01l-0.04 0c-0.03,0 -0.06,0.01 -0.09,0.02z"/>
   <path class="fil2" d="M2.65 1.67c-0.03,-0.01 -0.92,-0.67 -0.99,-0.72l-0.99 -0.72c-0.05,-0.04 -0.11,-0.08 -0.16,-0.12 -0.06,-0.04 -0.14,-0.07 -0.23,-0.05 -0.24,0.05 -0.31,0.35 -0.11,0.51 0.03,0.02 0.05,0.04 0.08,0.06l0.41 0.3c0.22,0.15 0.44,0.32 0.66,0.48 0.05,0.04 0.11,0.08 0.16,0.12 0.13,0.1 0.28,0.2 0.41,0.3l0.74 0.54c0.04,-0.02 1.38,-1.01 1.65,-1.2 0.19,-0.14 0.39,-0.28 0.58,-0.42l0.25 -0.18c0.2,-0.15 0.15,-0.46 -0.1,-0.51 -0.14,-0.03 -0.22,0.04 -0.31,0.1 -0.03,0.02 -0.06,0.04 -0.08,0.06 -0.03,0.02 -0.05,0.04 -0.08,0.06 -0.25,0.18 -0.49,0.36 -0.74,0.54l-1.16 0.85z"/>
   <path class="fil3" d="M4.85 0.02l-4.49 0c0.02,0.01 0.07,0.01 0.1,0.02 0.07,0.03 0.15,0.1 0.22,0.14 0.1,0.07 0.19,0.14 0.28,0.2 0.09,0.07 0.19,0.14 0.28,0.2l1.33 0.97c0.02,0.02 0.05,0.04 0.07,0.05 0.01,-0.01 0.06,-0.04 0.07,-0.05 0.02,-0.02 0.05,-0.04 0.07,-0.05 0.05,-0.03 0.09,-0.07 0.14,-0.1 0.09,-0.07 0.18,-0.13 0.27,-0.2 0.37,-0.26 0.73,-0.54 1.1,-0.8l0.41 -0.3c0.03,-0.02 0.07,-0.06 0.11,-0.07 0.01,-0.01 0.03,-0.01 0.04,-0.02z"/>
   <path class="fil4" d="M0.67 4.02c0.09,-0.08 0.29,-0.23 0.4,-0.32 0.13,-0.11 0.27,-0.21 0.4,-0.32 0.07,-0.06 0.78,-0.62 0.8,-0.64 -0.02,-0.02 -0.12,-0.12 -0.15,-0.15 -0.01,-0.01 -0.01,-0.01 -0.03,-0.02l-0.22 -0.23c-0.04,-0.04 -0.26,-0.27 -0.3,-0.3l-0.1 -0.1c-0.07,-0.07 -0.13,-0.13 -0.2,-0.2l-0.15 -0.15c-0.02,-0.02 -0.03,-0.04 -0.05,-0.05 -0.01,-0.01 -0.02,-0.01 -0.03,-0.02 -0.01,-0.01 -0.02,-0.02 -0.02,-0.03l-0.34 -0.35 -0 2.89z"/>
   <path class="fil3" d="M0.67 4.02l-0 0 2.87 0c-0.02,-0.02 -0.06,-0.06 -0.08,-0.08 -0.03,-0.03 -0.05,-0.05 -0.08,-0.08l-1.04 -1.05c-0.02,-0.02 -0.06,-0.07 -0.08,-0.08 -0.02,0.02 -0.73,0.59 -0.8,0.64 -0.13,0.11 -0.27,0.21 -0.4,0.32 -0.1,0.09 -0.31,0.24 -0.4,0.32z"/>
   <path class="fil5" d="M4.68 0.96l0 3.02c0.08,0 0.17,-0 0.25,-0 0.14,0 0.26,-0.06 0.3,-0.2 0.02,-0.06 0.01,-0.17 0.01,-0.24l0 -2.52c0,-0.17 -0.01,-0.34 0,-0.51 -0.01,0.01 -0.02,0.02 -0.03,0.04 -0.05,0.06 -0.32,0.24 -0.39,0.3 -0.02,0.02 -0.05,0.03 -0.07,0.05 -0.02,0.02 -0.06,0.04 -0.07,0.05z"/>
   <path class="fil2" d="M0.62 1.07l0 -0 -0.38 -0.38c-0.03,-0.03 -0.07,-0.05 -0.1,-0.08 -0.06,-0.05 -0.07,-0.08 -0.09,-0.09 -0,0.08 -0,0.17 -0,0.25l0 2.76c0,0.07 -0.01,0.18 0.01,0.24 0.05,0.14 0.16,0.2 0.3,0.2 0.08,0 0.17,0 0.25,-0l0 -2.9z"/>
   <path class="fil6" d="M5.25 0.52c-0.01,0.17 -0,0.34 -0,0.51l0 2.52c0,0.07 0.01,0.18 -0.01,0.24 -0.05,0.14 -0.16,0.2 -0.3,0.2 -0.08,0 -0.17,0 -0.25,0l0 -3.02c-0.01,0 -0.04,0.02 -0.05,0.03l-0 3.04c0.04,0.01 0.2,0 0.26,0 0.11,0 0.15,0 0.23,-0.04 0.08,-0.04 0.15,-0.14 0.17,-0.23 0.01,-0.08 0,-1.05 0,-1.2 0,-0.71 0,-1.43 0,-2.14 -0.01,0.05 -0.03,0.07 -0.05,0.11z"/>
   <polygon class="fil5" points="0.62,1.07 0.62,0.97 0.24,0.69 "/>
   <path class="fil6" d="M0.62 1.07l-0 0c0.02,0.01 0.03,0.03 0.05,0.04l-0 -0.12 -0.05 -0.03 0 0.1z"/>
  </g>
 </g>
</svg>
