<?xml version="1.0" encoding="UTF-8"?>
<!DOCTYPE svg PUBLIC "-//W3C//DTD SVG 1.1//EN" "http://www.w3.org/Graphics/SVG/1.1/DTD/svg11.dtd">
<!-- Creator: CorelDRAW 2019 (64-Bit) -->
<svg xmlns="http://www.w3.org/2000/svg" xml:space="preserve" width="2.54mm" height="2.54mm" version="1.1" style="shape-rendering:geometricPrecision; text-rendering:geometricPrecision; image-rendering:optimizeQuality; fill-rule:evenodd; clip-rule:evenodd"
viewBox="0 0 8.09 8.09"
 xmlns:xlink="http://www.w3.org/1999/xlink">
 <defs>
  <style type="text/css">
   <![CDATA[
    .fil30 {fill:none}
    .fil1 {fill:#C1392B}
    .fil0 {fill:#E74C3D}
    .fil24 {fill:#E7FBFA}
    .fil29 {fill:#E8E3E3}
    .fil28 {fill:#EBFBEB}
    .fil25 {fill:#ECFEF4}
    .fil21 {fill:#EDFEFD}
    .fil23 {fill:#F1FEFE}
    .fil10 {fill:#F2FFF9}
    .fil5 {fill:#F3FEF3}
    .fil4 {fill:#F4F5F6}
    .fil14 {fill:#F4FAFD}
    .fil7 {fill:#F4FBEB}
    .fil6 {fill:#F5FFF5}
    .fil11 {fill:#F6FFFA}
    .fil17 {fill:#F9FFF5}
    .fil16 {fill:#FAFAFC}
    .fil2 {fill:#FCFBF2}
    .fil27 {fill:#FDEDFA}
    .fil3 {fill:#FDFBEB}
    .fil20 {fill:#FEF3FD}
    .fil15 {fill:#FEF4E4}
    .fil19 {fill:#FEF5FE}
    .fil22 {fill:#FFEDEB}
    .fil9 {fill:#FFF3EC}
    .fil13 {fill:#FFF5F3}
    .fil8 {fill:#FFFAF5}
    .fil26 {fill:#FFFEEE}
    .fil18 {fill:#FFFEF2}
    .fil12 {fill:#FFFEF5}
   ]]>
  </style>
 </defs>
 <g id="Capa_x0020_1">
  <metadata id="CorelCorpID_0Corel-Layer"/>
  <g id="_969459520">
   <path class="fil0" d="M4.79 6.84l0 0zm-1.07 -6.84l0.63 0c0.11,0 0.07,0.02 0.15,0.03 0.02,0.01 0.42,0.12 0.47,0.13 0.05,-0.01 0.08,-0.02 0.08,0.03l0.11 0.05c0.01,-0.01 0.01,-0.02 0.04,-0 0,0 0.01,0 0.01,0 0.04,0.02 0.03,0 0.04,0.04l0.12 0.07 0.05 0.03 0.09 0.06 0.01 0c0.03,0.04 0.05,0.05 0.1,0.08 0.05,0.03 0.06,0.06 0.11,0.08l0.18 0.16 0.14 0.15 0.01 0.01 0.05 0.06c0.05,0.01 0.03,-0.02 0.03,0.03l0.05 0.07 0.12 0.16 0.01 0.03 0.12 0.22 0.12 0.25 0.01 0.03 0.08 0.26 0.07 0.35c0.02,0.03 0.02,0.1 0.02,0.12 0,0.03 -0,0.01 0.01,0.03 -0.01,0.13 -0.02,0.26 -0.01,0.41 0.01,0.18 -0.03,0.15 -0.03,0.27 -0,0.02 0,0.03 0,0.04 0.01,0.04 0,0.02 0.01,0.04 -0.02,0.07 -0.01,0.01 -0.02,0.04 -0.06,0.12 0.02,0.09 -0.07,0.12 0.01,0.04 0.01,0.04 0.02,0.08 -0.02,-0.03 -0.01,-0.02 -0.03,-0.01l-0.04 0.09c0.02,0.04 0.04,0.02 -0.01,0.03 0,0.02 0,0.04 -0,0.06 -0.01,0.04 0.01,0.02 -0.03,0.03l-0.08 0.16 -0 0.01c-0.03,0.03 -0.08,0.13 -0.1,0.17 -0.04,0.06 -0.07,0.11 -0.1,0.17 -0.06,0.1 -0.14,0.23 -0.19,0.33l-0 0.02 -0.09 0.16 -0 0.01c-0.05,0.05 -0.12,0.19 -0.14,0.24l-0.03 0.06 -0.35 0.6 -0.14 0.24 0 0.01c-0.01,0.01 -0.01,0.01 -0.03,0.03l-0.1 0.18c-0.03,0.05 -0.09,0.15 -0.11,0.21l-0.01 0.03 -0.26 0.43c0,0.03 0,0.01 -0,0.04 -0,0 -0,0.01 -0.01,0.01 -0,-0 -0,0.01 -0.01,0.01l-0.03 0.02 -0.13 0.22c-0.04,0.04 -0.12,0.19 -0.14,0.25l-0.11 0.19 -0.18 0.31c-0.06,0.07 -0.09,0.17 -0.15,0.24 -0.06,-0.07 -0.1,-0.17 -0.15,-0.24l-0.1 -0.17c-0.02,-0.05 -0.05,-0.1 -0.08,-0.14l-0.1 -0.17 -0.02 0 -0.1 -0.17c-0.03,-0.05 -0.04,-0.05 -0.04,-0.12l-0.13 -0.22 -0.03 -0.02c-0.01,-0.02 -0.01,-0 -0.01,-0.03 -0,-0.02 -0,-0.01 0,-0.03l-0.25 -0.42c-0,-0.01 -0.01,-0.01 -0.01,-0.01l-0.01 -0.03 -0.15 -0.25c-0.01,-0.04 -0.03,-0.06 -0.04,-0.09 -0,-0.01 -0.02,-0.04 -0.02,-0.04 -0.02,-0.04 -0.02,-0.02 -0.03,-0.04l-0 -0.01 -0.14 -0.24 -0.11 -0.19c-0.03,-0.07 -0.1,-0.17 -0.14,-0.24 -0.05,-0.08 -0.09,-0.16 -0.13,-0.23l-0.14 -0.24 -0 -0.01 -0.09 -0.16 -0 -0.02 -0.09 -0.15 -0.11 -0.19c-0.03,-0.05 -0.07,-0.12 -0.1,-0.17 -0.03,-0.05 -0.06,-0.12 -0.1,-0.16l-0 -0.01 -0.08 -0.16c-0.05,-0.01 -0.03,-0.02 -0.03,-0.09l-0.05 -0.13c-0.02,-0.01 -0.01,-0.01 -0.03,0.01 0.01,-0.14 0.02,-0.01 -0.02,-0.12 -0.06,-0.16 -0.04,-0.09 -0.06,-0.12 0.03,-0.04 0.01,-0.08 0.01,-0.12 -0.05,-0.17 -0.03,-0.83 0.01,-1.02 0,-0.01 0.01,-0.08 0.02,-0.08 0.01,-0.04 -0.03,-0.05 0.03,-0.04l0.09 -0.26 0.01 -0.03 0.1 -0.22c0,-0.01 0.01,-0.06 0.01,-0.08 0.02,-0.06 -0,-0.04 0.05,-0.05l0.08 -0.13 0.02 -0.03 0.06 -0.07c0.03,-0.04 0.03,-0.05 0.06,-0.09 0,-0.05 -0,-0.01 0.01,-0.05 0.01,-0.02 0.01,-0.02 0.02,-0.03 0.02,-0.02 -0.03,-0.01 0.05,-0.02l0.05 -0.06c-0.01,-0.02 -0.01,-0.02 0.01,-0.01l0.14 -0.15c0.05,-0.02 0.14,-0.11 0.18,-0.16l0.21 -0.16 0.01 -0 0.09 -0.06 0.02 -0.05 0.03 0.02 0.12 -0.07c0.01,-0.04 -0.01,-0.04 0.06,-0.03l0.14 -0.06 0.28 -0.1 0.02 -0 0.27 -0.06c0.06,-0.02 0.08,-0.03 0.11,-0.03zm-0.42 6.84l0 0zm-0.93 -3.95c-0.11,-0.91 0.54,-1.75 1.48,-1.87 0.96,-0.12 1.78,0.62 1.87,1.48 0.11,0.99 -0.59,1.75 -1.48,1.87 -0.91,0.12 -1.76,-0.55 -1.87,-1.48zm-0.46 -1.9l0 0z"/>
   <path class="fil1" d="M3.03 2.64c0.01,-0.11 0.04,-0.28 0.09,-0.36 0.03,-0.08 0.09,-0.18 0.14,-0.22l0.03 -0.03c0.04,-0.08 0.23,-0.21 0.35,-0.26 0.1,0 0.03,-0 0.11,-0.03l0.31 -0.05c0.09,0 0.22,0.01 0.28,0.05 0.02,0.02 0.02,-0.03 0.02,0.03l0.08 -0c0.04,0.01 0.06,0.02 0.09,0.04 0.03,0.01 0.02,0.01 0.04,0.02 0.04,0.03 0.02,0.02 0.04,0.04l0.01 0c0.06,0.03 0.15,0.1 0.18,0.16l0.01 0.01c0.06,0.05 0.12,0.14 0.16,0.24l-0 0.01c0.05,0.07 0.07,0.17 0.09,0.27 -0.01,0.09 -0.01,0.09 0.01,0.16 -0.01,0.29 -0.14,0.56 -0.3,0.69l-0.06 0.01 0.02 0.03c-0.02,0.03 0,0.01 -0.03,0.04 -0.01,0.01 -0.01,0.01 -0.03,0.02 -0.04,0.03 -0.02,0.02 -0.06,0.04l-0.01 0 -0.05 0.04c-0.06,0.04 -0.15,0.08 -0.24,0.1 -0.05,-0.01 -0.06,0.01 -0.12,0.02l-0.22 0.01c-0.06,-0.01 -0.09,-0.03 -0.17,-0.02 -0.06,-0.01 -0.09,-0.02 -0.14,-0.04 -0.02,-0.01 -0.04,-0.01 -0.05,-0.02l-0.05 -0.03 -0.01 -0c-0.05,-0.02 -0.02,-0.01 -0.04,-0.03l-0.01 0c-0.09,-0.04 -0.23,-0.2 -0.29,-0.28 -0.08,-0.11 -0.14,-0.26 -0.16,-0.41l-0.01 -0.21zm-0.67 0.25c0.11,0.93 0.97,1.6 1.87,1.48 0.89,-0.12 1.58,-0.88 1.48,-1.87 -0.09,-0.86 -0.9,-1.6 -1.87,-1.48 -0.94,0.12 -1.59,0.96 -1.48,1.87z"/>
   <path class="fil2" d="M3.3 3.3l0 0zm0.19 0.24c-0.01,-0.04 -0.01,-0.05 -0.02,-0.09 -0.08,0.02 -0.03,0.03 -0.05,-0.02l-0.03 0.02c-0.02,-0.04 -0.03,-0.05 -0.05,-0.08l-0.04 -0.07c-0,-0 -0.01,-0.01 -0.01,-0.01l-0.05 -0.01c-0,-0.18 -0.03,-0.15 -0.05,-0.16l-0.05 0c0,-0.08 0.02,-0.05 -0,-0.09 -0,-0 -0.01,-0.01 -0.01,-0.01 -0.03,-0.05 -0.04,-0.12 -0.04,-0.19l-0.05 0c0.02,0.16 0.08,0.3 0.16,0.41 0.06,0.08 0.2,0.24 0.29,0.28z"/>
   <path class="fil2" d="M4.79 3.3l0 0zm0.03 -0.03l-0.02 0.02c-0,0 -0.01,0.01 -0.01,0.01 -0,0 -0,0.01 -0.01,0.01 -0,0.01 -0.01,0.02 -0.01,0.02 -0.02,0.02 0.01,0 -0.03,0.02 0.01,0.03 0.01,0.02 0.02,0.06 0.16,-0.13 0.29,-0.4 0.3,-0.69 -0.02,0.04 -0,0.05 -0.03,0.11 -0.03,0.06 -0.05,0.09 -0.05,0.19l-0.03 0c-0.02,0.05 -0,0.02 -0,0.04 0,0.04 0.01,0.03 -0.03,0.05 -0.04,0.02 0.01,0 -0.04,0.02 0,0.17 -0.01,0.13 -0.05,0.14z"/>
   <path class="fil2" d="M6.07 4.56l0.06 -0.02c0.06,-0.19 0.01,0.04 0.07,-0.16 0.01,-0.03 0,-0.02 0.02,-0.05 0.04,-0.09 -0.01,-0 0.06,-0.02 0.05,-0.01 0,-0.02 -0.01,-0.02 0,-0.12 0.02,-0.05 0.03,-0.05 0,0 0,0 0.01,0 0,-0.05 0.01,-0.06 0.03,-0.09 0,-0 0.01,-0.01 0.01,-0.01 0,-0 0.01,-0.01 0.01,-0.01 0.05,-0.06 0.11,-0.16 0.11,-0.24 -0.03,0.03 -0.08,0.13 -0.1,0.17 -0.04,0.06 -0.07,0.11 -0.1,0.17 -0.06,0.1 -0.14,0.23 -0.19,0.33z"/>
   <path class="fil2" d="M4.5 0.03c0.02,0.01 0.42,0.12 0.47,0.13 -0.02,-0.05 0.04,-0.03 -0.06,-0.04l0.06 -0.06c-0.15,0 -0.01,0.03 -0.14,0.03 0.03,-0.06 0.01,-0.05 0.03,-0.09l-0.06 0c-0.02,0.04 -0.01,0.01 0,0.06l-0.11 0c-0.01,-0.02 0.01,-0.03 -0.09,-0.04 -0.03,-0 -0.05,0.01 -0.1,0.01z"/>
   <path class="fil2" d="M3.03 0.19l0.28 -0.1c0.03,-0.03 0.01,-0.02 0.02,-0l0.27 -0.06 -0.18 0c-0.04,0.01 -0.02,-0.01 -0.03,0.03l-0.11 0 0 -0.06 -0.01 0c-0.11,0 -0.04,0.02 -0.04,0.02 -0,0.02 -0.01,0 -0,0.03 0.01,0.05 -0,-0 0.02,0.04 -0.13,-0 0.01,-0.03 -0.14,-0.03l0.06 0.06c-0.01,0 -0.03,-0 -0.05,0l-0.05 0.02c-0.05,0.03 -0.04,0.02 -0.05,0.05z"/>
   <path class="fil2" d="M5.53 5.56l-0.01 0.03c0,-0.03 -0,-0.01 0.01,-0.03zm-0.08 0.09c0.01,-0 0.02,-0.01 0.02,-0.01l0.02 -0c0.02,-0.01 0,0.04 0.02,-0.02 0.04,-0.02 0.03,0 0.05,-0.06l-0.03 0 0.03 -0.05c0,-0 0,-0.01 0.01,-0.01l0.02 -0.03c0.08,-0.14 0.04,-0.01 0.08,-0.14l0.1 -0.15c0.06,-0.08 -0.05,0.06 0.02,-0.02l0.01 -0.05c0,-0.02 0,-0.03 0,-0.06l-0.35 0.6z"/>
   <path class="fil2" d="M3.95 1.72c0,-0.04 0.03,-0 0.01,0 -0,0 -0.01,0.04 -0.01,0zm-0.19 0.02c0.27,0 0.17,0.03 0.29,0.03 0.01,-0.08 -0.02,-0.02 0.06,-0.06 0.04,0.01 0.01,0 0.02,0.01l0.01 0.01c0,0 0,0 0,0.01l0.2 0c-0.06,-0.04 -0.19,-0.05 -0.28,-0.05l-0.31 0.05z"/>
   <path class="fil3" d="M3.43 1.93l0 0c-0,-0 -0.01,-0 -0,-0zm-0.13 0.09l0.07 0 0.02 -0.03 0.02 -0.03c0.03,0 0.09,0.05 0.09,-0.1l0.11 0c0.02,-0.07 0.03,-0.03 0.05,-0.1 -0.13,0.05 -0.31,0.18 -0.35,0.26z"/>
   <path class="fil2" d="M3.74 7.66l0 0zm-0.05 -0.05l0.02 0.03 -0.02 -0.03zm0.02 -0.09l0 0zm-0.08 0.03c0.03,0.01 0.03,0 0.05,0.02l0.03 -0.02 -0.01 0.03 0 0.03 -0.03 0c0.02,0.04 0.02,0.02 0,0.06 0.05,0 0.03,-0 0.06,0.02l0.02 -0.03 0.02 0 0.02 0 0.02 -0c-0.02,-0.05 -0.05,-0.1 -0.08,-0.14l-0.1 -0.17c0,0.07 -0.01,0.1 0.03,0.12 0.02,0.01 0.01,0.01 0.04,0.01l0 0.03c-0.08,0.01 -0.03,-0.02 -0.05,0.03z"/>
   <path class="fil3" d="M2.31 5.15c0.01,0.01 0.01,0.01 0.02,0.03 0.01,0.02 0.01,0.01 0.02,0.03l0.04 0.07c0.04,0.04 0.06,0.04 0.03,0.09 0.07,0.01 0.03,-0.01 0.06,0.04 0.05,0.07 0.01,0.03 0.06,0.05 -0.03,-0.07 -0.1,-0.17 -0.14,-0.24 -0.05,-0.08 -0.09,-0.16 -0.13,-0.23l-0.02 0.06c0.06,0.02 0.06,0.03 0.07,0.1z"/>
   <path class="fil3" d="M4.2 7.83c-0.06,0.07 -0.09,0.17 -0.15,0.24 -0.06,-0.07 -0.1,-0.17 -0.15,-0.24 -0.02,0.13 0.06,0.09 0.1,0.26l0.09 0c0.04,-0.16 0.1,-0.1 0.11,-0.26z"/>
   <path class="fil2" d="M3.21 6.74l0 0zm-0.16 -0.25c0.03,0.01 0.02,0.01 0.06,0.02 -0.01,0.05 -0.02,0.03 -0.01,0.07 0.01,0.03 0.08,0.04 0.09,0.13l0.01 0.04c0.02,0.01 -0,0 0.03,0.01 0.02,0.01 0.02,0.01 0.05,0.02l-0.25 -0.42c-0,-0.01 -0.01,-0.01 -0.01,-0.01 0,0.12 0.02,0.04 0.05,0.13l-0.03 0.02z"/>
   <path class="fil2" d="M5.7 0.52l0 0c-0,-0 -0.01,-0 -0,-0zm-0.06 -0.06l-0.02 -0.02 0.02 0.02zm-0.02 -0.02l-0.03 -0.01 0.03 0.01zm-0.06 -0.03c0,0.05 0.01,0.02 -0.02,0.03 0.03,0.04 0.05,0.05 0.1,0.08 0.05,0.03 0.06,0.06 0.11,0.08l0 -0.03c-0.05,0 -0,-0.03 0,-0.03l0.02 -0.03c-0.1,-0 -0.09,0.01 -0.13,-0.05 0.03,-0.01 0.02,-0 0.05,-0.02 -0.01,-0.02 -0.01,-0.03 -0.04,-0.04 -0.02,-0.01 -0.03,0.01 -0.06,-0.01l-0.03 0.02z"/>
   <path class="fil2" d="M4.8 6.78l0.02 0 0.03 -0.02c0,-0 0.01,-0 0.01,-0.01l0.03 -0.02 0 -0.06 0.08 -0.06c0.04,-0.05 0.03,-0.04 0.01,-0.1 0.05,-0 0.03,0 0.06,-0.02l-0.03 -0.02c0.02,-0.09 0.05,-0.01 0.05,-0.13l-0.26 0.43z"/>
   <path class="fil2" d="M5.07 6.32c0.05,0 0.18,-0.02 0.05,-0.03 0,-0.01 0.01,-0.03 0.01,-0.03 0.02,-0.03 0.01,-0.01 0.02,-0.03 0.05,-0.13 -0.04,0.05 0.03,-0.05l0.03 -0.05c0.01,-0.06 -0.01,-0.05 0.05,-0.06 0,-0.02 -0,-0.04 0,-0.06 0.02,-0.04 0.01,-0.02 0.04,-0.04l0 -0.07c-0.01,0.01 -0.01,0.01 -0.03,0.03l-0.1 0.18c-0.03,0.05 -0.09,0.15 -0.11,0.21z"/>
   <path class="fil4" d="M4.99 2.51l0 0zm-0.03 -0.14l0.02 0.03 -0.02 -0.03zm0 0l-0.03 0c0.01,0.05 0.02,0.05 0.03,0.09 -0.04,0.02 -0.03,-0 -0.05,0.06 0.11,-0.01 -0,-0.05 0.08,-0.02l0.05 0.05c-0.01,-0.1 -0.04,-0.21 -0.09,-0.27l0 0.08z"/>
   <path class="fil2" d="M2.35 0.55l0 0zm0 0l-0.02 -0.02 0.02 0.02zm0.02 -0.03l0 0c-0,-0 -0.01,-0 -0,-0zm0.09 -0.08l-0.02 0.02 0.02 -0.02zm0 0l0.03 -0.02 -0.03 0.02zm-0.05 0.02l0.03 0c-0.01,0.02 -0.01,0.02 -0.01,0.03 -0,0 -0,0.01 -0,0.01l-0.12 0.01 0.02 0.03c-0.01,0.02 -0.01,-0.01 -0.01,0.03 0,0 0.01,0.03 0.01,0.04l0.21 -0.16c-0.05,-0.03 -0.06,-0.03 -0.12,-0.05 -0,0.05 0,0.03 -0.02,0.06z"/>
   <path class="fil2" d="M4.33 7.66l0 0zm0.03 -0.02l0 0zm-0.16 0.18l0.05 0.01c0,-0.07 0,-0.05 0.03,-0.1 0,-0 0,-0.01 0.01,-0.01 0,-0 0,-0.01 0.01,-0.01 0,-0 0.01,-0.02 0.01,-0.02 0,-0 0,-0.01 0.01,-0.01l0.02 -0.03 0.03 -0.02 0 0.03c0,0 0.11,0.02 0.04,-0.07 -0,-0 -0.01,-0 -0.01,-0.01 -0.03,0 -0.01,0 -0.01,-0.02 0,-0.03 -0,-0.01 0.01,-0.03l-0.02 -0.03 -0.18 0.31z"/>
   <path class="fil4" d="M5.31 5.89c0.02,0.01 0.01,0.01 0.03,0.01 0,-0 0.01,-0 0.01,-0l0.02 0.03c0.03,0.01 0.02,0 0.05,0.02l0.02 -0.06c-0.03,-0.01 0.03,-0.02 -0.05,-0 0.02,-0.06 -0.05,-0.12 0.08,-0.13 -0,-0.06 -0,-0.05 -0.02,-0.1l-0.14 0.24z"/>
   <path class="fil5" d="M3.13 2.4l-0.02 -0.03 0.02 0.03zm-0.09 0.24c0.02,-0.04 0.01,-0.04 0.01,-0.09 0.01,-0 0.02,-0.01 0.03,-0.02l0.05 -0.06c0.01,-0.05 0.02,-0.02 0,-0.06l0.03 0c-0.01,-0.06 -0.03,-0.04 -0.03,-0.12 -0.06,0.08 -0.09,0.25 -0.09,0.36z"/>
   <path class="fil6" d="M2.7 5.83l0 0c-0,-0 -0.01,-0 -0,-0zm-0.02 -0.02c0,0.04 0,0.03 0.02,0.06 -0.08,-0.02 -0.02,-0.01 -0.05,0l0.02 0.06c0.02,-0.01 0.02,-0.01 0.05,-0.01l0 -0.05c0,0 0.02,0.02 0.02,0.02 0.03,0.01 0.01,0.01 0.04,-0.01l-0.14 -0.24c-0.02,0.04 -0.02,0.04 -0.02,0.1 0.05,0 0.04,-0.01 0.06,0.02 0.04,0.04 0,0.04 -0,0.05z"/>
   <path class="fil7" d="M5.83 4.99c0.06,0.02 0.01,-0.02 0.08,0.01 -0.01,-0.06 -0.01,-0.03 0,-0.08l0.01 -0.03c0.03,-0.07 0.01,0.02 0.04,-0.05 0.02,-0.03 0.01,-0.05 0.01,-0.09 -0.05,0.05 -0.12,0.19 -0.14,0.24z"/>
   <path class="fil3" d="M1.82 4.23c-0.03,-0.05 -0.07,-0.12 -0.1,-0.17 -0.03,-0.05 -0.06,-0.12 -0.1,-0.16 0,0.05 0.01,0.05 0.02,0.09l0.07 0.15c0.03,0.05 0.03,0.05 0.06,0.06 0.01,0.05 -0.01,0.02 0.04,0.02z"/>
   <path class="fil2" d="M4.63 1.93c0.02,-0.02 0.06,0.02 0.02,0.01 -0,-0 -0.04,0.02 -0.02,-0.01zm0.16 0.09c-0.03,-0.05 -0.11,-0.13 -0.18,-0.16 -0.02,0.04 -0.01,0.04 0,0.09 0.08,0 0.09,-0.01 0.11,0.06l0.07 0z"/>
   <path class="fil5" d="M6.65 1.9c0,-0.04 0.03,-0 0.01,0 -0,0 -0.01,0.04 -0.01,0zm0.01 0.13l0.01 -0.1c0.04,-0.01 0.02,0.01 0.03,-0.03 -0.04,-0.04 -0.06,-0.03 -0.06,-0.13l-0.05 0 0.08 0.26z"/>
   <path class="fil4" d="M6.57 1.74c0,-0.12 -0.03,-0.06 -0.05,-0.16l0.05 0 0 -0.06c-0.04,-0.01 -0.02,0.01 -0.03,-0.03 -0.09,0.03 -0.01,0.03 -0.08,0l0.12 0.25z"/>
   <path class="fil5" d="M2.1 4.79l0.03 0.05c0.04,0.06 0.01,-0.01 0.04,0.05 0.02,0.05 -0,-0.01 0.01,0.03 0,0 0,0.01 0,0.01 0,0 0,0.01 0,0.01l0 0.08c0.04,-0.02 0.02,-0.01 0.08,-0.01l-0.14 -0.24 -0.02 0.04z"/>
   <path class="fil3" d="M2.18 0.68c-0.02,0.04 -0.01,0.02 -0.02,0.08 0.05,-0.02 0.14,-0.11 0.18,-0.16 -0.07,-0.01 -0.03,-0 -0.05,-0.02l-0.11 0.09z"/>
   <path class="fil3" d="M6.73 2.37l0.01 -0.11c-0,-0.04 0,-0.01 -0.01,-0.04 -0.05,-0.25 -0.03,-0.19 -0.08,-0.2l0.07 0.35z"/>
   <path class="fil8" d="M1.52 1.74l0.1 -0.22c-0.04,-0.01 -0.02,0.01 -0.03,-0.03l-0.03 0c-0.01,0.04 0.01,0.02 -0.03,0.03l0 0.06 0.05 0c-0.02,0.08 -0.05,0.06 -0.05,0.16z"/>
   <path class="fil2" d="M2.87 6.13c0,0 0.01,0.01 0.02,0.02l0.05 0.08c0.01,0.02 0,-0.01 0.02,0.03 0,0 0.01,0.03 0.01,0.03 -0.04,-0.01 -0.01,0 -0.05,-0.02 0.01,0.03 0,0.02 0.02,0.05l0.08 0 -0.15 -0.25 -0 0.06z"/>
   <path class="fil9" d="M4.85 2.16c0.05,0.04 0.06,0.07 0.08,0.13l0.03 -0.02c-0.04,-0.1 -0.1,-0.18 -0.16,-0.24 0.01,0.11 0.04,0.02 0.05,0.13z"/>
   <path class="fil2" d="M3.3 6.93l0.07 0.06c0.02,0.02 0.04,0.01 0.04,0.08l0.05 0 -0.13 -0.22c-0.02,0.04 -0.01,-0 0,0.06l-0.03 0.02z"/>
   <path class="fil9" d="M3.13 2.28c0.01,0.01 0.02,-0 0.03,0.01 0.01,-0.06 0.03,-0.09 0.08,-0.13l0 -0.05 0.03 0c0.01,-0.05 0.02,-0.02 0,-0.06 -0.05,0.04 -0.11,0.14 -0.14,0.22z"/>
   <path class="fil2" d="M4.63 7.08l0.05 -0.01c0.02,-0.09 0.13,-0.12 0.08,-0.21l-0.13 0.22z"/>
   <path class="fil3" d="M4.44 3.59l-0.02 0 -0.02 0c-0.01,0.02 -0.01,0.02 -0.02,0.05l-0.09 0 0 0.04c0.09,-0.01 0.18,-0.06 0.24,-0.1 -0.06,-0.01 -0.06,-0.01 -0.1,0.01z"/>
   <path class="fil9" d="M4.48 7.33l0.04 -0.02c0,-0 0.01,-0.01 0.01,-0.02 0.02,-0.03 0,-0.03 0.03,-0.07 0.02,-0.03 0.06,-0.03 0.06,-0.14 -0.04,0.04 -0.12,0.19 -0.14,0.25z"/>
   <path class="fil9" d="M4.6 1.86c-0.02,-0.02 0.01,-0.01 -0.04,-0.04 -0.02,-0.02 -0.02,-0.01 -0.04,-0.02 -0.03,-0.02 -0.05,-0.03 -0.09,-0.04 0.02,0.07 -0,-0 0.02,0.04 0.02,0.04 0.01,0.01 0.02,0.06 0.09,0 0.04,0.01 0.12,0z"/>
   <path class="fil2" d="M6.2 1.08l0.12 0.16 0 -0.13 -0.05 0 -0.02 -0.05c0,0.08 -0,0.02 -0.02,0.05 -0.01,-0.05 0.01,-0.02 -0.04,-0.03z"/>
   <path class="fil7" d="M1.42 2.03l0.09 -0.26 -0.05 0c0,0.08 0,0.06 -0.02,0.12 -0.02,0.05 -0.01,0.06 -0.01,0.13z"/>
   <path class="fil3" d="M3.79 3.67l0 -0.04 -0.09 0c-0.01,-0.04 0,-0.01 -0.02,-0.05l-0.02 0 -0.02 0 -0.1 -0.02 0.05 0.03c0.02,0.01 0.03,0.02 0.05,0.02 0.05,0.02 0.08,0.03 0.14,0.04z"/>
   <path class="fil3" d="M5.93 0.76c-0,-0.06 0,-0.04 -0.02,-0.08l-0.02 -0.02 -0.04 -0.02c-0.03,-0.01 -0.01,-0.01 -0.05,-0.01l0 -0.03 -0.05 0 0.18 0.16z"/>
   <path class="fil3" d="M6.46 1.49c0.01,-0.06 -0,-0.08 -0.03,-0.11 -0,-0 -0.01,-0.01 -0.01,-0.01l-0.04 -0.1 -0.05 0 0.12 0.22z"/>
   <path class="fil10" d="M2.11 4.74l-0.09 -0.16 0 0.09 0.05 0c-0.01,0.06 -0.07,0.15 0.05,0.06z"/>
   <path class="fil2" d="M5.35 0.28l0.02 0.03 -0.02 -0.03zm0 -0.02l0 0.02 0 -0.02zm-0.09 0.02l0.12 0.07c0.01,-0.03 0.01,-0.04 0.01,-0.05 -0.01,-0.04 -0.01,-0.02 -0.04,-0.03l-0.03 -0.02c-0.04,0.05 0.01,0.03 -0.06,0.03z"/>
   <path class="fil10" d="M5.97 4.74c0.04,0.02 0.04,0.05 0.06,0.02 0.02,-0.02 -0.01,-0.04 -0.02,-0.08l0.05 0 0 -0.09 -0.09 0.16z"/>
   <path class="fil4" d="M2.89 0.26l0.14 -0.06 -0.06 -0c-0,-0 -0,-0.01 -0,-0.01 0,0 0.01,-0.01 -0.02,-0.02 -0.02,-0.01 -0.06,-0 -0.07,-0 0.02,0.05 -0.03,0.02 0.05,0.03l0 0.03c-0.04,0.01 -0.02,-0.01 -0.03,0.03z"/>
   <path class="fil11" d="M2.97 0.09l0.09 0c-0,-0 -0,-0.01 -0.01,-0.01 -0,0 -0,-0.01 -0.01,-0.01 -0,-0 -0.01,-0.02 -0.01,-0.02 -0.01,-0.03 -0.01,-0.01 -0.01,-0.05l-0.05 0 -0.02 0.09z"/>
   <path class="fil5" d="M1.62 3.89l-0.08 -0.16c-0.01,0.04 0.01,0.02 -0.03,0.03l0 0.03c0.06,0.02 0,-0.04 0.08,0.11l0.03 -0.02z"/>
   <polygon class="fil12" points="3.95,3.6 4.14,3.6 4.14,3.57 3.95,3.57 "/>
   <path class="fil5" d="M6.46 3.89l0.03 0.02c0.06,-0.1 0.01,-0.09 0.08,-0.11l0 -0.03c-0.04,-0.01 -0.02,0.01 -0.03,-0.03l-0.08 0.16z"/>
   <path class="fil4" d="M5.06 0.19l0.11 0.05c0,-0.04 -0,-0.01 0.01,-0.04 0,-0 0.01,-0.02 0.01,-0.02l0.01 -0.02c-0.02,0 -0.04,-0 -0.06,0l-0.08 0.03z"/>
   <path class="fil3" d="M6.07 0.9l0 -0.08c-0.07,-0 -0.06,0 -0.08,-0.06l-0.06 0 0.14 0.15z"/>
   <path class="fil4" d="M4.64 3.44l0.02 0 -0.01 0.02 -0 -0.02zm-0.05 0.09c0.04,-0.02 0.02,-0.01 0.06,-0.04 0.01,-0.01 0.02,-0.01 0.03,-0.02 0.03,-0.03 0.01,-0.01 0.03,-0.04 -0.07,0 -0.02,0 -0.04,-0.02l-0.03 0.02 -0.03 0c-0,0.05 -0.01,0.06 -0.02,0.09z"/>
   <path class="fil2" d="M1.77 1.24l0.06 -0.07c0.03,-0.04 0.03,-0.05 0.06,-0.09 -0.05,0.01 -0.02,0.03 -0.11,0.03 0.01,0.04 -0.01,0.02 0.03,0.03l-0.03 0.1z"/>
   <path class="fil2" d="M2.73 0.28l-0.01 0.03 0.01 -0.03zm-0.03 0.07l0.12 -0.07c-0.04,-0 -0.03,-0 -0.06,-0.02l-0.03 0.02 0 -0.02c-0.06,0.01 -0.04,0.03 -0.03,0.09z"/>
   <path class="fil13" d="M1.93 4.42l-0.11 -0.19c-0.01,0.05 -0.01,0.06 -0.02,0.1 0,-0 0.01,-0.01 0.01,-0.01 0.01,0.02 0.02,-0.06 0.06,0.01 0.03,0.07 -0,0.08 0.06,0.08z"/>
   <path class="fil11" d="M5.02 0.09l0.08 0 0 -0.09 -0.05 0c-0,0.07 -0.01,0.05 -0.03,0.09z"/>
   <path class="fil14" d="M5.44 0.38l0.09 0.06 0.03 -0.03 0 -0.03 -0.05 0 -0.01 0.03 -0.01 -0.07 -0.03 0c-0.01,0.04 0.01,0.02 -0.03,0.03z"/>
   <path class="fil15" d="M3.84 7.83l0.05 -0.01 -0.1 -0.17 -0.01 0.08c0.05,0.02 0.01,-0.02 0.04,0.03 0.02,0.03 0.01,0.03 0.01,0.07z"/>
   <path class="fil3" d="M2.83 6.07l0.05 0c-0.01,-0.04 -0.03,-0.06 -0.04,-0.09 -0,-0.01 -0.02,-0.04 -0.02,-0.04 -0.02,-0.04 -0.02,-0.02 -0.03,-0.04 0,0.06 -0.01,0.08 0.05,0.1l0 0.06z"/>
   <path class="fil7" d="M2.56 5.56c0.03,0.02 0.03,0.02 0,0.05 0.05,0.07 -0,0.02 0.06,0.04l0.02 0.01 -0.11 -0.19c0,0.06 0.01,0.04 0.03,0.1z"/>
   <path class="fil3" d="M2.02 0.9l0.14 -0.15 -0.06 0c-0,0 -0,0 -0,0.01 -0,0.04 -0.03,0.07 -0.08,0.09l0 0.05z"/>
   <path class="fil16" d="M6.73 3.29l0.06 0.03c0.01,-0.04 -0.01,-0.02 0.03,-0.03l0 -0.03c-0.03,-0 -0.03,0.01 -0.06,-0.03l-0.03 0.06z"/>
   <path class="fil16" d="M2.53 5.75l0.08 0c-0.01,-0.06 -0,-0.06 -0.08,-0.06l0 0.06z"/>
   <path class="fil16" d="M5.48 5.75l0.08 0 0 -0.06c-0.08,0 -0.06,0 -0.08,0.06z"/>
   <path class="fil16" d="M1.36 3.29l-0.03 -0.06c-0,0 -0.01,0 -0.01,0.01l-0.06 0.05c0.04,0.01 0.02,-0.01 0.03,0.03l0.03 0c0.01,-0.04 -0.01,-0.02 0.03,-0.03z"/>
   <path class="fil3" d="M4.37 7.52l0.1 -0.08c0,-0.06 0.01,-0.07 0.01,-0.11l-0.11 0.19z"/>
   <path class="fil3" d="M2.02 4.56l-0.09 -0.15c0,0.05 0.01,0.08 0.02,0.13l0.06 0.02z"/>
   <polygon class="fil17" points="1.58,4.3 1.64,4.3 1.62,4.23 1.58,4.23 "/>
   <path class="fil9" d="M1.44 3.54l0.02 0.04c0,0 0,0.01 0.01,0.01 0.03,0.05 -0,0.03 0.05,0.04l-0.05 -0.13 0 0.03 -0.03 0z"/>
   <path class="fil4" d="M2.56 0.44l0.09 -0.06c-0.04,-0.01 -0.02,0.01 -0.03,-0.03l-0.03 0.06 -0.06 -0.03c0.01,0.05 0.01,0.03 0.03,0.06z"/>
   <path class="fil3" d="M1.67 1.39l0.08 -0.13 -0.05 0c-0.01,0.04 -0.02,0.08 -0.03,0.13z"/>
   <path class="fil4" d="M6.02 0.77c0.04,0.05 -0,0.02 0.09,0.02l0 -0.03c-0.04,0 -0.08,-0 -0.09,0.02z"/>
   <path class="fil16" d="M1.97 0.79c0.1,0 0.06,0.03 0.09,-0.02 -0.04,-0.02 -0.03,-0.02 -0.09,-0.02l0 0.03z"/>
   <path class="fil14" d="M3.82 7.96c-0.01,0.04 -0.01,0.02 -0.02,0.03 -0.01,0.01 -0,-0.01 -0.02,0.03l0.06 0 0 -0.06 -0.03 0z"/>
   <path class="fil14" d="M4.26 7.96l-0.03 0 0 0.06 0.06 0c-0.01,-0.04 -0.01,-0.02 -0.02,-0.03 -0.01,-0.01 -0,0.01 -0.02,-0.03z"/>
   <polygon class="fil18" points="1.36,3.44 1.36,3.54 1.39,3.54 1.39,3.44 "/>
   <path class="fil16" d="M5.5 0.32c-0.02,-0.07 -0,-0.06 -0.06,-0.06 0.02,0.07 0,0.06 0.06,0.06z"/>
   <path class="fil14" d="M6.76 1.83c0.03,-0.01 0.02,0 0.04,-0.02 0.02,-0.02 0.01,-0.01 0.02,-0.04l-0.06 0 0 0.06z"/>
   <polygon class="fil16" points="2.59,0.32 2.64,0.32 2.64,0.25 2.61,0.25 "/>
   <polygon class="fil19" points="1.56,3.98 1.61,3.98 1.61,3.92 1.58,3.92 "/>
   <polygon class="fil20" points="1.39,1.83 1.42,1.83 1.44,1.77 1.39,1.77 "/>
   <path class="fil12" d="M6.73 3.44l-0.03 0.09 0.06 0c-0.01,-0.04 -0.03,-0.02 -0.03,-0.09z"/>
   <path class="fil19" d="M4.17 8.02l0.03 0c0,-0.06 -0,-0.04 0.02,-0.08 -0.06,0.02 -0.05,0 -0.05,0.08z"/>
   <polygon class="fil20" points="6.67,1.83 6.7,1.83 6.7,1.77 6.65,1.77 "/>
   <path class="fil21" d="M1.55 1.45l0.03 0c0,-0.05 -0,-0.03 0.02,-0.06l-0.05 0 0 0.06z"/>
   <path class="fil21" d="M6.51 1.45l0.03 0 0 -0.06 -0.05 0c0.01,0.02 0.02,0.03 0.02,0.06z"/>
   <path class="fil21" d="M6.3 4.38c-0.02,-0.02 0.03,-0.02 -0.05,-0.02l0 0.06 0.03 0c0,-0.08 0,-0.02 0.02,-0.05z"/>
   <path class="fil21" d="M1.85 4.38c-0.02,-0.01 -0.02,-0.01 -0.05,-0.02l0 0.06c0.05,-0.01 0.03,0 0.05,-0.05z"/>
   <path class="fil6" d="M6.54 3.95l0.03 0 0 -0.08c-0.04,0.03 -0.03,-0 -0.03,0.08z"/>
   <path class="fil2" d="M6.15 1.01l0.05 0.07c0.01,-0.08 0.01,-0.09 -0.05,-0.07z"/>
   <path class="fil22" d="M6.13 0.98c0.02,-0.04 0.01,-0.01 0,-0.06l-0.05 0 0.05 0.06z"/>
   <path class="fil9" d="M6.58 3.6l0.04 -0.03c0.03,-0.02 0.01,0 0.03,-0.04l-0.03 0 0 -0.03 -0.04 0.09z"/>
   <path class="fil9" d="M1.96 0.98l0.05 -0.06 -0.05 0c-0.01,0.05 -0.02,0.02 0,0.06z"/>
   <polygon class="fil10" points="5.46,5.81 5.53,5.81 5.53,5.78 5.46,5.78 "/>
   <polygon class="fil10" points="2.56,5.81 2.62,5.81 2.62,5.78 2.56,5.78 "/>
   <polygon class="fil21" points="3.19,2.53 3.22,2.53 3.22,2.46 3.19,2.46 "/>
   <polygon class="fil12" points="4.71,7.14 4.74,7.14 4.74,7.08 4.71,7.08 "/>
   <polygon class="fil12" points="3.35,7.14 3.38,7.14 3.38,7.08 3.35,7.08 "/>
   <polygon class="fil14" points="6,4.83 6.07,4.83 6.07,4.8 6,4.8 "/>
   <polygon class="fil10" points="6.19,4.55 6.25,4.55 6.25,4.52 6.19,4.52 "/>
   <polygon class="fil10" points="3.92,8.09 3.92,8.06 3.85,8.06 3.85,8.09 "/>
   <polygon class="fil10" points="4.23,8.09 4.23,8.06 4.17,8.06 4.17,8.09 "/>
   <polygon class="fil17" points="1.52,3.95 1.55,3.95 1.55,3.89 1.52,3.89 "/>
   <polygon class="fil16" points="1.26,1.8 1.33,1.8 1.33,1.77 1.26,1.77 "/>
   <path class="fil14" d="M2.08 4.8l-0.06 0 0 0.03c0.1,-0 0.05,0.01 0.06,-0.03z"/>
   <path class="fil23" d="M1.36 3.44l0 -0.06 -0.03 0c0,0.1 -0.01,0.05 0.03,0.06z"/>
   <path class="fil19" d="M3.89 7.96l0 0.06 0.03 0c-0,-0.1 0.01,-0.05 -0.03,-0.06z"/>
   <path class="fil20" d="M3.13 2.46l0 0.06 0.03 0c-0,-0.1 0.01,-0.05 -0.03,-0.06z"/>
   <path class="fil14" d="M4.54 3.58l0.05 -0.04c-0.02,-0.04 0,-0.02 -0.04,-0.03 -0.01,0.04 -0.01,0.02 -0.01,0.07z"/>
   <path class="fil2" d="M2.27 5.31l0.03 0 0 -0.06c-0.04,0.03 -0.03,-0.01 -0.03,0.06z"/>
   <path class="fil19" d="M6.52 3.98c-0.01,-0.06 -0,-0.05 -0.05,-0.06 0.01,0.06 0,0.05 0.05,0.06z"/>
   <path class="fil24" d="M3.5 3.54c0.02,0.02 -0.01,0.01 0.04,0.03l0 -0.06c-0.04,0.01 -0.02,-0 -0.04,0.03z"/>
   <path class="fil25" d="M5.8 5.05l0.05 0.01c-0.01,-0.04 -0.01,-0.02 -0.02,-0.06l-0.03 0.06z"/>
   <polygon class="fil12" points="1.83,0.88 1.88,0.88 1.88,0.85 1.83,0.85 "/>
   <polygon class="fil17" points="4.93,6.82 4.98,6.82 4.98,6.79 4.93,6.79 "/>
   <path class="fil20" d="M3.73 3.6l0.06 0 0 -0.03c-0.04,0.01 -0.04,0.01 -0.06,0.03z"/>
   <path class="fil23" d="M6.73 3.44c0.01,-0.01 0.01,-0 0.02,-0.03 0.01,-0.03 0,-0.01 0.01,-0.04l-0.03 0 0 0.06z"/>
   <polygon class="fil23" points="4.83,2.27 4.83,2.31 4.86,2.31 4.86,2.26 "/>
   <path class="fil19" d="M4.39 7.6c0.03,-0.02 0.02,-0 0.03,-0.05l-0.03 0 0 0.05z"/>
   <path class="fil20" d="M2.56 5.61l0 -0.05 -0.03 0c0.01,0.05 -0,0.02 0.03,0.05z"/>
   <polygon class="fil4" points="5.38,0.35 5.44,0.38 5.42,0.33 "/>
   <polygon class="fil20" points="3.13,2.89 3.14,2.89 3.14,2.83 3.13,2.83 "/>
   <path class="fil23" d="M6.67 3.54l0.02 0.06c0.01,-0.01 0.02,0.02 0.01,-0.03 -0.01,-0.03 -0.01,-0.02 -0.03,-0.03z"/>
   <path class="fil19" d="M6.76 2.53c0.05,-0.02 0.02,0.03 0.03,-0.05 -0.03,0.02 -0.02,0 -0.03,0.05z"/>
   <polygon class="fil19" points="1.3,2.37 1.31,2.37 1.31,2.32 1.3,2.32 "/>
   <polygon class="fil19" points="4.94,2.87 4.96,2.87 4.96,2.83 4.94,2.83 "/>
   <path class="fil20" d="M3.84 7.83c-0.02,0.02 -0.02,-0.03 -0.02,0.05l0.02 0 0 -0.05z"/>
   <path class="fil19" d="M6.78 2.37c0.02,-0.02 0.02,0.03 0.02,-0.05l-0.02 0 0 0.05z"/>
   <path class="fil20" d="M4.25 7.83l0 0.05 0.02 0c0,-0.08 -0,-0.02 -0.02,-0.05z"/>
   <path class="fil14" d="M4.82 6.78l0 0.05 0.02 0c0,-0.08 -0,-0.02 -0.02,-0.05z"/>
   <path class="fil19" d="M6.22 1.03c0,0.02 0.03,0.03 0.02,0 -0.01,-0.01 -0.03,-0.04 -0.02,-0z"/>
   <path class="fil20" d="M4.33 3.57c-0.04,0.01 -0.02,-0.01 -0.03,0.03 0.04,-0.01 0.02,0.01 0.03,-0.03z"/>
   <path class="fil12" d="M6.03 4.93c0.01,0.04 -0.01,0.02 0.03,0.03 -0.01,-0.04 0.01,-0.02 -0.03,-0.03z"/>
   <path class="fil24" d="M3.63 7.55c-0.04,0.01 -0.02,-0.01 -0.03,0.03 0.04,-0.01 0.02,0.01 0.03,-0.03z"/>
   <path class="fil12" d="M2.05 4.93c-0.04,0.01 -0.02,-0.01 -0.03,0.03 0.04,-0.01 0.02,0.01 0.03,-0.03z"/>
   <path class="fil19" d="M5.28 6.13c0,-0.01 0,-0.03 -0,-0.03 -0.01,-0.03 -0,-0.02 -0.01,-0.03 0,0.01 -0,0.03 0,0.03 0.01,0.03 0,0.02 0.01,0.03z"/>
   <path class="fil19" d="M2.81 6.13c0,-0 0.01,-0.01 0.01,-0.01 0,0 0,-0.01 0.01,-0.01 0,-0.02 0,-0.02 0,-0.04 -0,0 -0.01,0 -0.01,0.01 -0,0.01 -0,0.01 -0.01,0.01 -0,0.02 -0,0.02 -0,0.04z"/>
   <path class="fil19" d="M2.76 0.27c0,-0.05 -0.03,-0 -0.03,0l0.03 0z"/>
   <path class="fil25" d="M5.75 0.57c0.05,0 0,-0.03 0,-0.03l0 0.03z"/>
   <path class="fil19" d="M2.92 6.27l0 -0.03c-0.05,0 -0,0.03 0,0.03z"/>
   <path class="fil25" d="M4.9 0.03c0.02,0.02 0.06,-0.02 0.02,-0.01 -0,0 -0.04,-0.02 -0.02,0.01z"/>
   <path class="fil25" d="M3.16 0.03c0.02,0.02 0.06,-0.02 0.02,-0.01 -0,0 -0.04,-0.02 -0.02,0.01z"/>
   <path class="fil20" d="M2.99 0.14c0.02,0.02 0.06,-0.02 0.02,-0.01 -0,0 -0.04,-0.02 -0.02,0.01z"/>
   <path class="fil19" d="M3.13 2.95c0.02,0.02 0.06,-0.02 0.02,-0.01 -0,0 -0.04,-0.02 -0.02,0.01z"/>
   <path class="fil23" d="M4.5 0.02c0.02,0.02 0.06,-0.02 0.02,-0.01 -0,0 -0.04,-0.02 -0.02,0.01z"/>
   <path class="fil23" d="M3.55 0.02c0.02,0.02 0.06,-0.02 0.02,-0.01 -0,0 -0.04,-0.02 -0.02,0.01z"/>
   <path class="fil17" d="M2.84 6.3c0,0.02 0.03,0.04 0.02,0 -0.01,-0.04 0.04,-0 -0.01,-0 -0.02,-0 -0.02,-0.03 -0.02,0z"/>
   <path class="fil20" d="M4.86 3.05c0,0.02 0.03,0.04 0.02,0 -0.01,-0.04 0.04,-0 -0.01,-0 -0.02,-0 -0.02,-0.03 -0.02,0z"/>
   <path class="fil19" d="M6.51 1.34c0,0.02 0.03,0.04 0.02,0 -0.01,-0.04 0.04,-0 -0.01,-0 -0.02,-0 -0.02,-0.03 -0.02,0z"/>
   <path class="fil12" d="M6.22 0.87c0,0.02 0.03,0.04 0.02,0 -0.01,-0.04 0.04,-0 -0.01,-0 -0.02,-0 -0.02,-0.03 -0.02,0z"/>
   <path class="fil19" d="M1.8 4.47c0,0.02 0.03,0.04 0.02,0 -0.01,-0.04 0.04,-0 -0.01,-0 -0.02,-0 -0.02,-0.03 -0.02,0z"/>
   <path class="fil3" d="M4.77 7.06c0,0.02 0.03,0.04 0.02,0 -0.01,-0.04 0.04,-0 -0.01,-0 -0.02,-0 -0.02,-0.03 -0.02,0z"/>
   <path class="fil20" d="M6.25 4.47c0,0.02 0.03,0.04 0.02,0 -0.01,-0.04 0.04,-0 -0.01,-0 -0.02,-0 -0.02,-0.03 -0.02,0z"/>
   <path class="fil21" d="M4.45 7.57c0,0.02 0.03,0.04 0.02,0 -0.01,-0.04 0.04,-0 -0.01,-0 -0.02,-0 -0.02,-0.03 -0.02,0z"/>
   <path class="fil19" d="M5.28 6.24c0,0.02 0.03,0.04 0.02,0 -0.01,-0.04 0.04,-0 -0.01,-0 -0.02,-0 -0.02,-0.03 -0.02,0z"/>
   <path class="fil23" d="M1.33 2.01c0,0.02 0.03,0.04 0.02,0 -0.01,-0.04 0.04,-0 -0.01,-0 -0.02,-0 -0.02,-0.03 -0.02,0z"/>
   <path class="fil19" d="M3.44 2.01c0,0.02 0.03,0.04 0.02,0 -0.01,-0.04 0.04,-0 -0.01,-0 -0.02,-0 -0.02,-0.03 -0.02,0z"/>
   <path class="fil6" d="M3.25 3.05c0,0.02 0.03,0.04 0.02,0 -0.01,-0.04 0.04,-0 -0.01,-0 -0.02,-0 -0.02,-0.03 -0.02,0z"/>
   <path class="fil17" d="M5.21 6.3c0,0.02 0.03,0.04 0.02,0 -0.01,-0.04 0.04,-0 -0.01,-0 -0.02,-0 -0.02,-0.03 -0.02,0z"/>
   <path class="fil20" d="M2.78 6.24c0,0.02 0.03,0.04 0.02,0 -0.01,-0.04 0.04,-0 -0.01,-0 -0.02,-0 -0.02,-0.03 -0.02,0z"/>
   <path class="fil6" d="M4.8 3.05c0,0.02 0.03,0.04 0.02,0 -0.01,-0.04 0.04,-0 -0.01,-0 -0.02,-0 -0.02,-0.03 -0.02,0z"/>
   <path class="fil19" d="M4.61 2.01c0,0.02 0.03,0.04 0.02,0 -0.01,-0.04 0.04,-0 -0.01,-0 -0.02,-0 -0.02,-0.03 -0.02,0z"/>
   <path class="fil23" d="M6.73 2.01c0,0.02 0.03,0.04 0.02,0 -0.01,-0.04 0.04,-0 -0.01,-0 -0.02,-0 -0.02,-0.03 -0.02,0z"/>
   <path class="fil12" d="M3.13 6.81c0,0.02 0.03,0.04 0.02,0 -0.01,-0.04 0.04,-0 -0.01,-0 -0.02,-0 -0.02,-0.03 -0.02,0z"/>
   <path class="fil19" d="M3.19 3.05c0,0.02 0.03,0.04 0.02,0 -0.01,-0.04 0.04,-0 -0.01,-0 -0.02,-0 -0.02,-0.03 -0.02,0z"/>
   <path class="fil5" d="M3.51 2.01c0,0.02 0.03,0.04 0.02,0 -0.01,-0.04 0.04,-0 -0.01,-0 -0.02,-0 -0.02,-0.03 -0.02,0z"/>
   <path class="fil5" d="M4.55 2.01c0,0.02 0.03,0.04 0.02,0 -0.01,-0.04 0.04,-0 -0.01,-0 -0.02,-0 -0.02,-0.03 -0.02,0z"/>
   <path class="fil5" d="M1.77 1.03c0,0.02 0.03,0.04 0.02,0 -0.01,-0.04 0.04,-0 -0.01,-0 -0.02,-0 -0.02,-0.03 -0.02,0z"/>
   <path class="fil26" d="M5.78 5.29c0,0.02 0.03,0.04 0.02,0 -0.01,-0.04 0.04,-0 -0.01,-0 -0.02,-0 -0.02,-0.03 -0.02,0z"/>
   <path class="fil19" d="M1.55 1.34c0,0.02 0.03,0.04 0.02,0 -0.01,-0.04 0.04,-0 -0.01,-0 -0.02,-0 -0.02,-0.03 -0.02,0z"/>
   <path class="fil20" d="M3.51 1.91c0,0.02 0.03,0.04 0.02,0 -0.01,-0.04 0.04,-0 -0.01,-0 -0.02,-0 -0.02,-0.03 -0.02,0z"/>
   <path class="fil20" d="M4.55 1.91c0,0.02 0.03,0.04 0.02,0 -0.01,-0.04 0.04,-0 -0.01,-0 -0.02,-0 -0.02,-0.03 -0.02,0z"/>
   <path class="fil19" d="M3.13 2.8c0,0.02 0.03,0.04 0.02,0 -0.01,-0.04 0.04,-0 -0.01,-0 -0.02,-0 -0.02,-0.03 -0.02,0z"/>
   <path class="fil12" d="M1.83 4.53c0,0.02 0.03,0.04 0.02,0 -0.01,-0.04 0.04,-0 -0.01,-0 -0.02,-0 -0.02,-0.03 -0.02,0z"/>
   <path class="fil19" d="M5.94 5.04c0,0.02 0.03,0.04 0.02,0 -0.01,-0.04 0.04,-0 -0.01,-0 -0.02,-0 -0.02,-0.03 -0.02,0z"/>
   <path class="fil19" d="M2.12 5.04c0,0.02 0.03,0.04 0.02,0 -0.01,-0.04 0.04,-0 -0.01,-0 -0.02,-0 -0.02,-0.03 -0.02,0z"/>
   <path class="fil3" d="M3.29 7.06c0,0.02 0.03,0.04 0.02,0 -0.01,-0.04 0.04,-0 -0.01,-0 -0.02,-0 -0.02,-0.03 -0.02,0z"/>
   <path class="fil10" d="M3.79 7.91c0,0.02 0.03,0.04 0.02,0 -0.01,-0.04 0.04,-0 -0.01,-0 -0.02,-0 -0.02,-0.03 -0.02,0z"/>
   <path class="fil10" d="M4.26 7.91c0,0.02 0.03,0.04 0.02,0 -0.01,-0.04 0.04,-0 -0.01,-0 -0.02,-0 -0.02,-0.03 -0.02,0z"/>
   <path class="fil14" d="M2.8 6.03c0,0.04 0.03,0 0.01,0 0,0 -0.01,-0.04 -0.01,0z"/>
   <path class="fil20" d="M1.31 2.29c0,0.04 0.03,0 0.01,0 -0,0 -0.01,-0.04 -0.01,0z"/>
   <path class="fil19" d="M6.76 2.29c0,0.04 0.03,0 0.01,0 -0,0 -0.01,-0.04 -0.01,0z"/>
   <path class="fil17" d="M2.65 0.27c0,0.04 0.03,0 0.01,0 -0,0 -0.01,-0.04 -0.01,0z"/>
   <path class="fil21" d="M1.66 4.11c0,0.04 0.03,0 0.01,0 0,0 -0.01,-0.04 -0.01,0z"/>
   <path class="fil19" d="M1.31 2.51c0,0.04 0.03,0 0.01,0 -0,0 -0.01,-0.04 -0.01,0z"/>
   <path class="fil27" d="M3.38 3.36c0,0.04 0.03,0 0.01,0 -0,0 -0.01,-0.04 -0.01,0z"/>
   <path class="fil27" d="M4.14 8.07c0,0.01 0,0.01 0,0.02l0.01 0c0,-0 0.01,-0.01 -0,-0.02 0,0 -0.01,-0.04 -0.01,0z"/>
   <path class="fil27" d="M3.93 8.07c0,0.01 0,0.01 0,0.02l0.01 0c0,-0 0.01,-0.01 -0,-0.02 0,0 -0.01,-0.04 -0.01,0z"/>
   <path class="fil6" d="M3.25 2.26c0,0.04 0.03,0 0.01,0 0,0 -0.01,-0.04 -0.01,0z"/>
   <path class="fil19" d="M1.33 3.52c0,0.04 0.03,0 0.01,0 -0,0 -0.01,-0.04 -0.01,0z"/>
   <polygon class="fil21" points="1.93,0.92 1.91,0.92 1.92,0.95 "/>
   <polygon class="fil24" points="6.18,0.92 6.16,0.92 6.17,0.95 "/>
   <path class="fil21" d="M5.28 6.13l0.03 0.03 -0.02 -0.04c-0,0 -0.01,0.01 -0.01,0.01z"/>
   <polygon class="fil21" points="4.82,2.13 4.82,2.15 4.84,2.13 "/>
   <polygon class="fil20" points="1.85,1.03 1.86,1.03 1.85,1.01 "/>
   <polygon class="fil19" points="1.85,4.38 1.86,4.38 1.85,4.36 "/>
   <polygon class="fil24" points="2.68,5.81 2.68,5.8 2.67,5.81 "/>
   <polygon class="fil10" points="4.47,7.44 4.47,7.46 4.49,7.44 "/>
   <polygon class="fil23" points="5.42,5.8 5.43,5.8 5.42,5.78 "/>
   <polygon class="fil23" points="3.38,1.99 3.38,2.01 3.4,1.99 "/>
   <polygon class="fil27" points="3.52,3.46 3.52,3.44 3.5,3.46 "/>
   <polygon class="fil21" points="3.68,3.59 3.7,3.59 3.68,3.57 "/>
   <polygon class="fil19" points="5.21,6.13 5.21,6.14 5.23,6.13 "/>
   <polygon class="fil21" points="5.42,0.33 5.43,0.33 5.42,0.31 "/>
   <polygon class="fil19" points="4.82,3.27 4.82,3.25 4.8,3.27 "/>
   <polygon class="fil25" points="6.18,0.92 6.19,0.92 6.18,0.9 "/>
   <polygon class="fil24" points="6.14,0.9 6.14,0.88 6.13,0.9 "/>
   <polygon class="fil27" points="4.56,3.46 4.58,3.46 4.57,3.44 "/>
   <polygon class="fil19" points="3.89,7.96 3.89,7.94 3.87,7.96 "/>
   <polygon class="fil24" points="5.42,5.8 5.4,5.8 5.41,5.82 "/>
   <polygon class="fil19" points="4.82,3.22 4.82,3.24 4.84,3.22 "/>
   <polygon class="fil19" points="2.87,6.13 2.86,6.13 2.87,6.15 "/>
   <polygon class="fil23" points="3.27,2.12 3.27,2.13 3.29,2.12 "/>
   <polygon class="fil24" points="5.37,5.92 5.35,5.92 5.37,5.94 "/>
   <polygon class="fil28" points="2.72,5.92 2.72,5.94 2.73,5.93 "/>
   <polygon class="fil19" points="2.31,5.15 2.29,5.15 2.3,5.17 "/>
   <polygon class="fil13" points="6.3,4.38 6.3,4.39 6.32,4.38 "/>
   <polygon class="fil19" points="5.04,6.49 5.04,6.51 5.06,6.49 "/>
   <polygon class="fil19" points="3.52,3.46 3.52,3.47 3.54,3.46 "/>
   <polygon class="fil19" points="4.56,3.46 4.55,3.46 4.56,3.48 "/>
   <polygon class="fil23" points="2.67,0.33 2.67,0.32 2.65,0.33 "/>
   <polygon class="fil10" points="5.59,0.39 5.61,0.39 5.59,0.38 "/>
   <polygon class="fil24" points="2.42,0.46 2.4,0.46 2.41,0.48 "/>
   <polygon class="fil10" points="4.41,3.59 4.41,3.57 4.39,3.58 "/>
   <polygon class="fil19" points="3.05,6.49 3.03,6.49 3.05,6.51 "/>
   <polygon class="fil19" points="3.3,6.93 3.3,6.92 3.28,6.93 "/>
   <polygon class="fil24" points="2.29,0.58 2.31,0.58 2.29,0.57 "/>
   <polygon class="fil21" points="5.8,0.58 5.8,0.57 5.78,0.58 "/>
   <polygon class="fil23" points="3.43,3.43 3.44,3.43 3.43,3.41 "/>
   <polygon class="fil5" points="3.82,7.96 3.82,7.94 3.8,7.96 "/>
   <polygon class="fil28" points="2.18,0.68 2.18,0.66 2.16,0.68 "/>
   <polygon class="fil5" points="4.26,7.96 4.28,7.96 4.27,7.94 "/>
   <polygon class="fil10" points="4.33,3.57 4.34,3.57 4.33,3.55 "/>
   <polygon class="fil20" points="1.85,1.03 1.83,1.03 1.85,1.04 "/>
   <polygon class="fil24" points="4.82,2.13 4.82,2.12 4.8,2.13 "/>
   <polygon class="fil6" points="4.83,2.27 4.83,2.26 4.81,2.27 "/>
   <polygon class="fil20" points="6.67,3.54 6.65,3.52 6.65,3.54 "/>
   <path class="fil21" d="M6.43 4.14c0,0 0,-0.01 0,-0l0 0c-0,0 -0.01,0 -0,0z"/>
   <path class="fil25" d="M6.38 4.14c0,0 0,-0.01 0,-0l0 0c-0,0 -0.01,0 -0,0z"/>
   <path class="fil10" d="M4.56 1.97l0 -0c-0,0 -0.01,0 -0,0z"/>
   <path class="fil19" d="M1.6 1.45l0 -0c-0,0 -0.01,0 -0,0z"/>
   <path class="fil21" d="M2.4 0.43l0 -0c-0,0 -0.01,0 -0,0z"/>
   <path class="fil17" d="M5.78 5.26l0 -0c-0,0 -0.01,0 -0,0z"/>
   <path class="fil21" d="M4.38 7.71l0 -0c-0,0 -0.01,0 -0,0z"/>
   <path class="fil10" d="M1.41 3.47l0 -0c-0,0 -0.01,0 -0,0z"/>
   <path class="fil24" d="M3.43 7.19l0 -0c-0,0 -0.01,0 -0,0z"/>
   <path class="fil14" d="M3.81 7.8l0 -0c-0,0 -0.01,0 -0,0z"/>
   <path class="fil12" d="M5.4 0.27l0 -0c-0,0 -0.01,0 -0,0z"/>
   <path class="fil19" d="M3.19 6.81l0 -0c-0,0 -0.01,0 -0,0z"/>
   <path class="fil20" d="M4.23 7.93l0 -0c-0,0 -0.01,0 -0,0z"/>
   <path class="fil12" d="M6.63 3.6l0 -0c-0,0 -0.01,0 -0,0z"/>
   <path class="fil19" d="M4.75 7l0 -0c-0,0 -0.01,0 -0,0z"/>
   <path class="fil28" d="M2.21 5.02l0 -0c-0,0 -0.01,0 -0,0z"/>
   <path class="fil27" d="M3.4 3.33l0 -0c-0,0 -0.01,0 -0,0z"/>
   <path class="fil13" d="M3.35 3.33l0 -0c-0,0 -0.01,0 -0,0z"/>
   <path class="fil21" d="M4.34 7.71l0 -0c-0,0 -0.01,0 -0,0z"/>
   <path class="fil5" d="M2.16 5.04l0 -0c-0,0 -0.01,0 -0,0z"/>
   <path class="fil22" d="M5.78 0.54l0 -0c-0,0 -0.01,0 -0,0z"/>
   <path class="fil27" d="M6.3 1.09l0 -0c-0,0 -0.01,0 -0,0z"/>
   <path class="fil19" d="M1.31 2.42l0 -0c-0,0 -0.01,0 -0,0z"/>
   <path class="fil10" d="M3.57 1.9l0 -0c-0,0 -0.01,0 -0,0z"/>
   <path class="fil19" d="M6.16 4.53l0 -0c-0,0 -0.01,0 -0,0z"/>
   <path class="fil23" d="M1.41 1.9l0 -0c-0,0 -0.01,0 -0,0z"/>
   <path class="fil19" d="M3.27 3.22l0 -0c-0,0 -0.01,0 -0,0z"/>
   <path class="fil20" d="M3.27 3.27l0 -0c-0,0 -0.01,0 -0,0z"/>
   <path class="fil19" d="M6.48 1.45l0 -0c-0,0 -0.01,0 -0,0z"/>
   <path class="fil19" d="M5.07 0.14l0 -0c-0,0 -0.01,0 -0,0z"/>
   <path class="fil24" d="M4.64 7.19l0 -0c-0,0 -0.01,0 -0,0z"/>
   <path class="fil4" d="M4.26 7.8l0 -0c-0,0 -0.01,0 -0,0z"/>
   <path class="fil6" d="M6.67 3.47l0 -0c-0,0 -0.01,0 -0,0z"/>
   <path class="fil19" d="M3.22 2.27l0 -0c-0,0 -0.01,0 -0,0z"/>
   <path class="fil19" d="M5.23 6.19l0 -0c-0,0 -0.01,0 -0,0z"/>
   <path class="fil20" d="M4.86 6.81l0 -0c-0,0 -0.01,0 -0,0z"/>
   <path class="fil24" d="M3.25 6.81l0 -0c-0,0 -0.01,0 -0,0z"/>
   <path class="fil14" d="M5.28 6.05l0 -0c-0,0 -0.01,0 -0,0z"/>
   <path class="fil19" d="M2.84 6.19l0 -0c-0,0 -0.01,0 -0,0z"/>
   <path class="fil25" d="M2.2 0.65l0 -0c-0,0 -0.01,0 -0,0z"/>
   <path class="fil6" d="M6.29 1.03l0 -0c-0,0 -0.01,0 -0,0z"/>
   <path class="fil19" d="M3.32 7l0 -0c-0,0 -0.01,0 -0,0z"/>
   <path class="fil12" d="M1.44 3.6l0 -0c-0,0 -0.01,0 -0,0z"/>
   <path class="fil23" d="M1.3 3.03l0 -0c-0,0 -0.01,0 -0,0z"/>
   <path class="fil20" d="M3.84 7.93l0 -0c-0,0 -0.01,0 -0,0z"/>
   <path class="fil23" d="M6.41 4.11l0 -0c-0,0 -0.01,0 -0,0z"/>
   <path class="fil19" d="M6.55 3.82l0 -0c-0,0 -0.01,0 -0,0z"/>
   <path class="fil13" d="M4.72 3.4l0 -0c-0,0 -0.01,0 -0,0z"/>
   <path class="fil19" d="M2.27 5.13l0 -0c-0,0 -0.01,0 -0,0z"/>
   <path class="fil20" d="M1.77 1.09l0 -0c-0,0 -0.01,0 -0,0z"/>
   <path class="fil22" d="M2.29 0.54l0 -0c-0,0 -0.01,0 -0,0z"/>
   <path class="fil10" d="M5.91 5.04l0 -0c-0,0 -0.01,0 -0,0z"/>
   <path class="fil8" d="M3.29 7.03l0 -0c-0,0 -0.01,0 -0,0z"/>
   <path class="fil6" d="M3.06 2.8l0 -0c-0,0 -0.01,0 -0,0z"/>
   <path class="fil8" d="M4.79 7.03l0 -0c-0,0 -0.01,0 -0,0z"/>
   <path class="fil19" d="M4.93 2.8l0 -0c-0,0 -0.01,0 -0,0z"/>
   <polygon class="fil20" points="3.6,7.36 3.58,7.39 "/>
   <polygon class="fil19" points="2.94,6.22 2.92,6.24 "/>
   <polygon class="fil28" points="4.44,3.59 4.42,3.59 "/>
   <polygon class="fil19" points="5.16,6.24 5.15,6.22 "/>
   <polygon class="fil21" points="1.93,0.9 1.91,0.9 "/>
   <polygon class="fil19" points="3.7,7.58 3.68,7.57 "/>
   <polygon class="fil29" points="5.91,0.66 5.91,0.68 "/>
   <polygon class="fil7" points="3.77,7.66 3.76,7.66 "/>
   <polygon class="fil19" points="5.16,6.24 5.17,6.27 "/>
   <polygon class="fil10" points="6.03,4.93 6.02,4.89 "/>
   <polygon class="fil10" points="2.81,6.13 2.78,6.1 "/>
   <polygon class="fil24" points="5.8,0.58 5.8,0.6 "/>
   <polygon class="fil21" points="4.85,2.16 4.83,2.18 "/>
   <polygon class="fil19" points="6.78,2.37 6.76,2.4 "/>
   <polygon class="fil23" points="3.25,2.18 3.24,2.16 "/>
   <polygon class="fil25" points="3.66,3.59 3.65,3.59 "/>
   <polygon class="fil20" points="4.69,3.35 4.7,3.38 "/>
   <polygon class="fil19" points="4.82,3.22 4.81,3.19 "/>
   <polygon class="fil19" points="2.38,5.28 2.37,5.31 "/>
   <polygon class="fil23" points="4.88,6.73 4.89,6.76 "/>
   <line class="fil23" x1="4.69" y1="2.02" x2="4.69" y2= "2.02" />
   <polygon class="fil24" points="1.93,0.9 1.93,0.92 "/>
   <polygon class="fil24" points="6.16,0.92 6.14,0.9 "/>
   <polygon class="fil20" points="4.74,3.35 4.73,3.31 "/>
   <line class="fil23" x1="2.05" y1="4.93" x2="2.05" y2= "4.93" />
   <polygon class="fil20" points="1.44,3.54 1.44,3.52 "/>
   <polygon class="fil28" points="5.91,0.66 5.89,0.66 "/>
   <polygon class="fil10" points="2.1,4.79 2.08,4.8 "/>
   <polygon class="fil25" points="1.91,0.92 1.91,0.9 "/>
   <polygon class="fil19" points="4.83,2.18 4.82,2.21 "/>
   <polygon class="fil19" points="3.25,2.18 3.26,2.21 "/>
   <polygon class="fil20" points="4.69,3.35 4.68,3.31 "/>
  </g>
  <rect class="fil30" width="8.09" height="8.09"/>
 </g>
</svg>
