<?xml version="1.0" encoding="UTF-8"?>
<!DOCTYPE svg PUBLIC "-//W3C//DTD SVG 1.1//EN" "http://www.w3.org/Graphics/SVG/1.1/DTD/svg11.dtd">
<!-- Creator: CorelDRAW 2019 (64-Bit) -->
<svg xmlns="http://www.w3.org/2000/svg" xml:space="preserve" width="3.3866mm" height="3.3866mm" version="1.1" style="shape-rendering:geometricPrecision; text-rendering:geometricPrecision; image-rendering:optimizeQuality; fill-rule:evenodd; clip-rule:evenodd"
viewBox="0 0 66.03 66.03"
 xmlns:xlink="http://www.w3.org/1999/xlink">
 <defs>
  <style type="text/css">
   <![CDATA[
    .fil0 {fill:#4CAF50}
    .fil41 {fill:#8CCA8F}
    .fil30 {fill:#8DCA91}
    .fil6 {fill:#8ECA92}
    .fil13 {fill:#91CA95}
    .fil16 {fill:#91CD93}
    .fil11 {fill:#92CD94}
    .fil17 {fill:#93CB97}
    .fil40 {fill:#93CB98}
    .fil5 {fill:#94CE97}
    .fil32 {fill:#95CD99}
    .fil8 {fill:#97CD9B}
    .fil4 {fill:#97D099}
    .fil9 {fill:#99CD9D}
    .fil20 {fill:#9AD09C}
    .fil35 {fill:#9BCF9F}
    .fil34 {fill:#9CCFA0}
    .fil39 {fill:#9CD29E}
    .fil36 {fill:#9DD0A2}
    .fil38 {fill:#9ED1A4}
    .fil22 {fill:#9ED2A0}
    .fil24 {fill:#A1D1A6}
    .fil33 {fill:#A1D3A3}
    .fil37 {fill:#A3D1A7}
    .fil28 {fill:#A3D4A5}
    .fil3 {fill:#A4D2A9}
    .fil25 {fill:#A4D5A6}
    .fil23 {fill:#A6D2AB}
    .fil29 {fill:#A6D6A8}
    .fil21 {fill:#A8D7AA}
    .fil18 {fill:#A9D5AD}
    .fil27 {fill:#ABD8AD}
    .fil31 {fill:#ACD5B1}
    .fil26 {fill:#ADD9AE}
    .fil19 {fill:#AFD9B1}
    .fil7 {fill:#B1DAB3}
    .fil10 {fill:#B5D9BA}
    .fil15 {fill:#B5DCB6}
    .fil12 {fill:#B7DDB9}
    .fil14 {fill:#B9DEBA}
    .fil1 {fill:#EBEEF0}
    .fil2 {fill:#F9F9F9}
   ]]>
  </style>
 </defs>
 <g id="Capa_x0020_1">
  <metadata id="CorelCorpID_0Corel-Layer"/>
  <g id="_1192394144">
   <path class="fil0" d="M16.5 24.46l0.12 -1.24 0.15 -0.25 0 -0.22 0.11 -0.22 0.02 -0.18 0.11 -0.2 0.14 -0.46c-0.01,-0.21 -0.07,-0.17 0.12,-0.17l0 -0.1c-0,-0.21 -0.06,-0.17 0.12,-0.17l0 -0.1c0,-0.19 -0.05,-0.15 0.13,-0.15l0 -0.1c-0.01,-0.2 -0.06,-0.15 0.13,-0.15l0.25 -0.5c0.01,-0.19 -0.04,-0.14 0.15,-0.14l0.11 -0.25c0.01,-0.19 -0.04,-0.14 0.16,-0.14l0.22 -0.39 0.14 -0.13 0.14 -0.13 1.01 -1.02 0.14 -0.15 0.35 -0.13 0.18 -0.12 0.18 -0.02 0.25 -0.1 0.36 -0c0.39,-0.26 1.02,-0.21 1.43,-0.02l1.76 0.64 0.15 0.14 0.26 0.6 0.12 0.18 0 0.1c0.19,0 0.13,-0.04 0.12,0.18l0.15 0.45 0.12 0.18 0.14 0.45 0.12 0.18 0 0.09c0.19,0 0.13,-0.04 0.12,0.19l0.15 0.45 0.12 0.18 0.15 0.45 0.12 0.18 0 0.1c0.19,0 0.13,-0.04 0.12,0.18l0.14 0.46 0.12 0.18 0.14 0.45 0.12 0.18 0 0.1c0.19,0 0.13,-0.04 0.12,0.18l0.15 0.45 0.12 0.18 0 0.1c0.19,0 0.13,-0.04 0.12,0.18l0.12 0.5c0.25,0.3 0.27,0.43 0.01,0.76l-0.23 0.64 -0.14 0.15 -0 0.1c-0,0.19 0.04,0.14 -0.14,0.14l-0.11 0.25c-0.01,0.19 0.04,0.14 -0.15,0.14l-0.22 0.38 -0.16 0.13 -0.48 0.64 -0.15 0.13 -0.15 0.13 -0.62 1.78 0.13 0.16 0.11 0.25c0.19,0 0.14,-0.05 0.14,0.14l0 0.1 0.14 0.15 0.1 0.26 0.15 0.14 0.11 0.25 0.15 0.14 0.11 0.25 0.16 0.14 0.22 0.39 0.16 0.14 0.23 0.38 0.16 0.13 0.35 0.51 0.17 0.13 0.6 0.77 0.15 0.13 0.13 0.13 0.13 0.13 0.15 0.13 0.5 0.49 0.13 0.15 0.13 0.13 0.13 0.15 0.64 0.48 0.13 0.14 0.13 0.14 0.38 0.23c0.19,0.01 0.14,-0.04 0.14,0.16l0.38 0.23c0.19,0.01 0.14,-0.04 0.14,0.16l0.39 0.22 0.14 0.15 0.49 0.25c0.19,0 0.14,-0.04 0.14,0.15l0.25 0.11 0.15 0.14 0.1 0c0.2,-0 0.15,-0.05 0.15,0.14l0.5 0.24 0.16 0.13 0.1 0 0.16 0.13 0.09 0 0.16 0.13 0.1 0 0.17 0.12 0.71 0.28c0.22,-0.01 0.18,-0.07 0.18,0.12l0.09 0 0.17 0.12 0.45 0.15c0.23,-0.02 0.19,-0.08 0.19,0.11l0.2 0 0.65 -0.03 0.15 0.03 0.15 -0.14 0.49 -0.51 0.15 -0.13 0.14 -0.13 0.36 -0.51 0.14 -0.13 0.15 -0.13 0.35 -0.52 0.17 -0.13 0.23 -0.38 0.17 -0.13 0.35 -0.52 0.15 -0.13c0,-0.18 -0.04,-0.13 0.15,-0.13l0.37 -0.37c0,-0.19 -0.05,-0.14 0.14,-0.14l0.12 0.01c0.19,-0.16 0.27,-0.29 0.54,-0.01l0.19 0.01 0.21 0.11 0.18 0.02c0.22,-0.01 0.18,-0.07 0.18,0.12l0.1 0 0.17 0.12 0.45 0.15c0.22,-0.01 0.18,-0.07 0.18,0.12l0.09 0c0.21,-0 0.17,-0.06 0.17,0.12l0.1 0 0.17 0.12 2.01 0.91c0.21,-0.01 0.17,-0.06 0.17,0.13l0.09 0c0.21,-0.01 0.17,-0.06 0.17,0.12l0.1 0c0.2,-0 0.16,-0.06 0.16,0.13l0.1 0c0.2,-0 0.16,-0.06 0.16,0.12l0.1 0 0.16 0.13 0.1 0 0.16 0.12 0.1 0 0.16 0.13 0.6 0.01c0.21,-0.01 0.17,-0.07 0.17,0.12l0.1 0c0.2,0 0.16,-0.06 0.16,0.13l0.1 0 0.16 0.13 0.1 0c0.19,0 0.14,-0.05 0.14,0.15l0.25 0.23c0.19,0 0.14,-0.04 0.13,0.16l-0.02 0.17c0.26,0.26 0.26,1.14 0.01,1.32l0.04 0.43 -0.16 0.35 0.03 0.29 -0.15 0.25 -0 0.22 -0.1 0.23 -0.02 0.18 -0.11 0.21 -0.02 0.18 -0.12 0.18 -0.13 0.35 -0.14 0.14 -0.11 0.24 -0.14 0.13 -0.15 0.13 -0.63 0.62 -0.13 0.17 -0.38 0.23 -0.14 0.16 -0.63 0.36 -0.14 0.14 -1.39 0.64 -0.19 0.12 -0.17 0.03 -0.21 0.11 -0.18 0.02 -0.24 0.1 -0.24 -0 -0.39 0.15 -0.72 -0c-0.49,0.24 -1.57,0.27 -2.04,-0.02l-0.51 0.01 -0.35 -0.12 -0.33 -0 -0.29 -0.13 -0.25 0.02 -0.23 -0.15 -0.22 -0c-0.25,0.02 -0.21,0.09 -0.21,-0.11l-0.86 -0.27 -0.2 -0.11 -0.18 -0.03 -0.2 -0.11 -0.17 -0.03 -0.2 -0.11 -0.47 -0.14 -0.19 -0.11 -0.18 -0.03c-0.23,0.01 -0.19,0.08 -0.19,-0.11l-0.47 -0.14 -0.19 -0.12 -0.45 -0.15c-0.22,0.01 -0.18,0.07 -0.18,-0.12l-0.1 0 -0.18 -0.12 -0.72 -0.27c-0.21,0.01 -0.17,0.06 -0.17,-0.12l-0.1 0 -0.17 -0.12 -0.1 -0 -0.16 -0.12 -0.1 0 -0.16 -0.13 -0.1 -0c-0.2,-0 -0.16,0.05 -0.16,-0.13l-0.1 0c-0.2,0 -0.16,0.06 -0.16,-0.13l-0.1 0c-0.2,0 -0.16,0.06 -0.16,-0.13l-0.5 -0.24 -0.15 -0.14 -0.5 -0.24 -0.14 -0.15 -0.24 -0.11 -0.14 -0.15 -0.25 -0.11 -0.14 -0.15 -0.24 -0.11 -0.13 -0.16 -0.38 -0.22 -0.13 -0.16 -0.38 -0.23 -0.13 -0.17 -0.51 -0.35 -0.13 -0.15 -0.13 -0.14 -0.77 -0.61 -0.13 -0.15 -0.13 -0.13 -0.13 -0.15 -1.52 -1.53 -0.15 -0.13 -0.13 -0.13 -0.15 -0.13 -0.86 -1.03 -0.15 -0.13 -0.15 -0.13 -0.6 -0.77 -0.17 -0.13 -0.35 -0.51 -0.15 -0.13 -0.14 -0.13 -0.35 -0.51 -0.16 -0.13 -0.23 -0.38 -0.16 -0.13 -0.35 -0.52 -0.16 -0.13 -0.23 -0.38 -0.16 -0.13 -0.48 -0.78c-0.19,0 -0.15,0.05 -0.15,-0.14l-0.25 -0.5 -0.14 -0.14 -0.25 -0.5c-0.19,0 -0.13,0.04 -0.13,-0.15l0 -0.1 -0.13 -0.15 -0.52 -1.12 -0.12 -0.16 0 -0.1 -0.12 -0.18 -0.14 -0.46 -0.12 -0.19 -0.28 -0.95 -0.1 -0.24 0.01 -0.25 -0.18 -0.3 0.02 -0.28 -0.12 -0.34 -0.01 -0.68c-0.21,-0.44 -0.21,-1.05 0,-1.5zm14.49 -18.88l-1.67 0.11 -0.34 0.12 -0.36 -0.01 -0.37 0.15 -0.3 -0.03 -0.33 0.17 -0.29 -0.03 -0.26 0.14 -0.26 -0.02 -0.26 0.14 -0.26 -0.02 -0.24 0.15 -0.26 -0.02 -0.23 0.16 -0.19 -0.04 -0.21 0.16 -0.22 0 -0.22 0.1 -0.18 0.02 -0.2 0.11 -0.85 0.27 -0.19 0.12 -0.46 0.14c0,0.19 0.04,0.13 -0.18,0.12l-0.73 0.27c0,0.19 0.04,0.13 -0.17,0.12l-0.09 0c0,0.19 0.04,0.14 -0.17,0.13l-1.64 0.78c0,0.18 0.04,0.13 -0.15,0.14l-0.75 0.38 -0.14 0.14 -1.8 1.13 -0.14 0.15 -0.38 0.23 -0.13 0.16 -0.38 0.23 -0.13 0.17 -0.65 0.47 -0.13 0.18 -1.16 0.99c0,0.2 0.05,0.15 -0.15,0.15l-1.5 1.67 -0.17 0.13 -0.47 0.65 -0.17 0.13 -0.23 0.38 -0.16 0.13 -0.22 0.38 -0.16 0.13 -0.11 0.25 -0.15 0.14 -0.11 0.25c-0.01,0.19 0.04,0.14 -0.15,0.14l-0.1 0.25 -0.14 0.14 -0.11 0.25 -0.14 0.14 -0.38 0.75 -0.14 0.14 -0.9 1.9c0.01,0.21 0.07,0.18 -0.12,0.18l-0.27 0.72 -0.11 0.19 -0.14 0.46 -0.12 0.19 -0.02 0.17 -0.11 0.21 -0.02 0.17 -0.11 0.21 -0.03 0.17 -0.1 0.22 -0.02 0.17 -0.1 0.23 0 0.23 -0.16 0.22 0.02 0.26 -0.15 0.25 -0 0.22 -0.1 0.25 -0.02 0.3 -0.13 0.29 0 0.34 -0.12 0.31 -0 0.35 -0.12 0.33 0.01 0.48 -0.16 0.49 0.02 0.51 -0.13 0.57 0.01 1 -0 2.96 -0.01 1 0.15 0.64 0.1 1.32 0.15 0.39 -0.03 0.31 0.17 0.34 -0.02 0.37 0.14 0.27 -0.01 0.26 0.14 0.27 -0.02 0.26 0.15 0.24 0 0.22 0.1 0.24 0 0.21 0.16 0.21 0.51 1.67 0.11 0.19 0.14 0.46 0.12 0.18 0.27 0.72 0.12 0.17 0 0.1 0.12 0.17 0 0.1c0.19,0 0.13,-0.04 0.12,0.17l0 0.1c0.19,0 0.13,-0.04 0.13,0.16l0 0.1c0.19,0 0.13,-0.04 0.13,0.16l0 0.1c0.19,0 0.13,-0.04 0.13,0.16l0 0.1 0.13 0.15 0.37 0.76c0.19,0 0.14,-0.04 0.14,0.14l0.25 0.5c0.19,0 0.13,-0.04 0.14,0.14l0.62 1.09 -0.1 0.24 -0 0.22 -0.15 0.23 0 0.22 -0.1 0.24 -0 0.23 -0.15 0.23 0.02 0.26 -0.15 0.23 -0 0.22 -0.1 0.24 -0 0.22 -0.15 0.23 0.02 0.26 -0.15 0.23 -0 0.22 -0.1 0.24 0 0.22 -0.15 0.23 -0 0.21 -0.1 0.24 -0 0.23 -0.15 0.23 0.02 0.26 -0.15 0.23 -0 0.22 -0.1 0.24 0 0.23 -0.15 0.23 0.02 0.26 -0.15 0.23 -0 0.22 -0.1 0.24 -0 0.22 -0.15 0.23 0.02 0.26 -0.15 0.23 -0 0.22 -0.1 0.24 0 0.22 -0.15 0.23 0.03 0.19 0.24 0.11 0.24 -0.03 0.23 -0.15 0.19 0.03 0.24 -0.15 0.26 0.02 0.25 -0.15 0.27 0.02 0.24 -0.15 0.26 0.02 0.25 -0.15 0.26 0.02 0.25 -0.15 0.27 0.02 0.24 -0.15 0.19 0.03 0.24 -0.15 0.26 0.02 0.25 -0.15 0.27 0.02 0.24 -0.15 0.26 0.01 0.26 -0.14 0.25 0.01 0.24 -0.15 0.27 0.02 0.24 -0.15 0.23 -0 0.25 -0.1 0.23 0 0.24 -0.15 0.25 0.02 0.25 -0.15 0.27 0.02 0.24 -0.15 0.26 0.02 0.24 -0.15 0.27 0.02 0.24 -0.15 0.22 -0 0.25 -0.1 0.83 0.37c0.19,0 0.15,-0.04 0.15,0.14l0.5 0.25 0.15 0.14 2.15 1.04c0.21,-0.01 0.17,-0.07 0.17,0.12l0.73 0.27 0.19 0.12 0.46 0.14 0.19 0.11 0.17 0.02 0.21 0.11 0.18 0.02c0.24,-0.02 0.21,-0.09 0.21,0.11l0.56 0.15 0.23 0.1 0.18 0.02 0.23 0.1 0.22 0 0.24 0.15 0.27 -0.02 0.26 0.15 0.26 -0.02 0.26 0.14 0.29 -0.02 0.33 0.17 1.01 0.11 0.35 0.11 0.56 0.01 0.45 0.13 4.46 0.14 1.03 -0.16 3.85 -0.5 0.28 -0.13 0.27 0.01 0.24 -0.15 0.26 0.02 0.25 -0.15 0.22 -0 0.23 -0.1 0.21 -0 0.22 -0.16 0.91 -0.24 0.2 -0.11 0.17 -0.03 0.19 -0.11 0.47 -0.14 0.18 -0.12 0.45 -0.15 0.17 -0.12 0.1 -0c0,-0.19 -0.04,-0.13 0.17,-0.12l1.65 -0.77c0,-0.19 -0.04,-0.13 0.15,-0.13l0.1 -0 0.15 -0.14 0.5 -0.24c0,-0.19 -0.04,-0.14 0.14,-0.14l0.5 -0.25 0.14 -0.15 0.25 -0.11 0.14 -0.15 0.25 -0.11 0.14 -0.15 0.76 -0.49 0.13 -0.16 0.52 -0.35 0.13 -0.17 0.64 -0.48 0.13 -0.18 2.43 -2.42 0.15 -0.13c0,-0.18 -0.04,-0.13 0.15,-0.13l0.47 -0.64 0.17 -0.13 1 -1.42 0.15 -0.13 0.11 -0.25 0.15 -0.14 0.11 -0.25 0.15 -0.14 0.5 -0.89 0.14 -0.15 0 -0.1c0,-0.19 -0.05,-0.15 0.14,-0.15l0.37 -0.76 0.13 -0.16 0 -0.1 0.13 -0.16 0 -0.1 0.13 -0.16 0 -0.1 0.12 -0.17 0.4 -0.97c-0.01,-0.22 -0.07,-0.18 0.12,-0.18l-0 -0.1 0.12 -0.18 0.14 -0.46 0.12 -0.19 0.4 -1.22 0.11 -0.22 0.13 -0.62 0.16 -0.22 0 -0.22 0.1 -0.24 0 -0.23 0.15 -0.24 -0.04 -0.29 0.19 -0.28 -0.05 -0.24 0.17 -0.32 -0.04 -0.31 0.17 -0.33 0.12 -1.24 0.11 -0.38 0.03 -0.77 0.1 -0.41 0.01 -4.38 -0.12 -0.59 -0.12 -1.5 -0.15 -0.39 0.03 -0.31 -0.17 -0.34 0.04 -0.32 -0.18 -0.29 0.03 -0.29 -0.14 -0.27 0.02 -0.26 -0.15 -0.24 -0 -0.23 -0.1 -0.24 -0.02 -0.18 -0.11 -0.22 0 -0.22 -0.16 -0.2 -0.25 -0.9 -0.11 -0.2 -0.14 -0.46c-0.19,0 -0.13,0.04 -0.12,-0.19l-0.14 -0.45 -0.12 -0.17 -0 -0.1c-0.19,0 -0.13,0.04 -0.12,-0.17l-0.9 -1.9c-0.19,0 -0.13,0.04 -0.13,-0.15l-0 -0.1 -0.14 -0.15 -0.25 -0.5 -0.14 -0.14 -0.11 -0.25c-0.19,0 -0.14,0.05 -0.15,-0.14l-0.63 -1.02 -0.15 -0.14 -0.61 -0.9 -0.16 -0.13 -0.35 -0.51 -0.17 -0.13 -0.73 -0.9c-0.19,0 -0.15,0.05 -0.15,-0.13l-0.15 -0.13 -1.39 -1.39 -0.13 -0.15 -0.13 -0.13 -0.13 -0.15 -0.77 -0.6 -0.13 -0.17 -0.51 -0.35 -0.13 -0.16 -0.9 -0.61 -0.14 -0.15 -1.41 -0.88 -0.14 -0.14 -0.5 -0.25c-0.19,-0.01 -0.15,0.04 -0.15,-0.14l-1.02 -0.5 -0.16 -0.13 -0.1 -0 -0.16 -0.13 -0.1 0 -0.16 -0.13 -0.98 -0.4c-0.21,0.01 -0.17,0.07 -0.17,-0.12l-1.11 -0.4 -0.2 -0.11 -0.18 -0.02 -0.2 -0.11 -0.56 -0.15 -0.23 -0.1 -0.18 -0.02 -0.22 -0.1 -0.21 -0 -0.24 -0.15 -0.27 0.02 -0.24 -0.15 -0.27 0.02 -0.27 -0.14 -0.28 0.03 -0.31 -0.18 -0.29 0.02 -0.31 -0.12 -0.38 0.02 -0.45 -0.17 -0.5 0.02 -0.46 -0.12 -4.38 -0.15 -1.09 0.18z"/>
   <path class="fil1" d="M5.94 31.09l-0.01 -1 0.13 -0.57 -0.02 -0.51 0.16 -0.49 -0.01 -0.48 0.12 -0.33 0 -0.35 0.12 -0.31 0 -0.34 0.13 -0.29 0.02 -0.3 0.1 -0.25 0 -0.22 0.15 -0.25 -0.02 -0.26 0.16 -0.22 -0 -0.23 0.1 -0.23 0.02 -0.17 0.1 -0.22 0.03 -0.17 0.11 -0.21 0.02 -0.17 0.11 -0.21 0.02 -0.17c-0.01,-0.23 -0.08,-0.19 0.12,-0.19l0.14 -0.46 0.11 -0.19 0.27 -0.72 0.12 -0.18 0.9 -1.9 0.14 -0.14 0.38 -0.75c0,-0.19 -0.04,-0.14 0.14,-0.14l0.11 -0.25 0.14 -0.14 0.1 -0.25 0.15 -0.14 0.11 -0.25 0.15 -0.14 0.11 -0.25 0.16 -0.13 0.22 -0.38 0.16 -0.13 0.23 -0.38 0.17 -0.13 0.47 -0.65 0.17 -0.13 1.5 -1.67 0.15 -0.15 1.16 -0.99 0.13 -0.18 0.65 -0.47 0.13 -0.17 0.38 -0.23 0.13 -0.16 0.38 -0.23 0.14 -0.15 1.8 -1.13c0,-0.19 -0.04,-0.14 0.14,-0.14l0.75 -0.38 0.15 -0.14 1.64 -0.78 0.17 -0.13 0.09 0 0.17 -0.12 0.73 -0.27 0.18 -0.12 0.46 -0.14 0.19 -0.12 0.85 -0.27 0.2 -0.11 0.18 -0.02 0.22 -0.1 0.22 -0 0.21 -0.16 0.19 0.04 0.23 -0.16 0.26 0.02 0.24 -0.15 0.26 0.02 0.26 -0.14 0.26 0.02 0.26 -0.14 0.29 0.03 0.33 -0.17 0.3 0.03 0.37 -0.15 0.36 0.01 0.34 -0.12 1.67 -0.11c0.3,-0.2 0.69,-0.19 1.09,-0.18l4.38 0.15 0.46 0.12 0.5 -0.02 0.45 0.17 0.38 -0.02 0.31 0.12 0.29 -0.02 0.31 0.18 0.28 -0.03 0.27 0.14 0.27 -0.02 0.24 0.15 0.27 -0.02 0.24 0.15 0.21 0 0.22 0.1 0.18 0.02 0.23 0.1 0.56 0.15 0.2 0.11 0.18 0.02 0.2 0.11 1.11 0.4 0.17 0.12 0.98 0.4c0.21,-0.01 0.16,-0.06 0.16,0.13l0.1 0c0.2,-0.01 0.16,-0.06 0.16,0.13l0.1 0c0.2,-0 0.16,-0.06 0.16,0.13l1.02 0.5 0.15 0.14 0.5 0.25 0.14 0.14 1.41 0.88 0.14 0.15 0.9 0.61 0.13 0.16 0.51 0.35 0.13 0.17 0.77 0.6 0.13 0.15 0.13 0.13c0.18,0 0.13,-0.04 0.13,0.15l1.39 1.39c0.19,0 0.15,-0.05 0.15,0.13l0.15 0.13 0.73 0.9 0.17 0.13 0.35 0.51 0.16 0.13 0.61 0.9 0.15 0.14 0.63 1.02 0.15 0.14 0.11 0.25c0.18,0 0.13,-0.04 0.14,0.14l0.25 0.5c0.19,0 0.13,-0.04 0.14,0.15l0 0.1 0.13 0.15 0.9 1.9 0.12 0.17 0 0.1c0.19,0 0.13,-0.04 0.12,0.17l0.14 0.45 0.12 0.19 0.14 0.46 0.11 0.2 0.25 0.9 0.16 0.2 0 0.22 0.11 0.22 0.02 0.18 0.1 0.24 0 0.23 0.15 0.24 -0.02 0.26 0.14 0.27 -0.03 0.29 0.18 0.29 -0.04 0.32 0.17 0.34 -0.03 0.31 0.15 0.39 0.12 1.5 0.12 0.59 -0.01 4.38 -0.1 0.41 -0.03 0.77 -0.11 0.38 -0.12 1.24 -0.17 0.33 0.04 0.31 -0.17 0.32 0.05 0.24 -0.19 0.28 0.04 0.29 -0.15 0.24 -0 0.23 -0.1 0.24 0 0.22 -0.16 0.22 -0.13 0.62 -0.11 0.22 -0.4 1.22 -0.12 0.19 -0.14 0.46c0.01,0.21 0.07,0.18 -0.12,0.18l0 0.1 -0.12 0.18 -0.4 0.97c0.01,0.21 0.06,0.17 -0.12,0.17l-0 0.1c0,0.2 0.06,0.16 -0.13,0.16l0 0.1c0,0.2 0.05,0.16 -0.13,0.16l0 0.1c0.01,0.2 0.06,0.16 -0.13,0.16l-0.37 0.76 -0.14 0.15 0 0.1c-0,0.19 0.05,0.15 -0.14,0.15l-0.5 0.89 -0.15 0.14 -0.11 0.25 -0.15 0.14 -0.11 0.25 -0.15 0.13 -1 1.42 -0.17 0.13 -0.47 0.64 -0.15 0.13c0,0.18 0.04,0.13 -0.15,0.13l-2.43 2.42 -0.13 0.18 -0.64 0.48 -0.13 0.17 -0.52 0.35 -0.13 0.16 -0.76 0.49 -0.14 0.15 -0.25 0.11 -0.14 0.15 -0.25 0.11 -0.14 0.15 -0.5 0.25 -0.14 0.14 -0.5 0.24c0,0.19 0.04,0.14 -0.15,0.14l-0.1 0 -0.15 0.13 -1.65 0.77 -0.17 0.12 -0.1 0c0,0.19 0.04,0.13 -0.17,0.12l-0.45 0.15 -0.18 0.12 -0.47 0.14 -0.19 0.11 -0.17 0.03 -0.2 0.11 -0.91 0.24 -0.22 0.16 -0.21 0 -0.23 0.1 -0.22 0 -0.25 0.15 -0.26 -0.02 -0.24 0.15 -0.27 -0.01 -0.28 0.13 -3.85 0.5c-0.34,0.19 -0.6,0.17 -1.03,0.16l-4.46 -0.14 -0.45 -0.13 -0.56 -0.01 -0.35 -0.11 -1.01 -0.11 -0.33 -0.17 -0.29 0.02 -0.26 -0.14 -0.26 0.02 -0.26 -0.15 -0.27 0.02 -0.24 -0.15 -0.22 -0 -0.23 -0.1 -0.18 -0.02 -0.23 -0.1 -0.56 -0.15 -0.21 -0.11 -0.18 -0.02 -0.21 -0.11 -0.17 -0.02 -0.19 -0.11 -0.46 -0.14 -0.19 -0.12 -0.73 -0.27 -0.17 -0.12 -2.15 -1.04c-0.19,-0.01 -0.15,0.05 -0.15,-0.14l-0.5 -0.25 -0.15 -0.14 -0.83 -0.37 -0.25 0.1 -0.22 0 -0.24 0.15 -0.27 -0.02 -0.24 0.15 -0.26 -0.02 -0.24 0.15 -0.27 -0.02 -0.25 0.15 -0.25 -0.02 -0.24 0.15 -0.23 0 -0.25 0.1 -0.23 0 -0.24 0.15 -0.27 -0.02 -0.24 0.15 -0.25 -0.01 -0.26 0.14 -0.26 -0.01 -0.24 0.15 -0.27 -0.02 -0.25 0.15 -0.26 -0.02 -0.24 0.15 -0.19 -0.03 -0.24 0.15 -0.27 -0.02 -0.25 0.15 -0.26 -0.02 -0.25 0.15 -0.26 -0.02 -0.24 0.15 -0.27 -0.02 -0.25 0.15 -0.26 -0.02 -0.24 0.15 -0.19 -0.03 -0.23 0.15 -0.24 0.03 -0.39 0.05 0.15 -0.16 -0.03 -0.19 0.15 -0.23 -0 -0.22 0.1 -0.24 0 -0.22 0.15 -0.23 -0.02 -0.26 0.15 -0.23 0 -0.22 0.1 -0.24 0 -0.22 0.15 -0.23 -0.02 -0.26 0.15 -0.23 0 -0.23 0.1 -0.24 0 -0.22 0.15 -0.23 -0.02 -0.26 0.15 -0.23 0 -0.23 0.1 -0.24 0 -0.21 0.15 -0.23 0 -0.22 0.1 -0.24 0 -0.22 0.15 -0.23 -0.02 -0.26 0.15 -0.23 0 -0.22 0.1 -0.24 0 -0.22 0.15 -0.23 -0.02 -0.26 0.15 -0.23 0 -0.23 0.1 -0.24 0 -0.22 0.15 -0.23 0 -0.22 0.1 -0.24 -0.62 -1.09 -0.14 -0.14 -0.25 -0.5 -0.14 -0.14 -0.37 -0.76c-0.18,0 -0.13,0.04 -0.13,-0.15l0 -0.1 -0.13 -0.16 0 -0.1 -0.13 -0.16 -0 -0.1 -0.13 -0.16 0 -0.1 -0.12 -0.17 -0 -0.1 -0.12 -0.17 0 -0.1c-0.19,0 -0.13,0.04 -0.12,-0.17l-0.27 -0.72 -0.12 -0.18 -0.14 -0.46 -0.11 -0.19 -0.51 -1.67 -0.16 -0.21 0 -0.21 -0.1 -0.24 -0 -0.22 -0.15 -0.24 0.02 -0.26 -0.14 -0.27 0.01 -0.26 -0.14 -0.27 0.02 -0.37 -0.17 -0.34 0.03 -0.31 -0.15 -0.39 -0.1 -1.32 -0.15 -0.64 0.01 -1c-0.26,-0.53 -0.26,-2.44 0,-2.96zm26.16 -31.09l2.65 0c7.84,0.31 15.59,3.37 21.54,9.35 6.32,6.36 9.54,14.47 9.74,22.61l0 1.62c-0.22,9.08 -4.22,18.04 -11.88,24.44 -7.88,6.58 -16.97,8.41 -26.98,6.88 -5.25,-0.8 -8.07,-3.97 -13.19,-2.59 -4.68,1.26 -9.25,2.55 -13.98,3.72 1.21,-4.64 2.74,-9.35 3.91,-13.92 1.17,-4.57 -2.13,-7.96 -3.04,-12.85 -1.83,-9.79 0.45,-19.39 6.73,-27.14 6.19,-7.63 15.27,-11.76 24.5,-12.12z"/>
   <path class="fil2" d="M20.7 17.65l-0.18 0.02 -0.18 0.12 -0.35 0.13 -0.14 0.15 -1.01 1.02 -0.14 0.13 -0.14 0.13 -0.22 0.39 -0.16 0.14 -0.11 0.25 -0.15 0.14 -0.25 0.5 -0.13 0.15 0 0.1 -0.13 0.15 0 0.1 -0.12 0.17 0 0.1 -0.12 0.17 -0.14 0.46 -0.11 0.2 -0.02 0.18 -0.11 0.22 -0 0.22 -0.15 0.25 -0.12 1.24 0 1.5 0.01 0.68 0.12 0.34 -0.02 0.28 0.18 0.3 -0.01 0.25 0.1 0.24 0.28 0.95 0.12 0.19 0.14 0.46 0.12 0.18 0 0.1c0.19,0 0.14,-0.04 0.12,0.16l0.52 1.12c0.19,0 0.13,-0.04 0.13,0.15l0 0.1 0.13 0.15 0.25 0.5 0.14 0.14 0.25 0.5 0.15 0.14 0.48 0.78 0.16 0.13 0.23 0.38 0.16 0.13 0.35 0.52 0.16 0.13 0.23 0.38 0.16 0.13 0.35 0.51c0.19,0 0.14,-0.05 0.14,0.13l0.15 0.13 0.35 0.51 0.17 0.13 0.6 0.77 0.15 0.13 0.15 0.13 0.86 1.03 0.15 0.13 0.13 0.13 0.15 0.13 1.52 1.53 0.13 0.15 0.13 0.13 0.13 0.15 0.77 0.61 0.13 0.14c0.18,0 0.13,-0.04 0.13,0.15l0.51 0.35 0.13 0.17 0.38 0.23 0.13 0.16 0.38 0.22 0.13 0.16 0.24 0.11c0.19,0 0.14,-0.04 0.14,0.15l0.25 0.11c0.19,0.01 0.14,-0.04 0.14,0.15l0.24 0.11 0.14 0.15 0.5 0.24c0.19,0 0.15,-0.05 0.15,0.14l0.5 0.24 0.16 0.13 0.1 0 0.16 0.13 0.1 0 0.16 0.13 0.1 0c0.2,-0 0.16,-0.05 0.16,0.13l0.1 0c0.21,-0.01 0.16,-0.06 0.16,0.12l0.1 0 0.17 0.12 0.1 0 0.17 0.12 0.72 0.27c0.22,-0.01 0.18,-0.07 0.18,0.12l0.1 0 0.18 0.12 0.45 0.15 0.19 0.12 0.47 0.14 0.19 0.11 0.18 0.03c0.23,-0.02 0.19,-0.09 0.19,0.11l0.47 0.14 0.2 0.11 0.17 0.03 0.2 0.11 0.18 0.03c0.24,-0.02 0.2,-0.09 0.2,0.11l0.86 0.27 0.21 0.11 0.22 0 0.23 0.15 0.25 -0.02 0.29 0.13 0.33 0 0.35 0.12 0.51 -0.01 2.04 0.02 0.72 0 0.39 -0.15 0.24 0 0.24 -0.1 0.18 -0.02 0.21 -0.11 0.17 -0.03 0.19 -0.12 1.39 -0.64c0,-0.19 -0.05,-0.14 0.14,-0.14l0.63 -0.36c0,-0.2 -0.05,-0.15 0.14,-0.16l0.38 -0.23 0.13 -0.17 0.63 -0.62 0.15 -0.13 0.14 -0.13 0.11 -0.24c0.01,-0.19 -0.04,-0.14 0.14,-0.14l0.13 -0.35c-0.01,-0.22 -0.07,-0.18 0.12,-0.18l0.02 -0.18 0.11 -0.21 0.02 -0.18 0.1 -0.23 0 -0.22 0.15 -0.25 -0.03 -0.29 0.16 -0.35 -0.04 -0.43 -0.01 -1.32 0.02 -0.17 -0.13 -0.16 -0.25 -0.23 -0.14 -0.15 -0.1 0c-0.2,0 -0.16,0.06 -0.16,-0.13l-0.1 -0 -0.16 -0.13 -0.1 0 -0.17 -0.12 -0.6 -0.01c-0.2,0.01 -0.16,0.06 -0.16,-0.13l-0.1 -0c-0.2,0 -0.16,0.06 -0.16,-0.12l-0.1 -0 -0.16 -0.13 -0.1 -0 -0.16 -0.12 -0.1 0 -0.16 -0.13 -0.1 -0 -0.17 -0.12 -0.09 -0 -0.17 -0.13 -2.01 -0.91c-0.21,0 -0.17,0.06 -0.17,-0.12l-0.1 0 -0.17 -0.12 -0.09 -0 -0.18 -0.12 -0.45 -0.15c-0.21,0.01 -0.17,0.07 -0.17,-0.12l-0.1 0 -0.18 -0.12 -0.18 -0.02 -0.21 -0.11 -0.19 -0.01 -0.54 0.01 -0.12 -0.01 -0.14 0.14 -0.37 0.37 -0.15 0.13c0,0.18 0.04,0.13 -0.15,0.13l-0.35 0.52 -0.17 0.13 -0.23 0.38 -0.17 0.13 -0.35 0.52 -0.15 0.13 -0.14 0.13 -0.36 0.51 -0.14 0.13 -0.15 0.13 -0.49 0.51c0,0.19 0.04,0.14 -0.15,0.14l-0.15 -0.03c-0.27,0.27 -0.33,0.23 -0.65,0.03l-0.2 -0 -0.19 -0.11 -0.45 -0.15c-0.21,0.01 -0.17,0.07 -0.17,-0.12l-0.09 -0 -0.18 -0.12 -0.71 -0.28c-0.21,0.01 -0.17,0.07 -0.17,-0.12l-0.1 0c-0.2,0.01 -0.16,0.06 -0.16,-0.13l-0.09 -0c-0.2,0.01 -0.16,0.06 -0.16,-0.13l-0.1 0c-0.2,0.01 -0.16,0.06 -0.16,-0.13l-0.5 -0.24 -0.15 -0.14 -0.1 0c-0.19,-0 -0.15,0.05 -0.15,-0.14l-0.25 -0.11 -0.14 -0.15 -0.49 -0.25c-0.19,-0 -0.14,0.04 -0.14,-0.15l-0.39 -0.22 -0.14 -0.16 -0.38 -0.23 -0.14 -0.16 -0.38 -0.23 -0.13 -0.14 -0.13 -0.14 -0.64 -0.48 -0.13 -0.15 -0.13 -0.13 -0.13 -0.15 -0.5 -0.49c-0.19,0 -0.15,0.05 -0.15,-0.13l-0.13 -0.13 -0.13 -0.13 -0.15 -0.13 -0.6 -0.77 -0.17 -0.13 -0.35 -0.51 -0.16 -0.13 -0.23 -0.38 -0.16 -0.14 -0.22 -0.39 -0.16 -0.14 -0.11 -0.25 -0.15 -0.14 -0.11 -0.25 -0.15 -0.14 -0.1 -0.26c-0.19,0 -0.14,0.05 -0.14,-0.15l-0 -0.1 -0.14 -0.14 -0.11 -0.25c-0.19,0 -0.14,0.04 -0.13,-0.16l0.62 -1.78 0.15 -0.13 0.15 -0.13 0.48 -0.64 0.16 -0.13 0.22 -0.38 0.15 -0.14 0.11 -0.25 0.14 -0.14 0 -0.1c-0,-0.19 -0.05,-0.15 0.14,-0.15l0.23 -0.64 -0.01 -0.76 -0.12 -0.5 -0.12 -0.18 0 -0.1c-0.19,0 -0.13,0.04 -0.12,-0.18l-0.15 -0.45 -0.12 -0.18 0 -0.1c-0.19,0 -0.13,0.04 -0.12,-0.18l-0.14 -0.45 -0.12 -0.18 -0.14 -0.46 -0.12 -0.18 -0 -0.1c-0.19,0 -0.13,0.04 -0.12,-0.18l-0.15 -0.45 -0.12 -0.18 -0.15 -0.45 -0.12 -0.19 0 -0.09c-0.2,0 -0.13,0.04 -0.12,-0.18l-0.14 -0.45 -0.12 -0.18 -0.15 -0.45 -0.12 -0.18 0 -0.1c-0.19,0 -0.13,0.04 -0.12,-0.18l-0.26 -0.6 -0.15 -0.14 -1.76 -0.64 -1.43 0.02 -0.36 0 -0.25 0.1z"/>
   <path class="fil3" d="M5.94 34.05l0 -2.96c-0.27,0.53 -0.26,2.43 -0,2.96z"/>
   <path class="fil4" d="M42.71 48.23l-2.04 -0.02c0.47,0.29 1.55,0.26 2.04,0.02z"/>
   <path class="fil5" d="M49.76 41.87c0.25,-0.19 0.25,-1.06 -0.01,-1.32l0.01 1.32z"/>
   <path class="fil6" d="M22.74 17.53c-0.41,-0.2 -1.04,-0.24 -1.43,0.02l1.43 -0.02z"/>
   <path class="fil4" d="M16.5 25.96l0 -1.5c-0.21,0.44 -0.21,1.05 0,1.5z"/>
   <path class="fil7" d="M27.59 26.18c0.26,-0.32 0.23,-0.46 -0.01,-0.76l0.01 0.76z"/>
   <path class="fil4" d="M37.5 40.86l-0.65 0.03c0.31,0.21 0.38,0.24 0.65,-0.03z"/>
   <path class="fil8" d="M32.08 5.39c-0.4,-0.01 -0.79,-0.02 -1.09,0.18l1.09 -0.18z"/>
   <path class="fil4" d="M41.94 36.75c-0.27,-0.28 -0.35,-0.15 -0.54,0.01l0.54 -0.01z"/>
   <path class="fil9" d="M35.59 59.69l-1.03 0.16c0.43,0.01 0.69,0.04 1.03,-0.16z"/>
   <polygon class="fil10" points="8.25,58.07 8.01,57.96 7.87,58.12 "/>
   <path class="fil11" d="M38.49 47.83l-0.21 -0.11c0,0.2 -0.04,0.13 0.21,0.11z"/>
   <path class="fil12" d="M37.42 47.46c0,-0.2 0.04,-0.13 -0.2,-0.11l0.2 0.11z"/>
   <path class="fil13" d="M24.4 58.42c0,-0.2 0.04,-0.13 -0.21,-0.11l0.21 0.11z"/>
   <path class="fil14" d="M36 46.94c0,-0.2 0.04,-0.13 -0.19,-0.11l0.19 0.11z"/>
   <path class="fil6" d="M36.65 40.88c0,-0.19 0.04,-0.13 -0.19,-0.11l0.19 0.11z"/>
   <path class="fil15" d="M25.67 20.65l-0.12 -0.18c-0.02,0.22 -0.08,0.18 0.12,0.18z"/>
   <path class="fil11" d="M35.63 46.8l-0.19 -0.11c0,0.19 -0.04,0.13 0.19,0.11z"/>
   <path class="fil16" d="M27.07 24.03c0.02,-0.22 0.08,-0.18 -0.12,-0.18l0.12 0.18z"/>
   <path class="fil3" d="M7.61 22.93c-0.19,0 -0.13,-0.04 -0.12,0.19l0.12 -0.19z"/>
   <path class="fil17" d="M58.68 22.59l-0.12 -0.19c-0.01,0.22 -0.08,0.19 0.12,0.19z"/>
   <path class="fil5" d="M26.43 22.47c0.01,-0.22 0.07,-0.18 -0.12,-0.18l0.12 0.18z"/>
   <path class="fil4" d="M25.78 20.93c0.01,-0.22 0.08,-0.19 -0.12,-0.19l0.12 0.19z"/>
   <path class="fil16" d="M27.46 24.93c0.01,-0.22 0.08,-0.18 -0.12,-0.18l0.12 0.18z"/>
   <path class="fil18" d="M13.93 13.26l-0.15 0.15c0.2,0 0.15,0.05 0.15,-0.15z"/>
   <path class="fil19" d="M26.95 23.75l-0.12 -0.18c-0.01,0.22 -0.07,0.18 0.12,0.18z"/>
   <path class="fil20" d="M25.14 19.38c0.01,-0.22 0.07,-0.18 -0.12,-0.18l0.12 0.18z"/>
   <path class="fil6" d="M22.85 7.48l-0.18 0.12c0.22,0.01 0.18,0.08 0.18,-0.12z"/>
   <path class="fil11" d="M43.61 37.4c0,-0.19 0.04,-0.13 -0.18,-0.12l0.18 0.12z"/>
   <path class="fil4" d="M34.34 46.29l-0.18 -0.12c0,0.19 -0.04,0.13 0.18,0.12z"/>
   <path class="fil7" d="M26.31 22.19l-0.12 -0.18c-0.01,0.22 -0.07,0.18 0.12,0.18z"/>
   <path class="fil15" d="M42.98 37.13l-0.17 -0.12c0,0.19 -0.04,0.13 0.17,0.12z"/>
   <path class="fil21" d="M34.06 46.17c0,-0.19 0.04,-0.13 -0.18,-0.12l0.18 0.12z"/>
   <path class="fil6" d="M58.29 21.68l-0.12 -0.17c-0.01,0.21 -0.07,0.17 0.12,0.17z"/>
   <path class="fil22" d="M35.74 40.49c0,-0.19 0.04,-0.13 -0.18,-0.12l0.18 0.12z"/>
   <path class="fil19" d="M49.26 44.21c-0.19,0 -0.13,-0.04 -0.12,0.18l0.12 -0.18z"/>
   <path class="fil15" d="M25.02 19.09l-0.12 -0.18c-0.01,0.22 -0.07,0.18 0.12,0.18z"/>
   <path class="fil23" d="M44.37 57.52l-0.17 0.12c0.21,0.01 0.17,0.07 0.17,-0.12z"/>
   <path class="fil17" d="M58.29 43.32c-0.19,0 -0.13,-0.04 -0.12,0.18l0.12 -0.18z"/>
   <path class="fil22" d="M42.71 37.01c0,-0.19 0.04,-0.13 -0.18,-0.12l0.18 0.12z"/>
   <path class="fil13" d="M21.68 7.99l-0.17 0.13c0.21,0.01 0.17,0.07 0.17,-0.13z"/>
   <path class="fil4" d="M48.64 39.59c0,-0.19 0.04,-0.13 -0.17,-0.12l0.17 0.12z"/>
   <path class="fil13" d="M22.07 57.52c0,-0.19 0.04,-0.13 -0.17,-0.12l0.17 0.12z"/>
   <path class="fil21" d="M27.34 24.65l-0.12 -0.18c-0.01,0.22 -0.07,0.18 0.12,0.18z"/>
   <path class="fil4" d="M46.31 38.69c0,-0.19 0.04,-0.13 -0.17,-0.13l0.17 0.13z"/>
   <path class="fil15" d="M34.86 40.1l-0.17 -0.12c0,0.19 -0.04,0.13 0.17,0.12z"/>
   <path class="fil23" d="M58.41 43.04l-0.12 0.18c0.19,0 0.13,0.04 0.12,-0.18z"/>
   <path class="fil21" d="M36.01 40.62l-0.17 -0.12c0,0.19 -0.04,0.13 0.17,0.12z"/>
   <path class="fil15" d="M25.16 30.96l-0.13 -0.16c-0.01,0.2 -0.06,0.16 0.13,0.16z"/>
   <path class="fil8" d="M8.25 21.38l-0.12 0.18c0.19,0 0.12,0.04 0.12,-0.18z"/>
   <path class="fil12" d="M17.66 30.08c0.01,-0.21 0.07,-0.16 -0.12,-0.16l0.12 0.16z"/>
   <path class="fil8" d="M44 7.6l-0.17 -0.12c0,0.19 -0.04,0.13 0.17,0.12z"/>
   <path class="fil24" d="M58.42 21.95c0.01,-0.21 0.07,-0.17 -0.12,-0.17l0.12 0.17z"/>
   <path class="fil20" d="M17.28 21.53c-0.19,0 -0.13,-0.04 -0.12,0.17l0.12 -0.17z"/>
   <path class="fil4" d="M33.17 45.78l-0.17 -0.12c0,0.19 -0.04,0.13 0.17,0.12z"/>
   <path class="fil14" d="M34.07 39.71l-0.16 -0.13c0,0.19 -0.04,0.14 0.16,0.13z"/>
   <path class="fil13" d="M8.64 44.52c0.01,-0.21 0.06,-0.17 -0.12,-0.17l0.12 0.17z"/>
   <path class="fil8" d="M44.65 57.39c-0.21,-0.01 -0.17,-0.07 -0.17,0.12l0.17 -0.12z"/>
   <path class="fil4" d="M46.57 38.82c0,-0.19 0.04,-0.13 -0.17,-0.12l0.17 0.12z"/>
   <path class="fil23" d="M45.14 8.13c0,-0.19 0.04,-0.13 -0.16,-0.13l0.16 0.13z"/>
   <path class="fil3" d="M8.39 43.99l-0.12 -0.17c-0.01,0.21 -0.06,0.17 0.12,0.17z"/>
   <path class="fil13" d="M21.94 7.87l-0.17 0.12c0.21,0.01 0.17,0.06 0.17,-0.12z"/>
   <path class="fil19" d="M32.64 45.53c0,-0.19 0.04,-0.13 -0.16,-0.12l0.16 0.12z"/>
   <path class="fil15" d="M34.58 39.97l-0.16 -0.13c0,0.19 -0.04,0.14 0.16,0.13z"/>
   <path class="fil25" d="M17.41 21.26c-0.19,0 -0.13,-0.04 -0.12,0.17l0.12 -0.17z"/>
   <path class="fil26" d="M49.78 40.38c0,-0.2 0.06,-0.16 -0.13,-0.16l0.13 0.16z"/>
   <path class="fil3" d="M57.77 44.47l-0.12 0.17c0.19,0 0.13,0.04 0.12,-0.17z"/>
   <path class="fil23" d="M45.4 8.26c0,-0.19 0.04,-0.13 -0.16,-0.13l0.16 0.13z"/>
   <path class="fil4" d="M17.67 20.75c-0.19,0 -0.14,-0.04 -0.13,0.15l0.13 -0.15z"/>
   <path class="fil21" d="M44.13 37.65l-0.17 -0.12c0,0.19 -0.04,0.13 0.17,0.12z"/>
   <path class="fil27" d="M47.87 39.46l-0.16 -0.13c0,0.19 -0.04,0.13 0.16,0.13z"/>
   <path class="fil28" d="M43.87 37.53c0,-0.19 0.04,-0.13 -0.17,-0.12l0.17 0.12z"/>
   <path class="fil4" d="M31.87 45.14l-0.16 -0.13c0,0.19 -0.04,0.13 0.16,0.13z"/>
   <path class="fil5" d="M31.62 45.01l-0.16 -0.13c0,0.19 -0.04,0.13 0.16,0.13z"/>
   <path class="fil29" d="M47.61 39.33l-0.16 -0.12c0,0.19 -0.04,0.13 0.16,0.12z"/>
   <path class="fil30" d="M8.76 44.77c0.01,-0.2 0.06,-0.16 -0.13,-0.16l0.13 0.16z"/>
   <path class="fil13" d="M8.89 45.03c0,-0.2 0.06,-0.16 -0.13,-0.16l0.13 0.16z"/>
   <path class="fil31" d="M57.39 45.25l-0.13 0.16c0.19,0 0.14,0.04 0.13,-0.16z"/>
   <path class="fil15" d="M34.33 39.84l-0.16 -0.13c0,0.19 -0.04,0.13 0.16,0.13z"/>
   <path class="fil21" d="M49.16 39.85l-0.16 -0.13c0,0.19 -0.04,0.13 0.16,0.13z"/>
   <path class="fil23" d="M45.66 8.39c0,-0.19 0.04,-0.13 -0.16,-0.13l0.16 0.13z"/>
   <path class="fil22" d="M47.09 39.07c0,-0.18 0.04,-0.13 -0.16,-0.12l0.16 0.12z"/>
   <path class="fil11" d="M33.41 39.34c0,-0.19 0.05,-0.14 -0.15,-0.14l0.15 0.14z"/>
   <path class="fil22" d="M46.83 38.95c0,-0.19 0.04,-0.13 -0.16,-0.13l0.16 0.13z"/>
   <path class="fil12" d="M25.55 31.6l-0.14 -0.15c-0,0.19 -0.05,0.15 0.14,0.15z"/>
   <path class="fil4" d="M49.4 40c0,-0.19 0.05,-0.15 -0.14,-0.15l0.14 0.15z"/>
   <path class="fil25" d="M48.9 39.72c0,-0.18 0.04,-0.13 -0.16,-0.13l0.16 0.13z"/>
   <path class="fil30" d="M19.23 32.89l-0.15 -0.14c0,0.19 -0.04,0.14 0.15,0.14z"/>
   <path class="fil14" d="M27.35 26.82c-0.19,0 -0.14,-0.04 -0.14,0.15l0.14 -0.15z"/>
   <path class="fil4" d="M32.76 38.96c0,-0.19 0.05,-0.14 -0.14,-0.15l0.14 0.15z"/>
   <path class="fil6" d="M25.41 31.35c0,-0.19 0.05,-0.14 -0.14,-0.14l0.14 0.14z"/>
   <path class="fil14" d="M32.13 38.56l-0.14 -0.15c0,0.19 -0.05,0.14 0.14,0.15z"/>
   <path class="fil15" d="M29.53 43.74c0,-0.19 0.05,-0.14 -0.14,-0.15l0.14 0.15z"/>
   <path class="fil32" d="M9.03 45.28c0,-0.2 0.05,-0.16 -0.13,-0.16l0.13 0.16z"/>
   <path class="fil26" d="M32.38 45.4c0,-0.19 0.04,-0.13 -0.16,-0.13l0.16 0.13z"/>
   <path class="fil4" d="M31.08 37.81c0,-0.2 0.05,-0.15 -0.14,-0.16l0.14 0.16z"/>
   <path class="fil13" d="M56.88 46.16c-0.19,0 -0.14,-0.04 -0.14,0.15l0.14 -0.15z"/>
   <path class="fil22" d="M18.45 31.61l-0.13 -0.15c0,0.2 -0.05,0.15 0.13,0.15z"/>
   <path class="fil16" d="M18.34 19.73c-0.19,0 -0.15,-0.05 -0.16,0.14l0.16 -0.14z"/>
   <path class="fil33" d="M41.28 36.75c-0.19,0 -0.14,-0.05 -0.14,0.14l0.14 -0.14z"/>
   <path class="fil23" d="M57.52 44.99l-0.13 0.16c0.19,0 0.13,0.04 0.13,-0.16z"/>
   <path class="fil24" d="M57.64 44.73l-0.13 0.16c0.19,0 0.13,0.04 0.13,-0.16z"/>
   <path class="fil14" d="M47.34 46.42c-0.19,0.01 -0.14,-0.04 -0.14,0.16l0.14 -0.16z"/>
   <path class="fil19" d="M18.31 31.35c0,-0.2 0.05,-0.15 -0.13,-0.15l0.13 0.15z"/>
   <path class="fil24" d="M46.69 56.35l-0.15 0.14c0.19,0 0.15,0.05 0.15,-0.14z"/>
   <path class="fil18" d="M56.75 46.41l-0.14 0.15c0.19,0 0.14,0.05 0.14,-0.15z"/>
   <path class="fil5" d="M18.07 20.12c-0.19,0 -0.14,-0.05 -0.15,0.14l0.15 -0.14z"/>
   <path class="fil17" d="M46.45 56.49c-0.2,0 -0.15,-0.05 -0.15,0.13l0.15 -0.13z"/>
   <path class="fil4" d="M31.6 38.19c0,-0.19 0.05,-0.15 -0.14,-0.16l0.14 0.16z"/>
   <path class="fil31" d="M9.82 18.44c-0.19,0 -0.14,-0.05 -0.14,0.14l0.14 -0.14z"/>
   <path class="fil22" d="M32.13 45.27l-0.16 -0.13c0,0.18 -0.04,0.13 0.16,0.13z"/>
   <path class="fil32" d="M57.27 19.61l-0.13 -0.15c0,0.19 -0.05,0.15 0.13,0.15z"/>
   <path class="fil22" d="M37.79 40.74l-0.15 0.14c0.19,-0 0.15,0.05 0.15,-0.14z"/>
   <path class="fil11" d="M27.21 27.07l-0.14 0.14c0.19,0 0.14,0.05 0.14,-0.14z"/>
   <path class="fil15" d="M29.92 43.99c0,-0.19 0.05,-0.14 -0.14,-0.15l0.14 0.15z"/>
   <path class="fil4" d="M26.96 27.47l-0.15 0.14c0.19,0 0.14,0.05 0.15,-0.14z"/>
   <path class="fil13" d="M56.5 18.31l-0.15 -0.14c0.01,0.19 -0.04,0.14 0.15,0.14z"/>
   <path class="fil26" d="M30.96 44.63c0,-0.19 0.04,-0.14 -0.15,-0.14l0.15 0.14z"/>
   <path class="fil19" d="M33.16 39.21l-0.15 -0.14c0,0.19 -0.04,0.13 0.15,0.14z"/>
   <path class="fil17" d="M47.34 55.97c-0.19,0.01 -0.14,-0.04 -0.14,0.14l0.14 -0.14z"/>
   <path class="fil28" d="M17.54 21.01c-0.18,0 -0.13,-0.04 -0.13,0.15l0.13 -0.15z"/>
   <path class="fil23" d="M57.13 19.36c-0,-0.19 0.05,-0.15 -0.14,-0.15l0.14 0.15z"/>
   <path class="fil34" d="M9.16 45.53l-0.13 -0.15c0,0.19 -0.05,0.15 0.13,0.15z"/>
   <path class="fil30" d="M10.32 17.66l-0.15 0.14c0.19,0 0.14,0.05 0.15,-0.14z"/>
   <path class="fil34" d="M19.09 55.98c0,-0.19 0.04,-0.14 -0.15,-0.14l0.15 0.14z"/>
   <path class="fil24" d="M19.87 8.89l-0.15 0.14c0.19,-0.01 0.15,0.05 0.15,-0.14z"/>
   <path class="fil19" d="M46.57 46.94c-0.19,0 -0.14,-0.04 -0.14,0.14l0.14 -0.14z"/>
   <path class="fil35" d="M19.74 56.36l-0.15 -0.14c0,0.18 -0.04,0.13 0.15,0.14z"/>
   <path class="fil23" d="M18.97 9.41c-0.19,0.01 -0.14,-0.04 -0.14,0.14l0.14 -0.14z"/>
   <path class="fil36" d="M53.54 14.45l-0.15 -0.13c0,0.18 -0.04,0.13 0.15,0.13z"/>
   <path class="fil21" d="M49.02 44.75c-0.19,0 -0.13,-0.04 -0.14,0.14l0.14 -0.14z"/>
   <path class="fil6" d="M53.39 14.32c-0,-0.18 0.04,-0.13 -0.15,-0.13l0.15 0.13z"/>
   <path class="fil37" d="M56.75 18.71c-0.01,-0.19 0.04,-0.14 -0.14,-0.14l0.14 0.14z"/>
   <path class="fil30" d="M51.85 12.79c0,-0.19 0.05,-0.15 -0.13,-0.15l0.13 0.15z"/>
   <path class="fil17" d="M9.67 46.44c-0.01,-0.19 0.04,-0.14 -0.14,-0.14l0.14 0.14z"/>
   <path class="fil8" d="M46.82 9.03l-0.15 -0.14c0,0.18 -0.04,0.13 0.15,0.14z"/>
   <path class="fil32" d="M10.06 47.08c-0.01,-0.19 0.04,-0.14 -0.14,-0.14l0.14 0.14z"/>
   <path class="fil11" d="M28.78 35.73l-0.15 -0.13c0,0.18 -0.04,0.13 0.15,0.13z"/>
   <path class="fil3" d="M53.8 50.55c-0.19,0 -0.15,-0.05 -0.15,0.13l0.15 -0.13z"/>
   <path class="fil11" d="M27.47 42.19c0,-0.19 0.05,-0.15 -0.13,-0.15l0.13 0.15z"/>
   <path class="fil30" d="M53.65 50.68l-0.15 0.13c0.19,0 0.15,0.05 0.15,-0.13z"/>
   <path class="fil20" d="M40.62 37.4l-0.15 0.13c0.19,0 0.15,0.05 0.15,-0.13z"/>
   <path class="fil7" d="M40.77 37.27c-0.19,0 -0.15,-0.05 -0.15,0.13l0.15 -0.13z"/>
   <path class="fil30" d="M21.67 36.11c-0,-0.18 0.04,-0.13 -0.14,-0.13l0.14 0.13z"/>
   <polygon class="fil29" points="16.88,28.04 16.78,27.8 "/>
   <polygon class="fil28" points="26.58,27.98 26.42,28.12 "/>
   <polygon class="fil38" points="60.23,28.13 60.09,27.74 "/>
   <polygon class="fil20" points="25.94,28.76 25.79,28.89 "/>
   <polygon class="fil32" points="6.05,28.99 6.21,28.51 "/>
   <polygon class="fil27" points="25.79,28.89 25.64,29.02 "/>
   <polygon class="fil29" points="17.27,29.18 17.16,28.99 "/>
   <polygon class="fil21" points="17.53,29.82 17.42,29.63 "/>
   <polygon class="fil24" points="5.93,30.08 6.06,29.51 "/>
   <polygon class="fil36" points="60.48,30.23 60.36,29.63 "/>
   <polygon class="fil28" points="25.8,31.99 25.65,31.85 "/>
   <polygon class="fil28" points="18.83,32.25 18.69,32.1 "/>
   <polygon class="fil28" points="26.06,32.37 25.91,32.24 "/>
   <polygon class="fil26" points="26.33,32.76 26.17,32.62 "/>
   <polygon class="fil5" points="26.71,33.28 26.55,33.14 "/>
   <polygon class="fil15" points="19.87,33.8 19.71,33.66 "/>
   <polygon class="fil22" points="27.1,33.79 26.94,33.66 "/>
   <polygon class="fil25" points="20.26,34.31 20.1,34.18 "/>
   <polygon class="fil22" points="27.62,34.43 27.45,34.3 "/>
   <polygon class="fil15" points="20.77,34.95 20.61,34.82 "/>
   <polygon class="fil34" points="60.37,35.02 60.47,34.61 "/>
   <polygon class="fil14" points="28.37,35.33 28.22,35.2 "/>
   <polygon class="fil22" points="21.17,35.47 21,35.34 "/>
   <polygon class="fil29" points="28.5,35.46 28.37,35.33 "/>
   <polygon class="fil3" points="6.08,35.68 5.93,35.05 "/>
   <polygon class="fil39" points="28.63,35.59 28.5,35.46 "/>
   <polygon class="fil36" points="60.24,36.17 60.34,35.79 "/>
   <polygon class="fil19" points="21.81,36.24 21.67,36.11 "/>
   <polygon class="fil4" points="29.41,36.37 29.28,36.21 "/>
   <polygon class="fil21" points="29.53,36.5 29.41,36.37 "/>
   <polygon class="fil7" points="29.66,36.65 29.53,36.5 "/>
   <polygon class="fil39" points="22.33,36.88 22.16,36.75 "/>
   <polygon class="fil21" points="42.35,36.87 42.14,36.76 "/>
   <polygon class="fil8" points="6.33,37.4 6.18,37.01 "/>
   <polygon class="fil6" points="30.44,37.27 30.3,37.13 "/>
   <polygon class="fil26" points="30.57,37.41 30.44,37.27 "/>
   <polygon class="fil24" points="59.95,37.74 60.11,37.41 "/>
   <polygon class="fil20" points="23.09,37.79 22.93,37.66 "/>
   <polygon class="fil6" points="6.47,38.04 6.3,37.7 "/>
   <polygon class="fil19" points="23.23,37.92 23.09,37.79 "/>
   <polygon class="fil5" points="40.13,38.05 39.97,38.18 "/>
   <polygon class="fil23" points="59.82,38.38 59.99,38.06 "/>
   <polygon class="fil23" points="6.59,38.68 6.45,38.41 "/>
   <polygon class="fil19" points="39.73,38.56 39.57,38.69 "/>
   <polygon class="fil36" points="12.28,15.09 12.1,15.22 "/>
   <polygon class="fil8" points="36.92,5.67 36.46,5.55 "/>
   <polygon class="fil9" points="59.68,38.9 59.87,38.61 "/>
   <polygon class="fil20" points="24.25,39.08 24.09,38.95 "/>
   <polygon class="fil37" points="29.33,5.68 28.99,5.8 "/>
   <polygon class="fil35" points="6.71,39.21 6.57,38.94 "/>
   <polygon class="fil25" points="24.37,39.21 24.25,39.08 "/>
   <polygon class="fil38" points="37.88,5.83 37.42,5.65 "/>
   <polygon class="fil21" points="47.35,39.2 47.19,39.08 "/>
   <polygon class="fil19" points="24.52,39.34 24.37,39.21 "/>
   <polygon class="fil9" points="28.62,5.79 28.25,5.95 "/>
   <polygon class="fil26" points="39.22,39.2 39.07,39.33 "/>
   <polygon class="fil3" points="38.57,5.94 38.26,5.81 "/>
   <polygon class="fil6" points="39.07,39.33 38.93,39.46 "/>
   <polygon class="fil8" points="27.95,5.91 27.62,6.08 "/>
   <polygon class="fil18" points="59.57,39.43 59.72,39.19 "/>
   <polygon class="fil13" points="39.18,6.09 38.86,5.91 "/>
   <polygon class="fil24" points="6.85,39.7 6.7,39.46 "/>
   <polygon class="fil17" points="27.33,6.05 27.07,6.2 "/>
   <polygon class="fil8" points="39.73,6.19 39.46,6.06 "/>
   <polygon class="fil6" points="26.81,6.18 26.54,6.32 "/>
   <polygon class="fil17" points="40.24,6.33 40,6.18 "/>
   <polygon class="fil3" points="59.56,39.66 59.47,39.9 "/>
   <polygon class="fil8" points="26.29,6.31 26.05,6.46 "/>
   <polygon class="fil8" points="40.74,6.46 40.51,6.31 "/>
   <polygon class="fil9" points="6.95,40.17 6.85,39.93 "/>
   <polygon class="fil3" points="25.8,6.44 25.57,6.59 "/>
   <polygon class="fil15" points="38.57,39.97 38.43,40.1 "/>
   <polygon class="fil20" points="38.43,40.1 38.28,40.24 "/>
   <polygon class="fil38" points="41.18,6.57 40.96,6.46 "/>
   <polygon class="fil24" points="59.31,40.33 59.47,40.12 "/>
   <polygon class="fil9" points="25.38,6.56 25.17,6.72 "/>
   <polygon class="fil38" points="7.11,40.59 6.95,40.38 "/>
   <polygon class="fil13" points="41.59,6.69 41.36,6.59 "/>
   <polygon class="fil3" points="24.95,6.72 24.73,6.83 "/>
   <polygon class="fil3" points="24.55,6.85 24.34,6.96 "/>
   <polygon class="fil15" points="26.18,41.01 26.05,40.86 "/>
   <polygon class="fil40" points="42.35,6.95 42.14,6.84 "/>
   <polygon class="fil22" points="26.31,41.14 26.18,41.01 "/>
   <polygon class="fil23" points="59.18,40.95 59.07,41.17 "/>
   <polygon class="fil5" points="26.44,41.29 26.31,41.14 "/>
   <polygon class="fil8" points="42.72,7.08 42.53,6.97 "/>
   <polygon class="fil14" points="27.34,42.04 27.2,41.9 "/>
   <polygon class="fil8" points="23.49,7.23 23.31,7.34 "/>
   <polygon class="fil36" points="7.73,42.46 7.62,42.27 "/>
   <polygon class="fil4" points="49.64,42.65 49.8,42.31 "/>
   <polygon class="fil3" points="58.67,42.39 58.55,42.58 "/>
   <polygon class="fil21" points="28.11,42.71 27.98,42.54 "/>
   <polygon class="fil34" points="7.99,43.1 7.87,42.92 "/>
   <polygon class="fil19" points="28.63,43.1 28.49,42.94 "/>
   <polygon class="fil22" points="49.52,43.2 49.66,42.95 "/>
   <polygon class="fil32" points="47.47,9.42 47.33,9.28 "/>
   <polygon class="fil28" points="29.15,43.48 29.01,43.32 "/>
   <polygon class="fil13" points="49.01,10.46 48.88,10.3 "/>
   <polygon class="fil19" points="49.51,43.42 49.41,43.65 "/>
   <polygon class="fil13" points="17.03,10.69 16.89,10.84 "/>
   <polygon class="fil13" points="16.5,11.07 16.37,11.23 "/>
   <polygon class="fil13" points="50.04,11.23 49.91,11.07 "/>
   <polygon class="fil15" points="49.39,43.82 49.28,44.04 "/>
   <polygon class="fil35" points="8.51,44.25 8.39,44.09 "/>
   <polygon class="fil7" points="30.3,44.25 30.16,44.1 "/>
   <polygon class="fil24" points="15.99,11.46 15.86,11.63 "/>
   <polygon class="fil8" points="50.68,11.76 50.55,11.59 "/>
   <polygon class="fil34" points="15.22,12.1 15.09,12.27 "/>
   <polygon class="fil31" points="51.59,12.51 51.46,12.36 "/>
   <polygon class="fil35" points="51.72,12.64 51.59,12.51 "/>
   <polygon class="fil38" points="54.44,15.48 54.27,15.35 "/>
   <polygon class="fil18" points="11.63,15.87 11.47,16 "/>
   <polygon class="fil32" points="54.96,16.12 54.8,15.99 "/>
   <polygon class="fil35" points="11.24,16.38 11.08,16.51 "/>
   <polygon class="fil37" points="10.85,16.89 10.69,17.03 "/>
   <polygon class="fil34" points="55.73,17.16 55.57,17.02 "/>
   <polygon class="fil8" points="10.59,17.27 10.43,17.41 "/>
   <polygon class="fil28" points="20.95,17.55 20.7,17.65 "/>
   <polygon class="fil4" points="48.76,45.13 48.62,45.27 "/>
   <polygon class="fil26" points="20.52,17.67 20.35,17.79 "/>
   <polygon class="fil14" points="48.62,45.27 48.47,45.4 "/>
   <polygon class="fil19" points="19.99,17.91 19.85,18.06 "/>
   <polygon class="fil9" points="10.07,18.05 9.92,18.19 "/>
   <polygon class="fil27" points="24.65,18.31 24.5,18.18 "/>
   <polygon class="fil28" points="32.9,45.65 32.74,45.53 "/>
   <polygon class="fil15" points="18.84,19.08 18.7,19.21 "/>
   <polygon class="fil41" points="18.7,19.21 18.56,19.35 "/>
   <polygon class="fil21" points="47.85,46.02 47.72,46.19 "/>
   <polygon class="fil35" points="9.29,19.34 9.15,19.48 "/>
   <polygon class="fil29" points="25.4,20.01 25.28,19.83 "/>
   <polygon class="fil25" points="26.05,21.56 25.93,21.38 "/>
   <polygon class="fil25" points="34.98,46.55 34.79,46.44 "/>
   <polygon class="fil22" points="17.02,22.15 16.91,22.36 "/>
   <polygon class="fil35" points="7.86,22.28 7.75,22.47 "/>
   <polygon class="fil33" points="16.88,22.53 16.78,22.76 "/>
   <polygon class="fil28" points="26.69,23.11 26.57,22.93 "/>
   <polygon class="fil20" points="16.63,23.22 16.78,22.97 "/>
   <polygon class="fil8" points="58.93,23.24 58.82,23.04 "/>
   <polygon class="fil20" points="36.67,47.19 36.47,47.08 "/>
   <polygon class="fil21" points="37.04,47.32 36.84,47.22 "/>
   <polygon class="fil8" points="7.47,23.3 7.36,23.51 "/>
   <polygon class="fil40" points="7.34,23.68 7.23,23.89 "/>
   <polygon class="fil17" points="7.2,24.06 7.1,24.28 "/>
   <polygon class="fil28" points="45.04,47.73 44.85,47.84 "/>
   <polygon class="fil20" points="38.94,47.99 38.71,47.84 "/>
   <polygon class="fil15" points="44.68,47.87 44.47,47.97 "/>
   <polygon class="fil34" points="55.85,47.84 55.7,47.98 "/>
   <polygon class="fil25" points="39.48,48.11 39.19,47.97 "/>
   <polygon class="fil27" points="44.3,47.99 44.05,48.09 "/>
   <polygon class="fil33" points="40.16,48.23 39.81,48.11 "/>
   <polygon class="fil38" points="59.34,24.35 59.18,24.15 "/>
   <polygon class="fil5" points="43.82,48.09 43.43,48.24 "/>
   <polygon class="fil8" points="10.69,48.18 10.59,48.42 "/>
   <polygon class="fil24" points="7.08,24.46 6.98,24.68 "/>
   <polygon class="fil3" points="55.59,48.23 55.44,48.36 "/>
   <polygon class="fil36" points="10.44,48.87 10.59,48.64 "/>
   <polygon class="fil37" points="10.44,49.09 10.34,49.33 "/>
   <polygon class="fil18" points="10.18,49.79 10.33,49.56 "/>
   <polygon class="fil24" points="54.44,49.78 54.27,49.91 "/>
   <polygon class="fil8" points="10.05,50.28 10.2,50.05 "/>
   <polygon class="fil36" points="10.05,50.5 9.95,50.74 "/>
   <polygon class="fil13" points="59.45,24.79 59.34,24.57 "/>
   <polygon class="fil8" points="6.82,25.13 6.98,24.91 "/>
   <polygon class="fil37" points="9.79,51.2 9.94,50.97 "/>
   <polygon class="fil40" points="9.66,51.69 9.81,51.46 "/>
   <polygon class="fil9" points="9.66,51.91 9.56,52.16 "/>
   <polygon class="fil36" points="9.41,52.61 9.56,52.38 "/>
   <polygon class="fil3" points="9.4,52.82 9.3,53.07 "/>
   <polygon class="fil34" points="51.07,53.24 50.94,53.41 "/>
   <polygon class="fil18" points="9.15,53.53 9.3,53.3 "/>
   <polygon class="fil9" points="9.02,54.02 9.17,53.79 "/>
   <polygon class="fil8" points="50.3,53.89 50.17,54.05 "/>
   <polygon class="fil38" points="9.01,54.24 8.91,54.48 "/>
   <polygon class="fil23" points="49.65,54.4 49.52,54.56 "/>
   <polygon class="fil37" points="8.76,54.94 8.91,54.71 "/>
   <polygon class="fil24" points="48.75,55.05 48.61,55.21 "/>
   <polygon class="fil40" points="8.63,55.43 8.78,55.2 "/>
   <polygon class="fil8" points="48.37,55.32 48.23,55.46 "/>
   <polygon class="fil34" points="18.12,55.47 17.86,55.57 "/>
   <polygon class="fil24" points="17.65,55.57 17.4,55.72 "/>
   <polygon class="fil24" points="47.98,55.57 47.84,55.72 "/>
   <polygon class="fil9" points="8.63,55.65 8.53,55.9 "/>
   <polygon class="fil24" points="17.13,55.7 16.89,55.85 "/>
   <polygon class="fil8" points="16.63,55.83 16.39,55.98 "/>
   <polygon class="fil24" points="59.56,25.21 59.47,24.97 "/>
   <polygon class="fil8" points="16.12,55.96 15.87,56.11 "/>
   <polygon class="fil30" points="6.69,25.64 6.84,25.39 "/>
   <polygon class="fil30" points="15.62,56.09 15.38,56.24 "/>
   <polygon class="fil24" points="56.11,47.45 55.96,47.59 "/>
   <polygon class="fil38" points="15.15,56.24 14.9,56.34 "/>
   <polygon class="fil18" points="59.72,25.67 59.57,25.44 "/>
   <polygon class="fil31" points="14.67,56.34 14.43,56.49 "/>
   <polygon class="fil34" points="6.69,25.86 6.59,26.11 "/>
   <polygon class="fil23" points="14.16,56.47 13.91,56.62 "/>
   <polygon class="fil24" points="59.84,26.2 59.7,25.93 "/>
   <polygon class="fil9" points="13.66,56.61 13.41,56.75 "/>
   <polygon class="fil6" points="8.24,56.84 8.39,56.61 "/>
   <polygon class="fil8" points="13.15,56.74 12.91,56.88 "/>
   <polygon class="fil40" points="12.64,56.86 12.39,57.01 "/>
   <polygon class="fil6" points="12.14,57 11.89,57.15 "/>
   <polygon class="fil32" points="8.24,57.07 8.14,57.31 "/>
   <polygon class="fil31" points="11.7,57.12 11.46,57.27 "/>
   <polygon class="fil18" points="11.19,57.25 10.94,57.39 "/>
   <polygon class="fil3" points="10.68,57.38 10.44,57.53 "/>
   <polygon class="fil9" points="6.44,26.71 6.58,26.42 "/>
   <polygon class="fil9" points="59.99,26.78 59.81,26.49 "/>
   <polygon class="fil8" points="10.18,57.51 9.94,57.66 "/>
   <polygon class="fil5" points="16.63,26.98 16.52,26.64 "/>
   <polygon class="fil9" points="7.98,57.76 8.14,57.53 "/>
   <polygon class="fil8" points="9.67,57.64 9.43,57.79 "/>
   <polygon class="fil13" points="9.16,57.77 8.92,57.92 "/>
   <polygon class="fil32" points="22.98,57.9 22.79,57.78 "/>
   <polygon class="fil8" points="43.75,57.78 43.57,57.9 "/>
   <polygon class="fil31" points="8.73,57.89 8.5,58.04 "/>
   <polygon class="fil6" points="6.32,27.36 6.44,27.04 "/>
   <polygon class="fil35" points="23.63,58.16 23.44,58.04 "/>
   <polygon class="fil24" points="43.1,58.04 42.91,58.15 "/>
   <polygon class="fil13" points="24.01,58.29 23.81,58.18 "/>
   <polygon class="fil6" points="42.74,58.18 42.53,58.29 "/>
   <polygon class="fil29" points="16.79,27.56 16.61,27.26 "/>
   <polygon class="fil8" points="25.19,58.67 24.96,58.57 "/>
   <polygon class="fil3" points="41.62,58.53 41.4,58.69 "/>
   <polygon class="fil23" points="25.6,58.79 25.37,58.69 "/>
   <polygon class="fil34" points="41.19,58.69 40.96,58.79 "/>
   <polygon class="fil36" points="26.05,58.94 25.81,58.79 "/>
   <polygon class="fil37" points="40.74,58.8 40.49,58.94 "/>
   <polygon class="fil24" points="26.58,59.07 26.32,58.93 "/>
   <polygon class="fil8" points="40.23,58.93 39.99,59.08 "/>
   <polygon class="fil36" points="27.09,59.2 26.83,59.06 "/>
   <polygon class="fil24" points="39.72,59.06 39.44,59.2 "/>
   <polygon class="fil23" points="27.72,59.34 27.39,59.18 "/>
   <polygon class="fil18" points="29.08,59.57 28.73,59.46 "/>
   <polygon class="fil37" points="30.09,59.71 29.64,59.58 "/>
   <polygon class="fil32" points="60.12,27.43 59.95,27.1 "/>
   <polygon class="fil38" points="6.2,28.03 6.32,27.7 "/>
   <polygon class="fil38" points="8.37,56.35 8.52,56.12 "/>
  </g>
 </g>
</svg>
