<?xml version="1.0" encoding="UTF-8"?>
<!DOCTYPE svg PUBLIC "-//W3C//DTD SVG 1.1//EN" "http://www.w3.org/Graphics/SVG/1.1/DTD/svg11.dtd">
<!-- Creator: CorelDRAW 2019 (64-Bit) -->
<svg xmlns="http://www.w3.org/2000/svg" xml:space="preserve" width="3.4713mm" height="3.4713mm" version="1.1" style="shape-rendering:geometricPrecision; text-rendering:geometricPrecision; image-rendering:optimizeQuality; fill-rule:evenodd; clip-rule:evenodd"
viewBox="0 0 13.06 13.06"
 xmlns:xlink="http://www.w3.org/1999/xlink">
 <defs>
  <style type="text/css">
   <![CDATA[
    .fil1 {fill:none}
    .fil0 {fill:#E43834}
   ]]>
  </style>
 </defs>
 <g id="Capa_x0020_1">
  <metadata id="CorelCorpID_0Corel-Layer"/>
  <path class="fil0" d="M5.12 8.43c0,-0.48 -0.05,-3.65 0.02,-3.83l2.46 1.44c0.12,0.08 0.77,0.43 0.82,0.5 -0.11,0.03 -0.89,0.5 -1.03,0.58 -0.08,0.05 -0.13,0.07 -0.21,0.12l-2.07 1.19zm7.64 -1.72l0 0.28c-0,0.7 -0.12,2.06 -0.26,2.63 -0.05,0.23 -0.19,0.46 -0.33,0.64 -0.63,0.78 -1.79,0.58 -2.56,0.7 -0.38,0.06 -1.06,0.02 -1.25,0.05 -0.21,0.03 -1,0.02 -1.28,0.02 -0.24,-0 -0.39,0.03 -0.62,0.02 -0.93,-0 -1.94,-0.02 -2.86,-0.07 -0.1,-0.01 -0.22,0.01 -0.32,0 -0.43,-0.02 -1.42,-0.11 -1.76,-0.18 -0.69,-0.14 -1.14,-0.65 -1.26,-1.35 -0.12,-0.66 -0.23,-1.64 -0.23,-2.31l0 -1.27c0.01,-0.82 0.13,-1.62 0.24,-2.32 0.11,-0.7 0.64,-1.18 1.3,-1.31 0.57,-0.11 2.45,-0.23 3.04,-0.22l1.92 -0.02c0.25,0 0.4,0.03 0.65,0.03l1.91 0.04c0.52,0.08 1.77,0.02 2.36,0.23 0.75,0.26 1.04,0.76 1.14,1.47 0.17,1.26 0.2,1.79 0.2,2.96z"/>
  <rect class="fil1" y="-0" width="13.06" height="13.06"/>
 </g>
</svg>
