<?xml version="1.0" encoding="UTF-8"?>
<!DOCTYPE svg PUBLIC "-//W3C//DTD SVG 1.1//EN" "http://www.w3.org/Graphics/SVG/1.1/DTD/svg11.dtd">
<!-- Creator: CorelDRAW 2019 (64-Bit) -->
<svg xmlns="http://www.w3.org/2000/svg" xml:space="preserve" width="105.78mm" height="45.0426mm" version="1.1" style="shape-rendering:geometricPrecision; text-rendering:geometricPrecision; image-rendering:optimizeQuality; fill-rule:evenodd; clip-rule:evenodd"
viewBox="0 0 10572.68 4501.99"
 xmlns:xlink="http://www.w3.org/1999/xlink">
 <defs>
  <style type="text/css">
   <![CDATA[
    .fil0 {fill:#FEFEFE}
   ]]>
  </style>
 </defs>
 <g id="Capa_x0020_1">
  <metadata id="CorelCorpID_0Corel-Layer"/>
  <path class="fil0" d="M4891.28 1700.94c-2.97,35.65 -20.55,36.98 -62.81,106.44l-140.41 206.56c-29.19,43.42 -47.92,66.16 -33.73,127.05 67.47,0 66.21,-1.71 110.31,-25.08 123.28,-65.33 154.64,-191.37 211.25,-211.86 -5.65,67.94 -87.26,141.53 -124.99,179.66 -119.82,121.1 -86.22,120.46 -247,218.43 -51.49,31.37 -24.45,29.95 -98.24,62.54 -25.16,11.11 -25.09,14.54 -48.78,27.4 -69.36,37.63 -117.76,40.63 -132.6,104.34 52.56,78.5 172.78,42.32 245.41,59.24 -4.15,49.88 -42.48,82.13 -16.92,135.4 65.57,31.45 145.22,1.66 220.02,0 -11.88,44.51 -71.31,65.78 -33.84,143.86 68.26,32.75 177.77,-10 219.77,-34.1 36.85,-21.14 105.45,-52.65 129.02,-74.07 23.88,-21.69 11.57,-24.12 48.94,-27.23 -21.05,39.78 -38.38,83.69 -62.69,123.49 -23.4,38.3 -61.23,74.6 -30.39,138.85 61.3,61.3 272.16,-92.35 298.44,-116.21 45.8,-41.58 47.4,-40.66 90.82,-61.5 14.38,172.77 228.92,360.96 276.95,82.32 7.78,-45.11 2.02,-46.44 19.24,-82.32 44.45,11.87 59.74,55.84 96.72,80.99 62.72,42.66 102.4,85.26 174.55,89.27 47.26,2.63 55.39,4.72 59.85,-34.21 9.51,-83.08 -30.1,-86.38 -34.94,-144.51 27.8,6.48 258.66,174.66 259.9,24.64 0.27,-32.13 -23.98,-68.86 -31.41,-100.8 45.15,3.76 96.06,35.46 152.32,8.47 20.76,-43.26 -35.15,-89.83 2.58,-124.13 18.31,-16.64 43.21,-6.91 71.69,-13.15 28.21,-6.19 29.62,-18.64 44.2,-40.43 -17.16,-73.7 -107.15,-98.31 -174.07,-147.5l-98.11 -62.67c-145.06,-117.57 -128.39,-107.41 -241.61,-257.68 -45.38,-60.21 -95.46,-144.83 -112.42,-217.61 26.26,9.51 39.49,34.23 60.89,66.05 12.48,18.56 12.29,17.32 25.64,33.6l63.1 63.84c19.91,16.06 108.12,92.74 121.57,22.53 13.19,-68.91 -73.2,-168.53 -106.03,-275.02l-46.7 -88.71c44.24,16.01 69.3,86.78 99.43,120.6l300.82 249.23c38.96,21.41 42.91,19.44 99.04,19.44 0,-91.33 -36.79,-105.93 -108.33,-213.25 -41.36,-62.04 -131.23,-167.84 -137.09,-192.94 92.97,62.25 211.9,259.95 346.97,228.48 10.22,-43.92 12.97,-62.11 -5.67,-104.34 -27.29,-61.82 -37.63,-45.7 -28.19,-90.3 17.54,0 33.48,0.09 51.01,-1.01 2.67,-0.17 21.31,-1.86 21.47,-1.87l16 1.58c24.51,3.54 19.8,10.22 32.85,23.83l261.71 246.04c77.73,78.13 185.56,159.47 236.93,211.57l297.4 261.12c145.86,109.62 215.66,183.54 382.5,294.49l397.58 270.96c25.38,16.66 42.81,27.5 70.1,39.9 27.73,12.58 51.32,22.75 78.88,39.59l148.11 71.92c39.53,16.79 136.94,52.06 180.3,31.26 27.8,-57.94 -37.53,-87.84 -69.73,-116.44 -47.76,-42.43 -318.58,-271.5 -336.46,-298.22l15.53 -18.32c10.66,-10.64 6.76,-7.8 18.31,-15.53 30.88,8.25 59.8,40.84 82.65,61.22 43.93,39.17 220.14,202.98 264.32,158.81 54.75,-54.76 -75.57,-159.54 -114.91,-189.74 -19.7,-15.13 -49.16,-36.34 -50.15,-57.04 -2.11,-43.53 3.29,-5.67 48.1,25.11 31.5,21.63 33.25,26.91 60.26,49.9 40.14,34.18 83.96,78.68 141.33,78.68 35.74,-67.54 -7.15,-90.69 -55.9,-164.12 -49.33,-74.29 -107.21,-126.01 -113.34,-148.98 45.35,30.36 82.54,76.27 117.21,119.73 68.43,85.77 160.67,163.3 229.67,252.68 36.03,46.68 77.65,81.73 124.52,120.9l288.95 311.87c62.36,78.16 350.52,361.36 422.34,432.36l469.32 495.39c38.41,43.34 90.42,74.42 125.13,120.29 19.11,25.25 32.9,36.03 54.22,64.25 22.94,30.37 33.55,44.74 81.14,45.8 48.65,-101.4 -67.46,-207.66 -133.3,-272.89 -29.96,-29.69 -43.96,-52.5 -71.74,-80.58 -101.05,-102.09 -228.88,-238.08 -318.37,-350.16 -12.96,-16.24 -22.53,-23.5 -37.37,-38.78 -18.26,-18.81 -18.41,-23.37 -34.08,-42.09l-427.03 -478.44c-13.31,-15.11 -23.96,-23.25 -38.18,-37.98 -106.06,-109.82 -206.98,-238.13 -304.86,-355.21 -12.45,-14.88 -23.66,-24.69 -37.57,-38.59 -77.27,-77.21 -69.39,-61.9 -147.38,-157.28 -23.93,-29.27 -40.73,-56.94 -63.91,-88.41 -31.13,-42.26 -35.58,-38.73 -72.4,-71.45 -34.07,-30.27 -49.7,-33.99 -77.57,-74.76 -66.63,-97.48 -107.41,-123.89 -171.62,-200.71l-513.93 -611.57c-45.31,-58.03 -88.16,-106.46 -133.01,-163.18 -20.28,-25.65 -41.16,-63.35 -59.55,-92.77 -62.61,-100.18 -323.38,-442.42 -389.84,-507.17 -43.97,-42.84 -58.03,-85.59 -102.58,-125.91 -72.51,-65.65 -251.24,-361.99 -278.01,-390.51 -99.31,-105.83 -167.05,-109.72 -325.8,-122.8 -63.68,-5.25 -196.49,5.46 -247.97,44.39 -52.6,39.77 -23.18,27.22 -93.9,49.95 -119.08,38.29 -171.83,104.69 -377.86,75.41 -51.08,-7.27 -161.38,-60.78 -181.35,-114.83 -11.92,-32.26 -7.36,-99.5 -1.43,-141.11 3.95,-27.75 1.63,-44.18 -3.71,-65.1 -10.6,-41.6 -7.05,-19.77 -26.93,-49.46 -134.84,0 -172.16,9.28 -258.8,62.77 -162.79,100.51 -169.54,195.2 -257.43,233.38 -99.35,43.17 -163.64,65.42 -271.99,43.57 -79.97,-16.13 -55.59,-49.73 -216.4,-113.63 -131.84,-52.39 -250.24,-93.98 -413.69,-70.39 -196.75,28.4 -241.87,94.21 -374.47,200.97 -20.49,16.49 -25.82,18.75 -45.79,38.83l-325.85 325.76c-18.34,18.53 -19.54,22.82 -34.54,41.63l-197.14 217.52c-48.59,60.36 -112.77,109.18 -159.54,170.48l-86.66 82.6c-144.6,128.49 -270.43,278.41 -418.59,402.26 -85.51,71.47 -160.9,175.76 -246.66,244.18 -62.85,50.14 -115.61,100.4 -172.62,157.41 -90.92,90.92 -259.08,236.91 -333.77,326.3l-427.67 393.17c-110.09,109.12 -246.19,193.92 -355.71,304.36 -84.68,85.4 -344.88,301.72 -442.7,378.16 -18.83,14.71 -22.91,21.77 -39.95,36.2l-225.97 188.69c-29.39,22.7 -61.2,51.92 -91.19,78.06 -103.05,89.79 -212.99,169.94 -312.98,262.46 -15.96,14.76 -26.62,26.72 -42.17,42.46 -28.74,29.1 -53.86,49.44 -88.58,72.2 -28.82,18.9 -44.22,42.57 -48.98,63.89l0 27.41c7.84,30.4 43.67,43.95 93.43,3.96 23.96,-19.25 44.55,-36.26 69.98,-56.97l347.89 -278.32c28.13,-21.95 45.98,-31.81 70.64,-56.29 93.56,-92.87 232.52,-201.56 340.5,-285.72 59.02,-46 164.05,-116.9 213.75,-167.07 97.63,-98.52 357.37,-310.1 476.46,-403.63 25.61,-20.11 47.28,-35.77 69.28,-57.65 80.66,-80.24 272.33,-229.23 371.89,-313.57 14.9,-12.62 20.3,-20.58 35.13,-32.56 38.83,-31.36 99.89,-98.23 145.11,-108.77 6.69,25.04 3.45,13.71 16.92,33.85 112.63,0 120.19,-51.54 245.42,-135.4 -7.65,28.65 -37.48,57.21 -57.1,78.29l-61.62 73.79c-74.35,101.76 -11.48,116.26 81.38,64.46 59.27,-33.06 109.38,-69.31 161.8,-109.01 102.8,-77.85 213.08,-146.61 312.94,-228.65 73.57,-60.46 164.41,-108.44 233,-173.19 40.28,-38.01 101.15,-58.36 156.84,-113.96 24.79,-24.75 48.85,-48.34 86.7,-57.16l-106.05 113.97c-33.94,30.91 -82.94,85.92 -88.67,132.91 -9.28,76.02 38.52,53.14 84.7,49.31l0 25.39c-84.2,7.01 -243.2,210.91 -281.61,243.06 -40.89,34.22 -65.35,38.32 -65.35,112.36 113.82,54.61 225.17,-71.07 311.33,-128.72 34.33,-22.97 62.17,-41.3 96.67,-64.11 34.56,-22.85 55.2,-45.22 88.61,-72.18l278.51 -203.85c29.4,-22.3 52.82,-45.29 83.27,-69.06 32.73,-25.56 56.8,-47.54 88.31,-72.48l357.85 -285.3c61.54,-49.67 97.77,-106.69 167.92,-153.65 -5.81,69.74 -78.91,123.48 -111.97,175.76 -101.54,160.6 65.96,108.53 184.69,15.42l87.75 -64.57c65.03,-36.67 104.16,-92 169.57,-126.62 -7.47,27.98 -28.5,48.4 -45.88,72.59 -96.85,134.83 -218.74,232.1 -285.42,315.41 -31.63,39.53 -99.26,93.65 -66.44,162.05 24.22,11.62 68.42,15.41 87.06,11.03 28.58,-6.72 50.94,-30.33 72.41,-46.19 24.3,-17.94 46.22,-31.85 69.19,-49.3l246.67 -218.77c22.6,-28.97 21.12,-50.86 57.81,-60.66z"/>
 </g>
</svg>
