<?xml version="1.0" encoding="UTF-8"?>
<!DOCTYPE svg PUBLIC "-//W3C//DTD SVG 1.1//EN" "http://www.w3.org/Graphics/SVG/1.1/DTD/svg11.dtd">
<!-- Creator: CorelDRAW 2019 (64-Bit) -->
<svg xmlns="http://www.w3.org/2000/svg" xml:space="preserve" width="52.2024mm" height="52.3769mm" version="1.1" style="shape-rendering:geometricPrecision; text-rendering:geometricPrecision; image-rendering:optimizeQuality; fill-rule:evenodd; clip-rule:evenodd"
viewBox="0 0 7526.54 7551.7"
 xmlns:xlink="http://www.w3.org/1999/xlink">
 <defs>
  <style type="text/css">
   <![CDATA[
    .fil2 {fill:#9C1B0C}
    .fil1 {fill:#B51A0A}
    .fil0 {fill:#F07602}
   ]]>
  </style>
 </defs>
 <g id="Capa_x0020_1">
  <metadata id="CorelCorpID_0Corel-Layer"/>
  <g id="_836662208">
   <path class="fil0" d="M-0 3786.53c0,475 73.68,932.21 245.19,1362.39 25.61,64.22 45.78,103.12 72.52,161.05 103.55,224.24 211.43,458.41 361.1,655.64 20.6,27.15 31.49,34.08 51.44,58.48l616.27 647.8c33.49,29.44 21.28,25.04 51.53,58.38 109.72,120.94 404.63,284.77 555.37,365.21 54.62,29.15 95.55,51.36 153.35,80.22 129.29,64.55 254.77,125.91 392.1,171.24 113.73,37.54 242.44,82.9 363.18,103.97l288.13 55.37c330.32,46.34 654.55,58.31 985.18,30.9 188.92,-15.67 407.78,-48.75 586.42,-100.55 430.36,-124.83 730.47,-263.56 1113.62,-493.96l261.98 -191.43c77.06,-77.27 175.05,-136.45 242.51,-224.65 113.41,-148.22 338.97,-316.19 533.02,-607.39 31.73,-47.59 53.74,-85.48 83.75,-136.09l239.43 -461.29c21.27,-55.52 50.84,-97.13 70.53,-149.31 113.24,-300 189.06,-608.3 224.04,-930.12l35.09 -308.55c4.22,-50.59 -10.06,-53.69 -10.06,-106.09 0,-86.81 19.13,-126.46 6,-211.73 -31.55,-204.91 -32.73,-351.67 -82.41,-632.42 -22.84,-129.07 -59.99,-253.43 -98.49,-368.68 -19.59,-58.65 -37.66,-121.44 -59.11,-174.46 -88.4,-218.46 -189.11,-434.47 -314.17,-633.86 -31.78,-50.65 -66.7,-97.31 -96.87,-150.47l-429.76 -518.3c-44.58,-51.56 -73.63,-60.2 -124.6,-108.96 -103.3,-98.85 -47.23,-98.39 -237.74,-229.42l-428.82 -285.66c-252.62,-151.85 -532.77,-289.83 -821.49,-360.12 -77.31,-18.82 -111.31,-41.81 -191.79,-55.52 -75.77,-12.92 -120.79,-30.22 -190.45,-43.14 -131.16,-24.31 -398.46,-64.95 -522.12,-52.81 -186.7,18.33 -394.87,-14.63 -577.61,13.34 -329,50.36 -640.69,117.22 -947.64,233.98 -37.78,14.37 -58.25,18.58 -89.52,34.14l-535.89 288.5c-188.8,113.01 -386.85,246.74 -540.27,407.78l-85.83 92.78c-10.8,11.79 -18.77,23.76 -31.03,37.67 -189.64,215.17 -235.42,188.49 -440.18,507.87 -126.34,197.08 -256.58,386.07 -344.16,603.88 -26.44,65.76 -51.18,91.96 -74.58,158.99 -22.98,65.79 -33.74,108.64 -58.8,174.79 -143.68,379.29 -198.35,800.69 -198.35,1230.59z"/>
   <path class="fil1" d="M3181.68 3566.7c107.83,49.48 324.48,-13.31 418.34,54.89l-8.64 1394.21c-54.11,-10.51 -179.07,-223.09 -212.1,-266.14l-620.03 -837.41c-24.24,-24.47 14.76,0.98 -25.02,-19.81 -79.92,48.7 -276.77,314 -349.38,410.68l-396.97 510.44c-35.74,42.07 -39.53,41.35 -68,82.6l-132.3 170.44c-28.66,35.92 -97.9,142.94 -138.8,153.39 -44.05,-67.26 -80.22,-139.87 -111.74,-221.2 -19.42,-50.09 -77.45,-211.25 -121.85,-234.58 -14.22,22.1 -38.4,178.99 -88.56,282.25 -39.62,81.56 -122.25,140.86 -198.09,183.54 -289.27,162.82 -423.77,-22.43 -578.51,-69.41 30.34,160.03 146.73,337.37 220.55,477.31 21.31,40.41 20.72,54.9 45.42,93.52 30.16,47.16 77.55,120.06 108.05,165.13 107.75,-3.78 124.3,-100.19 202.6,-164.12 47.52,49.51 27.09,96.96 81.68,143.82 48.29,41.45 102.64,57.15 156.41,12.5 53.55,-73.11 -190.79,-486.15 160.34,-520.62 193.88,-19.05 450.5,158.4 435.45,352.28 -58.55,15.82 -120.79,33.05 -188.1,15.56 -61.38,-142.87 -151.36,-188.03 -178.68,-104.34 -2.45,7.53 -24.61,-6.27 22.52,188.57 19.39,80.21 -10.77,161.6 7.54,230.04 74.09,-7.06 30.87,-18.43 98.35,-59.07 96.93,-58.38 197.11,-158.5 297.59,-206.31 50.77,20.37 49.04,29.24 80.74,64.58 66.45,74.07 172.35,119.9 235.94,176.88 32.34,28.97 136.02,77.18 151.2,118.39 30.19,81.87 21.86,164.94 67.98,232.16 103.92,-21.43 179.78,-145.68 265.33,-120.78l289.63 106.09c4.95,74.38 -50.98,191.8 -22.49,259.42 47.48,27.73 172.04,48.72 236.95,45.32 37.01,-57.27 3.32,-202.77 53.48,-244.44 52.09,-17.89 281.87,11.03 345.97,29.54 66.8,125.74 -48.18,555.55 164.19,570.9 243.52,17.58 111.44,-431.18 157.24,-591.71 133.15,-44.08 339.62,-61.22 482.34,-107.39 65.54,-21.19 79.34,-44.29 156.68,-45.81l39.64 122.54c23.13,-20.43 29.87,-52.47 44.87,-99.28 14.52,-45.4 30.45,-71.18 58.32,-90.86 37.23,-26.28 135.96,-79.05 183.77,-104.07 40.59,-21.25 56.94,-26.82 88.81,-48.88 68.36,-47.28 194.12,-149.83 258.18,-171.69 125.9,73.2 210.68,238.46 319.73,329.83 110.43,92.52 252.3,-13.13 213.52,-157.5 -14.1,-52.5 -153.45,-191.15 -198.45,-242.87 -121.66,-139.83 -132.03,-93.66 -2.75,-240.51l106.16 -128.08c58.87,-68.92 120.94,-211.69 218.72,-237.58 44.98,38.34 22.23,38.71 84.49,72.08 -23.27,71.24 -96.54,143.7 -156.72,185.47 3.46,76.91 30.26,107.67 104.03,131.75 37.33,-46.89 137.74,-177.14 190.63,-189.18 26.63,18.53 91.14,82.44 104.27,108.6 -57.83,78.17 -114.21,130.47 -164.71,219.85 27.93,36.69 48.42,57.24 87.91,83.96 90.73,-32.83 110.08,-138.24 192.37,-192.47 74.83,23.75 87.2,91.09 151.14,114.94 67.16,-35.44 190.2,-312.64 217.57,-381.89 26.47,-66.99 21.68,-35.53 55.75,-94.31 43.76,-75.55 123.5,-263.76 108.18,-333.4 -9.01,-2.64 -9.54,-8.09 -32.3,-1.11 -68.13,20.91 -162.51,260.65 -451.64,189.73 -295.04,-72.38 -244.11,-286.44 -323.5,-397.55 -42.73,25.66 -14.26,-9.93 -42.42,50.79 -50.97,109.91 -126.82,369.42 -218.65,420.66 -45.34,-37.99 -37.86,-33.07 -68.64,-77.28l-203.78 -249.34c-1.73,-2.26 -4.24,-5.45 -6.01,-7.67l-423.73 -510.5c-24.09,-35.48 -42.04,-48.89 -67.74,-83.78 -35.8,-48.6 -340.31,-405.04 -384.24,-424.52 -43.95,31.32 -42.4,37.57 -65.44,71.01 -26.26,38.09 -37.88,44.61 -61.71,74.63l-743.49 1066.56c-23.18,-103.9 14.82,-1264.75 18.44,-1442.23 64.2,-12.66 121.1,-5.55 179.59,-7.96 84.46,-3.49 78.26,-24.94 118.85,-71.12 58.74,-66.83 165.04,-121.63 166.5,-213.13 -128.75,-32.08 -343.68,5.61 -459.39,-19.57l7.06 -473.78c-48.1,2.52 -224.43,157.69 -260.82,201.48 -68.93,82.93 -45.1,105.22 -56,221.81 -13.22,141.41 -129.72,-25.92 -255.91,111.68 -33.03,36.03 -52.84,57.17 -89.02,89.8 -36.98,33.38 -78.33,57.56 -84.71,113.69z"/>
   <path class="fil1" d="M4061.13 549.59l-168.59 -20.55c-35.74,118.07 11.36,437.47 -13.37,585.05 -46.73,17.53 -176.2,32.63 -227.79,11.79l-33.84 -621.82c-50.82,-24.6 -116.12,-23.76 -168.85,-6.06 -59.6,83.18 24.35,524.05 25.03,664.89l-175.6 30.6c-63.97,-58.02 -295.44,-297.62 -350.18,-298.67 -22.88,107.04 37,286.89 26.69,377.32 -21.5,10.32 -25.71,8.48 -43.28,15.59l-152.48 67.45c-165.69,64.92 -322.46,170.39 -469.8,259.78 -36.75,22.3 -47.69,42.11 -77.93,58.34 -89.74,-61.84 -179.53,-234.47 -277.39,-261.25 -12.59,88.6 77.34,307.87 104.23,409.69 -24.12,32.33 -65.86,77.5 -94.08,105.9 -116.68,-7.73 -224.03,-130.97 -341.01,-158.31 26.23,185.5 190.87,262.54 124.12,424.16l-166.46 -8.52c-37.7,39.02 -118.56,177.14 -137.68,227.59 23.53,39.78 53.35,76.72 84.01,109.92 -21.6,54.37 -86.59,207.52 -125.42,233.64 -93.85,-63.35 -127.63,-209.12 -243.1,-254.65 -4.12,52.96 -1.99,113.08 -12.3,154.96 -11.59,47.13 -31.94,82.6 -28.71,121.31l65.24 33.36c82.05,39.66 435.06,225.25 493.64,209.72 61.07,-28.16 -7.92,11.69 24.83,-18.17 146.44,-133.57 419.87,-489.89 535.46,-648.18 30.57,-41.84 157.11,-196.65 195.42,-214.91 100.59,61.46 261.3,233.95 357.23,268.79 45.98,-36.56 248.03,-300.1 303.67,-366.68l352.52 -457.37c26.04,-28.52 30.97,-44.55 61.2,-76.13 83.19,-86.87 156.52,-204.43 244.39,-290.26l1043.29 1263.75c20.89,28.22 25.26,27.65 44.45,51.53 30.93,38.47 36.91,52.34 74.61,90.92 41.93,42.94 30.44,59.49 101.72,88.61 84.76,-34.76 95.55,-96.25 178.61,-127.74l217.29 282.94c78.04,104.18 161.91,194.4 232.14,289.72 197.57,268.16 203.11,145.43 413.09,-33.61 34.17,-29.12 94.02,-105.68 140.56,-93.28l40.83 159.26c8.43,0.17 14.32,-2.87 16.48,1.41 16.62,32.89 201.41,-33.36 215.19,-38.31 -15.18,-46.54 -154.85,-99.76 -239.25,-223.36 -99.11,-145.15 -148.48,-314.66 -231.47,-468.63 -36.94,-68.5 -61.65,-81.65 -38.81,-174.14 23.13,-93.67 97.62,-302.45 89.77,-384.08 -119.37,12.01 -191.34,161.52 -306.22,200.64l-144.12 -152.85c-58.62,-54.92 -104.57,-91.29 -152.27,-142.71 12.02,-106.38 53.78,-111.28 -28.62,-197.57 -30,-31.43 -123.39,-103.12 -169.63,-121.9 -112.11,49.08 -103.22,102.67 -322.67,-92.74 18.3,-62.1 205.24,-169.54 272.31,-214.66l330.04 -246.48c20.31,-15.36 25.32,-22.13 45.98,-37.17 5.95,-4.33 33.59,-21.28 49.84,-31.72l51.01 -47.05c-32.3,-44.84 -132.59,-90.47 -184.2,-119.81 -215.51,-122.51 -420.52,-225.04 -681.91,-291.1 50.41,138.64 263.24,344.75 58.22,620.97 -137.76,185.59 -335.09,234.44 -566.28,158.53 -412.1,-135.3 -232.81,-582.76 -239.81,-637.72z"/>
   <path class="fil1" d="M2816.66 2703.91c-31.53,-9.69 -4.04,5.82 -35.35,-21.92 -3.36,-2.98 -18.24,-19.15 -19.82,-20.73l-103.87 -90.14c-66.06,-51.5 -88.69,-96.25 -170.69,-130.94 -46.79,28.36 -111.11,115.16 -158.71,171.16 -5.54,6.49 -18.58,23.54 -24.16,30.9 -44.71,58.9 -148.22,165.52 -173.25,223.72 49.48,64.71 45.21,57.5 101.32,90.73 66.09,39.16 49.31,59.78 126.79,68.99 26.05,-58.65 16.26,-47.29 60.7,-90.04 31.65,-30.45 45.86,-57.14 81.06,-72.06 117.94,75.64 316.66,243.04 377.32,250.18l335.88 -387.27c56.55,-58.93 37.56,-79.88 111.18,-137.72l223.61 191.56c45.13,42.48 32.24,47.09 100.29,62.92 45.3,-83.11 144.32,-162.72 206.58,-243.71 39.91,-51.9 164.68,-216.27 211.48,-236.97l169.09 179.69c77.91,-20.4 65.69,-49.37 115,-93.52 142.51,-127.56 117.95,-59.88 -148.91,-404.64l-423.73 -508.91c-64.74,39.88 -224.37,296.94 -361.16,433.53l-600.64 735.19z"/>
   <path class="fil0" d="M2218.9 5302.39l964.45 -3.55c-5.52,-30.19 -434.33,-613.07 -490.34,-636.17l-270.99 336.72c-11.52,15.85 -15.77,25.35 -27.22,41.58 -55.06,78.17 -148.82,189.21 -175.9,261.41z"/>
   <path class="fil0" d="M4367.56 5271.71l894.85 -15.74c7.4,-34.57 -211.96,-297.39 -250.07,-340.65 -15.61,-17.72 -15.2,-19.72 -30.15,-38.52 -19.06,-23.96 -16.47,-18.61 -30.49,-37.88l-170.23 -187.42c-64.94,41.86 -414.13,591.8 -413.91,620.22z"/>
   <path class="fil1" d="M412.27 4732.08l260.17 -23.11c22.52,122.06 70.09,249.71 194.59,259.45 141.01,11.02 238.7,-102.56 215.29,-248.09 -34.83,-216.63 -138.23,-169.4 -271.56,-188.77 -113.89,-16.54 -343.23,-49.87 -449.31,-39.06 5.64,93.57 39.4,158.3 50.82,239.58z"/>
   <path class="fil1" d="M2429.53 7015.4c51.9,43.89 224.59,105.54 289.43,94.5 24.87,-70.11 47.38,-223.21 71.99,-317.22 28.61,-109.23 68.67,-229.77 80.61,-339.63 -75.28,14.86 -78.62,30.52 -170.77,87.82 -46.28,28.78 -115.06,52.06 -143.57,104.36 -21.22,38.9 -125.8,329.52 -127.69,370.18z"/>
   <path class="fil1" d="M2010.56 6830.49l172.9 77.53c22.05,-27.6 119.81,-310.64 131.64,-355.48 15.66,-59.4 -47.67,-353.23 -89.25,-385.05 -48.75,47.35 -217.55,572.01 -215.29,663z"/>
   <path class="fil1" d="M5825.7 1708.72l338.12 -290.54c51.9,-36.52 89.49,-34.33 105.93,-125.29 -101.39,-43.47 -155.64,-166.35 -247.61,-208.64 -10.31,65.15 -84.22,217.84 -114,300.82l-82.76 235.11c-14.33,43.97 -15.47,59.13 0.33,88.54z"/>
   <path class="fil1" d="M4436.17 604.24c-251.32,69.78 -94.32,436.35 116.77,345.01 209.28,-90.56 129.47,-413.38 -116.77,-345.01z"/>
   <path class="fil1" d="M6525.31 4509.35c-200.97,103.8 -77.58,431.17 134.95,332.64 201.78,-93.54 74.87,-441 -134.95,-332.64z"/>
   <path class="fil2" d="M6751.35 3085.8l96.62 5.38c32.38,-6.43 57.61,-12.54 90.23,-17.84 58.84,-9.53 145.91,-12.46 194.27,-42.5l-139.08 -489.72c-36.79,33.38 -10.29,-6.82 -26.67,37.14 -10.4,27.91 -5.05,10.28 -8.54,40.3 -2.39,20.56 -0.06,56.53 -4.33,86.21 -6.04,41.97 -22.41,114.55 -40.2,150.48 -22.88,46.18 -59.2,89.2 -77.83,113.15 -3.82,4.92 -16.32,22.16 -17.47,23.57 -59.46,73.81 -50.13,23.65 -67,93.83z"/>
   <path class="fil1" d="M2980.92 7209.06c59.42,19.46 196.03,55.65 262.35,54.56l43.95 -293.12c-33.68,-10.01 -226.06,-51.2 -256.77,-31.36 -38.6,24.93 -54.01,217.57 -49.53,269.92z"/>
   <path class="fil2" d="M1777.83 914.91l242.47 219.8c87.66,61.69 128.8,109.4 190.2,123.37 -13.99,-85.07 -184.19,-427.29 -231.96,-467.46 -65.52,16.45 -161.29,81.82 -200.71,124.28z"/>
   <path class="fil2" d="M2481.4 708.8c-70.37,34.78 -149.1,56.82 -198.68,109.92 7.12,48.86 32.77,86 57.63,117.41 88.08,0.07 214.25,-70.19 277.29,-117.41l-57.53 -328.07c-217.67,-15.12 -69.32,132.78 -78.71,218.14z"/>
   <path class="fil1" d="M5193.65 6675.16c23.33,-40.41 6.13,-2.65 11.56,-51.85 9.63,-87.19 35.22,-40.23 107.07,-116.3 -13.65,-159.81 -157.26,-240.07 -270.21,-123.75 -46.84,48.24 -51.11,138.6 -18.18,208.31 29.54,62.55 84.32,88.63 169.76,83.58z"/>
   <path class="fil1" d="M813.56 3692.88c17.39,62.75 86.23,66.27 194.86,103.05 68,23.01 177.69,77.81 241.89,58.48l10.83 -222.28c-105.14,-16.38 -373.53,10.86 -447.58,60.76z"/>
   <path class="fil2" d="M6586.26 3470.51c51.39,49.83 208.82,28.19 293.38,35.87 75.19,6.85 244.11,34.6 313.1,11.71 7.31,-54.51 2.28,-121.83 -20.55,-165.11 -82.53,-2.58 -553.19,81.89 -585.93,117.54z"/>
   <path class="fil2" d="M406.9 3022.73c75.09,13.91 156.97,-11.68 223.33,-31.19 88.09,-25.88 157.96,-22.2 240.29,-36.26 -26.82,-66.86 -120.61,-84.03 -182.19,-106.09 -70.99,-25.43 -146.5,-66.9 -225.31,-71.87 -15.15,68.79 -67.43,174.95 -56.13,245.41z"/>
   <path class="fil2" d="M850.98 3250.68c13.58,39.68 1.02,24.94 87.89,65.52 88.22,41.21 240.71,151.24 336.88,151.91 15.7,-60.14 42.56,-153.1 31.89,-219.79 -66.44,-13.32 -402.48,-26.36 -456.66,2.36z"/>
   <path class="fil2" d="M4581.58 6851.35l16.15 113.07c99.99,5.52 155.21,-45.56 249.34,-39.92l41.03 152.15c16.45,-0.3 227.27,-50.26 260.14,-100.48 -89.2,-13.32 -118.42,-13.05 -187.23,-58.35 -123.72,-81.48 -72.84,-62.78 -136.21,-121.33l-243.23 54.86z"/>
   <path class="fil2" d="M317.59 3553.58c79.93,12.85 304.31,-53.65 386.14,-75.05 -18.24,-56.06 -20.3,-47.55 -163.99,-108.7 -67.51,-28.72 -110.27,-72.45 -182.5,-85.1 -36.88,69.62 -42.55,184.06 -39.65,268.84z"/>
   <path class="fil2" d="M320.9 4190.41c70.32,-13.74 116.57,-62 179.43,-94.91 49.93,-26.13 143.82,-57.27 157.49,-116.6 -78.87,-30.15 -284.4,-101.39 -354.9,-96.1l17.98 307.61z"/>
   <path class="fil1" d="M6386.18 2646.12c10.57,168.78 202.1,293.36 288.91,103.98 31.99,-69.78 54.1,-190.06 -54.49,-167.32 -69.61,14.56 -181.39,29.23 -234.42,63.34z"/>
   <path class="fil2" d="M6299.82 2038.19c64.29,-16.96 254.92,-201.43 287.37,-257.68 -26.05,-52.61 -115.44,-183.47 -156.94,-203.87 -25.27,31.36 -124.15,400.03 -130.43,461.55z"/>
   <path class="fil2" d="M2867.08 392.79c-1.86,60.37 19.65,66.77 55.73,100.05 64.59,59.56 190.87,203.08 245.37,195.22 14.49,-58.67 -40.5,-287.51 -69.49,-343.55 -50.85,-16.32 -180.53,14.65 -231.6,48.29z"/>
   <path class="fil2" d="M1370.71 1258.4c13.8,25.36 256.96,223.57 319.2,232.78 2.35,-61.65 -108.09,-340.65 -134.97,-383.86 -75.97,8.1 -51.67,16.96 -99.59,67.46 -39.09,41.19 -48.76,30.39 -84.65,83.62z"/>
   <path class="fil2" d="M1502.41 6465.8c12.92,22.51 220.78,200.08 289.14,211.04l51.13 -140.37c-63.15,-81.23 -262.6,-271.95 -340.26,-70.66z"/>
   <path class="fil2" d="M6305.21 3800.27c-22.15,64.26 -13.52,180.04 -13.42,252.68 49.22,-7.09 63.06,-25.56 95.45,-47.59l216.77 -154.26c40.43,-35.97 23.04,3.26 32.63,-50.82 -46.21,-13.91 -292.25,-17.09 -331.43,0z"/>
   <path class="fil2" d="M1291.48 1820.09c-10.28,-73.34 -98.23,-289.61 -137.33,-323.32 -50.33,27.02 -164.57,188.27 -162,215.2 4.95,52.02 244.69,97.85 299.33,108.12z"/>
   <path class="fil2" d="M6861.73 4014.32c80.76,22.78 275.59,16.39 348.24,-22.9l-0.65 -211.73c-57.01,-12.51 -228.54,122.5 -281.97,159.2 -91.15,62.65 -67.82,38.93 -65.62,75.42z"/>
   <path class="fil2" d="M6418.03 2352.74c72.59,-10.93 364.2,-87.45 420.3,-122.42l-69.45 -165.91c-80.11,14.86 -244.41,164.02 -307.35,226.64 -42.3,42.09 -18.34,-6.81 -43.5,61.69z"/>
   <path class="fil2" d="M1134.58 4025.77c-7.44,94.39 37.69,299.32 76.96,360.42l104.46 10.41c-10.32,-86.91 -33.88,-180.15 -40.72,-266.81 -15.01,-189.91 10.48,-143.26 -140.71,-104.03z"/>
   <path class="fil2" d="M7076.01 4680.21c40.37,-27.31 43.43,-66.15 63.08,-160.49 10.9,-52.34 32.25,-146.2 30.81,-194.57l-244.96 -13.71c14.61,88.05 58.81,96.99 93.59,176.91 24.57,56.49 28.71,152.83 57.48,191.86z"/>
   <path class="fil2" d="M3488.98 7290.87c72.61,13.57 175.12,15.85 238.19,-14.42 -32.7,-72.9 -45.07,-18.54 -107.39,-128.51 -40.24,-70.99 -34.86,-134.66 -61.16,-185.65 -39.32,13.65 -39.55,-0.32 -51.8,135.56 -5.71,63.31 -27.19,136.12 -17.84,193.01z"/>
   <path class="fil2" d="M2433.24 1119.53c-4.28,84.3 19.2,82.76 45.83,144.34 67.12,-4.57 149.76,-43.07 197.86,-73.83 7.9,-56.43 -3.94,-112.78 -16.54,-158.74 -69.73,7.92 -177.73,62.04 -227.16,88.24z"/>
   <path class="fil2" d="M624.43 2361.94c122.34,-29.34 70.48,-143.47 318.51,-102.47 -21.99,-84.65 -32.2,-62.66 -80.39,-118.37 -29.6,-34.2 -44.29,-67.95 -94.67,-84.43 -40.38,66.44 -131.48,215.65 -143.44,305.27z"/>
   <path class="fil2" d="M5416.58 1354.57c2.39,3.29 6.33,3.84 7.77,9.4 1.4,5.45 5.87,7.05 7.81,9.01l15.85 15.63c15.61,14.52 21.3,17.36 37.01,32.74 40.07,39.25 22.03,39.12 79.6,44.21 35.51,-70.79 101.14,-204.32 95.2,-275.01 -44.85,1.24 -197.96,96.4 -243.25,164.02z"/>
   <path class="fil2" d="M4138.2 7273.29c81.91,3.81 179.63,3.55 254.65,-26.69 4.63,-55.11 -31.72,-197.96 -50.45,-244.44 -39.22,19.82 -47.19,86.05 -85.15,135.21 -82.57,106.94 -87.56,60.05 -119.05,135.92z"/>
   <path class="fil2" d="M5623.43 6709.06c67.4,13.25 99.01,-40.43 204.94,-102.6 73.66,-43.23 45.03,1.77 54.67,-58.22 -26.33,-14.48 -202.1,-31.42 -236.38,-28.36 -67.39,136.67 -57.1,132.57 -23.23,189.18z"/>
   <path class="fil2" d="M4094.47 502.44c34.36,-14.68 2.8,6.23 31.73,-23.2 35.09,-35.68 16.97,-32.77 89.52,-88.38 128.51,-98.49 106.52,-34.88 128.68,-112.26 -62.16,-19.08 -162.55,-40.88 -230.33,-18.51 -14.63,56.63 -37.76,196.17 -19.61,242.35z"/>
   <path class="fil2" d="M643 4281.17l16.19 11.94c55.55,27.21 192.44,41.34 247.64,30.39 15.18,-45.62 -0.23,-109.53 -6.73,-161.16 -59.24,-11.62 -80.64,20 -134.42,45.32 -24.45,11.51 -44.67,16.21 -68.67,27.8 -11.43,5.52 -16.39,7.17 -26.56,14.98 -33.87,26.02 -9.93,2.31 -27.45,30.74z"/>
   <path class="fil2" d="M4516.74 6520.76c-14.81,128.97 53.16,121.49 177.46,81.13 2.25,-0.72 16.47,-5.59 20.42,-7.43 41.62,-19.19 7.74,-0.87 29.86,-18.74l-31.23 -110.77c-46.71,-1.1 -160.86,34.4 -196.5,55.81z"/>
   <path class="fil2" d="M1146.49 2096.54c28.92,63.47 104.11,135.82 158.79,176.65 33.03,-21.76 71.34,-76.85 77.55,-132.05l-165.1 -59c-11.82,-1.43 -22.65,-1.98 -35.17,0.33 -28.98,5.35 -17.88,3.07 -36.07,14.07z"/>
   <path class="fil2" d="M772.59 2589.79c22.51,17.58 115.63,68.15 145.67,78.3 119.97,-240.88 -138.36,-233.66 -145.67,-78.3z"/>
   <path class="fil2" d="M1807.3 6242.49c84.78,24.16 40.33,55.99 131.98,58.55l68.6 -202.13c-54.98,-8.81 -110.95,39.79 -160.92,82.33 -44.22,37.63 -21.81,11.35 -39.66,61.25z"/>
   <path class="fil2" d="M6224.15 4510.53c58.49,-23.46 45.06,-65.17 117.52,-152.93 27.31,-33.06 25.75,-20.99 32.43,-62.69l-107.27 -13.54c-20.23,43.05 -63.57,189.03 -42.68,229.16z"/>
  </g>
 </g>
</svg>
